<?xml version="1.0" standalone="no"?>
<!DOCTYPE svg PUBLIC "-//W3C//DTD SVG 1.1//EN" "http://www.w3.org/Graphics/SVG/1.1/DTD/svg11.dtd" >
<svg xmlns="http://www.w3.org/2000/svg" xmlns:xlink="http://www.w3.org/1999/xlink" version="1.1">
<metadata>
Created by FontForge 20170731 at Tue Mar  8 17:17:27 2011
 By ,,,
Copyright (c) 2011 by Travis Kochel. All rights reserved.
</metadata>
<defs>
<font id="Chartwell-Pies" horiz-adv-x="0" >
  <font-face 
    font-family="Chartwell-Pies"
    font-weight="400"
    font-stretch="normal"
    units-per-em="4000"
    panose-1="2 0 0 0 0 0 0 0 0 0"
    ascent="3000"
    descent="-1000"
    x-height="2250"
    cap-height="2802"
    bbox="-3057.74 -890 3052 3568"
    underline-thickness="200"
    underline-position="-800"
    unicode-range="U+0020-2026"
  />
<missing-glyph horiz-adv-x="1836" 
d="M612 3120l56 -2096q22 -5 63 -12t171.5 -8t265.5 20l56 2096q-33 4 -90 8t-218.5 5t-303.5 -13zM576 264q0 -138 97 -235t235 -97t235 97t97 235t-97 235t-235 97t-235 -97t-97 -235zM80 -560v4128h1676v-4128h-1676z" />
    <glyph glyph-name="hundred.zero" unicode="&#x31;&#x30;&#x30;" horiz-adv-x="3252" 
d="M200 1376q0 194 51 379t142.5 341.5t223 288.5t287.5 224t341 143.5t379 51.5t379 -51.5t341.5 -143.5t288.5 -224t224 -288.5t143.5 -341.5t51.5 -379t-51.5 -379t-143.5 -341t-224 -287.5t-288.5 -223t-341.5 -142.5t-379 -51t-379 51t-341 142.5t-287.5 223
t-223 287.5t-142.5 341t-51 379z" />
    <glyph glyph-name="ten.zero" unicode="&#x31;&#x30;" horiz-adv-x="3252" 
d="M1624 1376v1428q231 0 445 -70.5t394 -201.5z" />
    <glyph glyph-name="eleven.zero" unicode="&#x31;&#x31;" horiz-adv-x="3252" 
d="M1624 1376v1428q254 0 487 -85.5t423 -242.5z" />
    <glyph glyph-name="twelve.zero" unicode="&#x31;&#x32;" horiz-adv-x="3252" 
d="M1624 1376v1428q278 0 529.5 -101.5t447.5 -285.5z" />
    <glyph glyph-name="thirteen.zero" unicode="&#x31;&#x33;" horiz-adv-x="3252" 
d="M1624 1376v1428q302 0 571.5 -119t468.5 -331z" />
    <glyph glyph-name="fourteen.zero" unicode="&#x31;&#x34;" horiz-adv-x="3252" 
d="M1624 1376v1428q326 0 613 -138t487 -380z" />
    <glyph glyph-name="fifteen.zero" unicode="&#x31;&#x35;" horiz-adv-x="3252" 
d="M1624 1376v1428q349 0 652.5 -158t502.5 -430z" />
    <glyph glyph-name="sixteen.zero" unicode="&#x31;&#x36;" horiz-adv-x="3252" 
d="M1624 1376v1428q374 0 693 -179.5t513 -484.5z" />
    <glyph glyph-name="seventeen.zero" unicode="&#x31;&#x37;" horiz-adv-x="3252" 
d="M1624 1376v1428q398 0 732 -201.5t519 -538.5z" />
    <glyph glyph-name="eighteen.zero" unicode="&#x31;&#x38;" horiz-adv-x="3252" 
d="M1624 1376v1428q280 0 535.5 -104t448.5 -288.5t308 -427.5z" />
    <glyph glyph-name="nineteen.zero" unicode="&#x31;&#x39;" horiz-adv-x="3252" 
d="M1624 1376v1428q296 0 563 -115.5t463.5 -319t301.5 -467.5z" />
    <glyph glyph-name="twenty.zero" unicode="&#x32;&#x30;" horiz-adv-x="3252" 
d="M1624 1376v1428q311 0 589 -127t477 -350t292 -508z" />
    <glyph glyph-name="twentyone.zero" unicode="&#x32;&#x31;" horiz-adv-x="3252" 
d="M1624 1376v1428q327 0 616.5 -139.5t489 -383.5t278.5 -550z" />
    <glyph glyph-name="twentytwo.zero" unicode="&#x32;&#x32;" horiz-adv-x="3252" 
d="M1624 1376v1428q256 0 494 -89t421.5 -243t312 -368.5t175.5 -459.5z" />
    <glyph glyph-name="twentythree.zero" unicode="&#x32;&#x33;" horiz-adv-x="3252" 
d="M1624 1376v1428q268 0 515.5 -97t434 -263.5t310.5 -397.5t157 -491z" />
    <glyph glyph-name="twentyfour.zero" unicode="&#x32;&#x34;" horiz-adv-x="3252" 
d="M1624 1376v1428q187 0 365.5 -47.5t331 -133.5t283 -209t224.5 -270t152 -321t69 -358z" />
    <glyph glyph-name="twentyfive.zero" unicode="&#x32;&#x35;" horiz-adv-x="3252" 
d="M1624 1376v1428q194 0 379 -51.5t341.5 -143.5t288.5 -224t224 -288.5t143.5 -341.5t51.5 -379h-1428z" />
    <glyph glyph-name="twentysix.zero" unicode="&#x32;&#x36;" horiz-adv-x="3252" 
d="M1624 1376v1428q194 0 379 -51.5t341.5 -143.5t288.5 -224t224 -288.5t143.5 -341.5t51.5 -379q0 -46 -3 -91z" />
    <glyph glyph-name="twentyseven.zero" unicode="&#x32;&#x37;" horiz-adv-x="3252" 
d="M1624 1376v1428q194 0 379 -51.5t341.5 -143.5t288.5 -224t224 -288.5t143.5 -341.5t51.5 -379q0 -86 -11 -179z" />
    <glyph glyph-name="twentyeight.zero" unicode="&#x32;&#x38;" horiz-adv-x="3252" 
d="M1624 1376v1428q194 0 379 -51.5t341.5 -143.5t288.5 -224t224 -288.5t143.5 -341.5t51.5 -379q0 -142 -25 -268z" />
    <glyph glyph-name="twentynine.zero" unicode="&#x32;&#x39;" horiz-adv-x="3252" 
d="M1624 1376v1428q194 0 379 -51.5t341.5 -143.5t288.5 -224t224 -288.5t143.5 -341.5t51.5 -379q0 -179 -45 -356z" />
    <glyph glyph-name="thirty.zero" unicode="&#x33;&#x30;" horiz-adv-x="3252" 
d="M2982 935l-1358 441v1428q194 0 379 -51.5t341.5 -143.5t288.5 -224t224 -288.5t143.5 -341.5t51.5 -379q0 -229 -70 -441z" />
    <glyph glyph-name="thirtyone.zero" unicode="&#x33;&#x31;" horiz-adv-x="3252" 
d="M1624 1376v1428q194 0 379 -51.5t341.5 -143.5t288.5 -224t224 -288.5t143.5 -341.5t51.5 -379q0 -273 -100 -526z" />
    <glyph glyph-name="thirtytwo.zero" unicode="&#x33;&#x32;" horiz-adv-x="3252" 
d="M1624 1376v1428q194 0 379 -51.5t341.5 -143.5t288.5 -224t224 -288.5t143.5 -341.5t51.5 -379q0 -320 -136 -608z" />
    <glyph glyph-name="thirtythree.zero" unicode="&#x33;&#x33;" horiz-adv-x="3252" 
d="M1624 1376v1428q194 0 379 -51.5t341.5 -143.5t288.5 -224t224 -288.5t143.5 -341.5t51.5 -379q0 -369 -177 -687z" />
    <glyph glyph-name="thirtyfour.zero" unicode="&#x33;&#x34;" horiz-adv-x="3252" 
d="M1624 1376v1428q194 0 379 -51.5t341.5 -143.5t288.5 -224t224 -288.5t143.5 -341.5t51.5 -379q0 -415 -223 -765z" />
    <glyph glyph-name="thirtyfive.zero" unicode="&#x33;&#x35;" horiz-adv-x="3252" 
d="M1624 1376v1428q194 0 379 -51.5t341.5 -143.5t288.5 -224t224 -288.5t143.5 -341.5t51.5 -379q0 -232 -71 -445.5t-202 -392.5z" />
    <glyph glyph-name="thirtysix.zero" unicode="&#x33;&#x36;" horiz-adv-x="3252" 
d="M1624 1376v1428q194 0 379 -51.5t341.5 -143.5t288.5 -224t224 -288.5t143.5 -341.5t51.5 -379q0 -255 -85.5 -487.5t-242.5 -421.5z" />
    <glyph glyph-name="thirtyseven.zero" unicode="&#x33;&#x37;" horiz-adv-x="3252" 
d="M2664 400l-1040 976v1428q194 0 379 -51.5t341.5 -143.5t288.5 -224t224 -288.5t143.5 -341.5t51.5 -379q0 -278 -102 -529.5t-286 -446.5z" />
    <glyph glyph-name="thirtyeight.zero" unicode="&#x33;&#x38;" horiz-adv-x="3252" 
d="M1624 1376v1428q194 0 379 -51.5t341.5 -143.5t288.5 -224t224 -288.5t143.5 -341.5t51.5 -379q0 -302 -119.5 -571.5t-331.5 -467.5z" />
    <glyph glyph-name="thirtynine.zero" unicode="&#x33;&#x39;" horiz-adv-x="3252" 
d="M1624 1376v1428q194 0 379 -51.5t341.5 -143.5t288.5 -224t224 -288.5t143.5 -341.5t51.5 -379q0 -326 -138.5 -612.5t-380.5 -485.5z" />
    <glyph glyph-name="fourty.zero" unicode="&#x34;&#x30;" horiz-adv-x="3252" 
d="M2462 223l-838 1153v1428q194 0 379 -51.5t341.5 -143.5t288.5 -224t224 -288.5t143.5 -341.5t51.5 -379q0 -350 -158.5 -653t-431.5 -500z" />
    <glyph glyph-name="fourtyone.zero" unicode="&#x34;&#x31;" horiz-adv-x="3252" 
d="M2388 173l-764 1203v1428q194 0 379 -51.5t341.5 -143.5t288.5 -224t224 -288.5t143.5 -341.5t51.5 -379q0 -374 -179.5 -692t-484.5 -511z" />
    <glyph glyph-name="fourtytwo.zero" unicode="&#x34;&#x32;" horiz-adv-x="3252" 
d="M2310 127l-686 1249v1428q194 0 379 -51.5t341.5 -143.5t288.5 -224t224 -288.5t143.5 -341.5t51.5 -379q0 -398 -202.5 -731.5t-539.5 -517.5z" />
    <glyph glyph-name="fourtythree.zero" unicode="&#x34;&#x33;" horiz-adv-x="3252" 
d="M2230 86l-606 1290v1428q194 0 379 -51.5t341.5 -143.5t288.5 -224t224 -288.5t143.5 -341.5t51.5 -379q0 -280 -104.5 -535.5t-289.5 -448t-428 -306.5z" />
    <glyph glyph-name="fourtyfour.zero" unicode="&#x34;&#x34;" horiz-adv-x="3252" 
d="M2149 51l-525 1325v1428q194 0 379 -51.5t341.5 -143.5t288.5 -224t224 -288.5t143.5 -341.5t51.5 -379q0 -296 -115.5 -562.5t-319.5 -462.5t-468 -300z" />
    <glyph glyph-name="fourtyfive.zero" unicode="&#x34;&#x35;" horiz-adv-x="3252" 
d="M2065 21l-441 1355v1428q194 0 379 -51.5t341.5 -143.5t288.5 -224t224 -288.5t143.5 -341.5t51.5 -379q0 -234 -74 -452.5t-204.5 -394t-312.5 -307.5t-396 -201z" />
    <glyph glyph-name="fourtysix.zero" unicode="&#x34;&#x36;" horiz-adv-x="3252" 
d="M1978 -4l-354 1380v1428q194 0 379 -51.5t341.5 -143.5t288.5 -224t224 -288.5t143.5 -341.5t51.5 -379q0 -245 -81.5 -473.5t-224 -408t-341 -310t-427.5 -188.5z" />
    <glyph glyph-name="fourtyseven.zero" unicode="&#x34;&#x37;" horiz-adv-x="3252" 
d="M1891 -23l-267 1399v1428q194 0 379 -51.5t341.5 -143.5t288.5 -224t224 -288.5t143.5 -341.5t51.5 -379q0 -257 -89 -494.5t-243.5 -420.5t-369 -310.5t-459.5 -173.5z" />
    <glyph glyph-name="fourtyeight.zero" unicode="&#x34;&#x38;" horiz-adv-x="3252" 
d="M1802 -37l-178 1413v1428q194 0 379 -51.5t341.5 -143.5t288.5 -224t224 -288.5t143.5 -341.5t51.5 -379q0 -268 -97 -514.5t-263.5 -432.5t-397.5 -309.5t-492 -156.5z" />
    <glyph glyph-name="fourtynine.zero" unicode="&#x34;&#x39;" horiz-adv-x="3252" 
d="M1713 -45l-89 1421v1428q194 0 379 -51.5t341.5 -143.5t288.5 -224t224 -288.5t143.5 -341.5t51.5 -379q0 -279 -105 -534.5t-284 -444t-426.5 -307t-523.5 -135.5z" />
    <glyph glyph-name="fifty.zero" unicode="&#x35;&#x30;" horiz-adv-x="3252" 
d="M1624 -48v2852q194 0 379 -51.5t341.5 -143.5t288.5 -224t224 -288.5t143.5 -341.5t51.5 -379t-51.5 -379t-143.5 -341t-224 -287.5t-288.5 -223t-341.5 -142.5t-379 -51z" />
    <glyph glyph-name="fiftyone.zero" unicode="&#x35;&#x31;" horiz-adv-x="3252" 
d="M1624 -48q-45 0 -90 3l90 1421v1428q194 0 379 -51.5t341.5 -143.5t288.5 -224t224 -288.5t143.5 -341.5t51.5 -379t-51.5 -379t-143.5 -341t-224 -287.5t-288.5 -223t-341.5 -142.5t-379 -51z" />
    <glyph glyph-name="fiftytwo.zero" unicode="&#x35;&#x32;" horiz-adv-x="3252" 
d="M1624 -48q-87 0 -178 11l178 1413v1428q194 0 379 -51.5t341.5 -143.5t288.5 -224t224 -288.5t143.5 -341.5t51.5 -379t-51.5 -379t-143.5 -341t-224 -287.5t-288.5 -223t-341.5 -142.5t-379 -51z" />
    <glyph glyph-name="fiftythree.zero" unicode="&#x35;&#x33;" horiz-adv-x="3252" 
d="M1624 -48q-133 0 -267 25l267 1399v1428q194 0 379 -51.5t341.5 -143.5t288.5 -224t224 -288.5t143.5 -341.5t51.5 -379t-51.5 -379t-143.5 -341t-224 -287.5t-288.5 -223t-341.5 -142.5t-379 -51z" />
    <glyph glyph-name="fiftyfour.zero" unicode="&#x35;&#x34;" horiz-adv-x="3252" 
d="M1624 -48q-176 0 -354 44l354 1380v1428q194 0 379 -51.5t341.5 -143.5t288.5 -224t224 -288.5t143.5 -341.5t51.5 -379t-51.5 -379t-143.5 -341t-224 -287.5t-288.5 -223t-341.5 -142.5t-379 -51z" />
    <glyph glyph-name="fiftyfive.zero" unicode="&#x35;&#x35;" horiz-adv-x="3252" 
d="M1624 -48q-228 0 -441 69l441 1355v1428q194 0 379 -51.5t341.5 -143.5t288.5 -224t224 -288.5t143.5 -341.5t51.5 -379t-51.5 -379t-143.5 -341t-224 -287.5t-288.5 -223t-341.5 -142.5t-379 -51z" />
    <glyph glyph-name="fiftysix.zero" unicode="&#x35;&#x36;" horiz-adv-x="3252" 
d="M1624 -48q-270 0 -525 100l525 1324v1428q194 0 379 -51.5t341.5 -143.5t288.5 -224t224 -288.5t143.5 -341.5t51.5 -379t-51.5 -379t-143.5 -341t-224 -287.5t-288.5 -223t-341.5 -142.5t-379 -51z" />
    <glyph glyph-name="fiftyseven.zero" unicode="&#x35;&#x37;" horiz-adv-x="3252" 
d="M1624 -48q-321 0 -606 134l606 1290v1428q194 0 379 -51.5t341.5 -143.5t288.5 -224t224 -288.5t143.5 -341.5t51.5 -379t-51.5 -379t-143.5 -341t-224 -287.5t-288.5 -223t-341.5 -142.5t-379 -51z" />
    <glyph glyph-name="fiftyeight.zero" unicode="&#x35;&#x38;" horiz-adv-x="3252" 
d="M1624 -48q-367 0 -686 176l686 1248v1428q194 0 379 -51.5t341.5 -143.5t288.5 -224t224 -288.5t143.5 -341.5t51.5 -379t-51.5 -379t-143.5 -341t-224 -287.5t-288.5 -223t-341.5 -142.5t-379 -51z" />
    <glyph glyph-name="fiftynine.zero" unicode="&#x35;&#x39;" horiz-adv-x="3252" 
d="M1624 -48q-415 0 -764 221l764 1203v1428q194 0 379 -51.5t341.5 -143.5t288.5 -224t224 -288.5t143.5 -341.5t51.5 -379t-51.5 -379t-143.5 -341t-224 -287.5t-288.5 -223t-341.5 -142.5t-379 -51z" />
    <glyph glyph-name="sixty.zero" unicode="&#x36;&#x30;" horiz-adv-x="3252" 
d="M1624 -48q-231 0 -444.5 70.5t-393.5 201.5l838 1152v1428q194 0 379 -51.5t341.5 -143.5t288.5 -224t224 -288.5t143.5 -341.5t51.5 -379t-51.5 -379t-143.5 -341t-224 -287.5t-288.5 -223t-341.5 -142.5t-379 -51z" />
    <glyph glyph-name="sixtyone.zero" unicode="&#x36;&#x31;" horiz-adv-x="3252" 
d="M1624 -48q-255 0 -487.5 85t-420.5 241l908 1098v1428q194 0 379 -51.5t341.5 -143.5t288.5 -224t224 -288.5t143.5 -341.5t51.5 -379t-51.5 -379t-143.5 -341t-224 -287.5t-288.5 -223t-341.5 -142.5t-379 -51z" />
    <glyph glyph-name="sixtytwo.zero" unicode="&#x36;&#x32;" horiz-adv-x="3252" 
d="M1624 -48q-279 0 -530 101.5t-446 284.5l976 1038v1428q194 0 379 -51.5t341.5 -143.5t288.5 -224t224 -288.5t143.5 -341.5t51.5 -379t-51.5 -379t-143.5 -341t-224 -287.5t-288.5 -223t-341.5 -142.5t-379 -51z" />
    <glyph glyph-name="sixtythree.zero" unicode="&#x36;&#x33;" horiz-adv-x="3252" 
d="M1624 -48q-302 0 -571 118.5t-468 330.5l1039 975v1428q194 0 379 -51.5t341.5 -143.5t288.5 -224t224 -288.5t143.5 -341.5t51.5 -379t-51.5 -379t-143.5 -341t-224 -287.5t-288.5 -223t-341.5 -142.5t-379 -51z" />
    <glyph glyph-name="sixtyfour.zero" unicode="&#x36;&#x34;" horiz-adv-x="3252" 
d="M1624 -48q-326 0 -612 137.5t-486 378.5l1098 908v1428q194 0 379 -51.5t341.5 -143.5t288.5 -224t224 -288.5t143.5 -341.5t51.5 -379t-51.5 -379t-143.5 -341t-224 -287.5t-288.5 -223t-341.5 -142.5t-379 -51z" />
    <glyph glyph-name="sixtyfive.zero" unicode="&#x36;&#x35;" horiz-adv-x="3252" 
d="M1624 -48q-350 0 -652.5 157.5t-500.5 429.5l1153 837v1428q194 0 379 -51.5t341.5 -143.5t288.5 -224t224 -288.5t143.5 -341.5t51.5 -379t-51.5 -379t-143.5 -341t-224 -287.5t-288.5 -223t-341.5 -142.5t-379 -51z" />
    <glyph glyph-name="sixtysix.zero" unicode="&#x36;&#x36;" horiz-adv-x="3252" 
d="M1624 -48q-374 0 -692 178.5t-511 481.5l1203 764v1428q194 0 379 -51.5t341.5 -143.5t288.5 -224t224 -288.5t143.5 -341.5t51.5 -379t-51.5 -379t-143.5 -341t-224 -287.5t-288.5 -223t-341.5 -142.5t-379 -51z" />
    <glyph glyph-name="sixtyseven.zero" unicode="&#x36;&#x37;" horiz-adv-x="3252" 
d="M1624 -48q-398 0 -731 201t-518 537l1249 686v1428q194 0 379 -51.5t341.5 -143.5t288.5 -224t224 -288.5t143.5 -341.5t51.5 -379t-51.5 -379t-143.5 -341t-224 -287.5t-288.5 -223t-341.5 -142.5t-379 -51z" />
    <glyph glyph-name="sixtyeight.zero" unicode="&#x36;&#x38;" horiz-adv-x="3252" 
d="M1624 -48q-280 0 -535 103.5t-447.5 287.5t-306.5 426l1289 607v1428q194 0 379 -51.5t341.5 -143.5t288.5 -224t224 -288.5t143.5 -341.5t51.5 -379t-51.5 -379t-143.5 -341t-224 -287.5t-288.5 -223t-341.5 -142.5t-379 -51z" />
    <glyph glyph-name="sixtynine.zero" unicode="&#x36;&#x39;" horiz-adv-x="3252" 
d="M1624 -48q-296 0 -562.5 115t-462 318t-299.5 466l1324 525v1428q194 0 379 -51.5t341.5 -143.5t288.5 -224t224 -288.5t143.5 -341.5t51.5 -379t-51.5 -379t-143.5 -341t-224 -287.5t-288.5 -223t-341.5 -142.5t-379 -51z" />
    <glyph glyph-name="seventy.zero" unicode="&#x37;&#x30;" horiz-adv-x="3252" 
d="M1624 -48q-234 0 -452.5 73.5t-394 203.5t-307.5 312t-201 395l1355 440v1428q194 0 379 -51.5t341.5 -143.5t288.5 -224t224 -288.5t143.5 -341.5t51.5 -379t-51.5 -379t-143.5 -341t-224 -287.5t-288.5 -223t-341.5 -142.5t-379 -51z" />
    <glyph glyph-name="seventyone.zero" unicode="&#x37;&#x31;" horiz-adv-x="3252" 
d="M1624 -48q-246 0 -474 81t-407.5 222.5t-310 339t-188.5 426.5l1380 355v1428q194 0 379 -51.5t341.5 -143.5t288.5 -224t224 -288.5t143.5 -341.5t51.5 -379t-51.5 -379t-143.5 -341t-224 -287.5t-288.5 -223t-341.5 -142.5t-379 -51z" />
    <glyph glyph-name="seventytwo.zero" unicode="&#x37;&#x32;" horiz-adv-x="3252" 
d="M1624 -48q-257 0 -494 88.5t-420 242t-311 367.5t-174 458l1399 268v1428q194 0 379 -51.5t341.5 -143.5t288.5 -224t224 -288.5t143.5 -341.5t51.5 -379t-51.5 -379t-143.5 -341t-224 -287.5t-288.5 -223t-341.5 -142.5t-379 -51z" />
    <glyph glyph-name="seventythree.zero" unicode="&#x37;&#x33;" horiz-adv-x="3252" 
d="M1624 -48q-179 0 -351 43.5t-320 123t-276 193t-223 250.5t-158.5 299.5t-84.5 336.5l1413 178v1428q194 0 379 -51.5t341.5 -143.5t288.5 -224t224 -288.5t143.5 -341.5t51.5 -379t-51.5 -379t-143.5 -341t-224 -287.5t-288.5 -223t-341.5 -142.5t-379 -51z" />
    <glyph glyph-name="seventyfour.zero" unicode="&#x37;&#x34;" horiz-adv-x="3252" 
d="M1624 -48q-187 0 -365 47.5t-330 132.5t-282 207.5t-223.5 268.5t-151 319.5t-69.5 357.5l1421 91v1428q194 0 379 -51.5t341.5 -143.5t288.5 -224t224 -288.5t143.5 -341.5t51.5 -379t-51.5 -379t-143.5 -341t-224 -287.5t-288.5 -223t-341.5 -142.5t-379 -51z" />
    <glyph glyph-name="seventyfive.zero" unicode="&#x37;&#x35;" horiz-adv-x="3252" 
d="M200 1376h1424v1428q194 0 379 -51.5t341.5 -143.5t288.5 -224t224 -288.5t143.5 -341.5t51.5 -379t-51.5 -379t-143.5 -341t-224 -287.5t-288.5 -223t-341.5 -142.5t-379 -51t-379 51t-341 142.5t-287.5 223t-223 287.5t-142.5 341t-51 379z" />
    <glyph glyph-name="seventysix.zero" unicode="&#x37;&#x36;" horiz-adv-x="3252" 
d="M203 1465l1421 -89v1428q194 0 379 -51.5t341.5 -143.5t288.5 -224t224 -288.5t143.5 -341.5t51.5 -379t-51.5 -379t-143.5 -341t-224 -287.5t-288.5 -223t-341.5 -142.5t-379 -51t-379 51t-341 142.5t-287.5 223t-223 287.5t-142.5 341t-51 379q0 46 3 89z" />
    <glyph glyph-name="seventyseven.zero" unicode="&#x37;&#x37;" horiz-adv-x="3252" 
d="M211 1554l1413 -178v1428q194 0 379 -51.5t341.5 -143.5t288.5 -224t224 -288.5t143.5 -341.5t51.5 -379t-51.5 -379t-143.5 -341t-224 -287.5t-288.5 -223t-341.5 -142.5t-379 -51t-379 51t-341 142.5t-287.5 223t-223 287.5t-142.5 341t-51 379q0 87 11 178z" />
    <glyph glyph-name="seventyeight.zero" unicode="&#x37;&#x38;" horiz-adv-x="3252" 
d="M1624 1376v1428q194 0 379 -51.5t341.5 -143.5t288.5 -224t224 -288.5t143.5 -341.5t51.5 -379t-51.5 -379t-143.5 -341t-224 -287.5t-288.5 -223t-341.5 -142.5t-379 -51t-379 51t-341 142.5t-287.5 223t-223 287.5t-142.5 341t-51 379q0 133 25 267z" />
    <glyph glyph-name="seventynine.zero" unicode="&#x37;&#x39;" horiz-adv-x="3252" 
d="M1624 1376v1428q194 0 379 -51.5t341.5 -143.5t288.5 -224t224 -288.5t143.5 -341.5t51.5 -379t-51.5 -379t-143.5 -341t-224 -287.5t-288.5 -223t-341.5 -142.5t-379 -51t-379 51t-341 142.5t-287.5 223t-223 287.5t-142.5 341t-51 379q0 183 44 354z" />
    <glyph glyph-name="eighty.zero" unicode="&#x38;&#x30;" horiz-adv-x="3252" 
d="M1624 1376v1428q194 0 379 -51.5t341.5 -143.5t288.5 -224t224 -288.5t143.5 -341.5t51.5 -379t-51.5 -379t-143.5 -341t-224 -287.5t-288.5 -223t-341.5 -142.5t-379 -51t-379 51t-341 142.5t-287.5 223t-223 287.5t-142.5 341t-51 379q0 229 70 442z" />
    <glyph glyph-name="eightyone.zero" unicode="&#x38;&#x31;" horiz-adv-x="3252" 
d="M1624 1376v1428q194 0 379 -51.5t341.5 -143.5t288.5 -224t224 -288.5t143.5 -341.5t51.5 -379t-51.5 -379t-143.5 -341t-224 -287.5t-288.5 -223t-341.5 -142.5t-379 -51t-379 51t-341 142.5t-287.5 223t-223 287.5t-142.5 341t-51 379q0 273 99 524z" />
    <glyph glyph-name="eightytwo.zero" unicode="&#x38;&#x32;" horiz-adv-x="3252" 
d="M334 1983l1290 -607v1428q194 0 379 -51.5t341.5 -143.5t288.5 -224t224 -288.5t143.5 -341.5t51.5 -379t-51.5 -379t-143.5 -341t-224 -287.5t-288.5 -223t-341.5 -142.5t-379 -51t-379 51t-341 142.5t-287.5 223t-223 287.5t-142.5 341t-51 379q0 320 134 607z" />
    <glyph glyph-name="eightythree.zero" unicode="&#x38;&#x33;" horiz-adv-x="3252" 
d="M375 2062l1249 -686v1428q194 0 379 -51.5t341.5 -143.5t288.5 -224t224 -288.5t143.5 -341.5t51.5 -379t-51.5 -379t-143.5 -341t-224 -287.5t-288.5 -223t-341.5 -142.5t-379 -51t-379 51t-341 142.5t-287.5 223t-223 287.5t-142.5 341t-51 379q0 366 175 686z" />
    <glyph glyph-name="eightyfour.zero" unicode="&#x38;&#x34;" horiz-adv-x="3252" 
d="M1624 1376v1428q194 0 379 -51.5t341.5 -143.5t288.5 -224t224 -288.5t143.5 -341.5t51.5 -379t-51.5 -379t-143.5 -341t-224 -287.5t-288.5 -223t-341.5 -142.5t-379 -51t-379 51t-341 142.5t-287.5 223t-223 287.5t-142.5 341t-51 379q0 413 220 763z" />
    <glyph glyph-name="eightyfive.zero" unicode="&#x38;&#x35;" horiz-adv-x="3252" 
d="M471 2214l1153 -838v1428q194 0 379 -51.5t341.5 -143.5t288.5 -224t224 -288.5t143.5 -341.5t51.5 -379t-51.5 -379t-143.5 -341t-224 -287.5t-288.5 -223t-341.5 -142.5t-379 -51t-379 51t-341 142.5t-287.5 223t-223 287.5t-142.5 341t-51 379q0 231 70.5 444.5
t200.5 393.5z" />
    <glyph glyph-name="eightysix.zero" unicode="&#x38;&#x36;" horiz-adv-x="3252" 
d="M1624 1376v1428q194 0 379 -51.5t341.5 -143.5t288.5 -224t224 -288.5t143.5 -341.5t51.5 -379t-51.5 -379t-143.5 -341t-224 -287.5t-288.5 -223t-341.5 -142.5t-379 -51t-379 51t-341 142.5t-287.5 223t-223 287.5t-142.5 341t-51 379q0 255 85 487.5t241 421.5z" />
    <glyph glyph-name="eightyseven.zero" unicode="&#x38;&#x37;" horiz-adv-x="3252" 
d="M1624 1376v1428q194 0 379 -51.5t341.5 -143.5t288.5 -224t224 -288.5t143.5 -341.5t51.5 -379t-51.5 -379t-143.5 -341t-224 -287.5t-288.5 -223t-341.5 -142.5t-379 -51t-379 51t-341 142.5t-287.5 223t-223 287.5t-142.5 341t-51 379q0 279 101 530t284 446z" />
    <glyph glyph-name="eightyeight.zero" unicode="&#x38;&#x38;" horiz-adv-x="3252" 
d="M648 2416l976 -1040v1428q194 0 379 -51.5t341.5 -143.5t288.5 -224t224 -288.5t143.5 -341.5t51.5 -379t-51.5 -379t-143.5 -341t-224 -287.5t-288.5 -223t-341.5 -142.5t-379 -51t-379 51t-341 142.5t-287.5 223t-223 287.5t-142.5 341t-51 379q0 302 118.5 571.5
t329.5 468.5z" />
    <glyph glyph-name="eightynine.zero" unicode="&#x38;&#x39;" horiz-adv-x="3252" 
d="M715 2475l909 -1099v1428q194 0 379 -51.5t341.5 -143.5t288.5 -224t224 -288.5t143.5 -341.5t51.5 -379t-51.5 -379t-143.5 -341t-224 -287.5t-288.5 -223t-341.5 -142.5t-379 -51t-379 51t-341 142.5t-287.5 223t-223 287.5t-142.5 341t-51 379q0 326 137 612.5
t378 486.5z" />
    <glyph glyph-name="ninety.zero" unicode="&#x39;&#x30;" horiz-adv-x="3252" 
d="M1624 1376v1428q194 0 379 -51.5t341.5 -143.5t288.5 -224t224 -288.5t143.5 -341.5t51.5 -379t-51.5 -379t-143.5 -341t-224 -287.5t-288.5 -223t-341.5 -142.5t-379 -51t-379 51t-341 142.5t-287.5 223t-223 287.5t-142.5 341t-51 379q0 349 157.5 652.5t428.5 502.5z
" />
    <glyph glyph-name="ninetyone.zero" unicode="&#x39;&#x31;" horiz-adv-x="3252" 
d="M1624 1376v1428q194 0 379 -51.5t341.5 -143.5t288.5 -224t224 -288.5t143.5 -341.5t51.5 -379t-51.5 -379t-143.5 -341t-224 -287.5t-288.5 -223t-341.5 -142.5t-379 -51t-379 51t-341 142.5t-287.5 223t-223 287.5t-142.5 341t-51 379q0 373 178.5 692.5t481.5 512.5z
" />
    <glyph glyph-name="ninetytwo.zero" unicode="&#x39;&#x32;" horiz-adv-x="3252" 
d="M937 2627l687 -1251v1428q194 0 379 -51.5t341.5 -143.5t288.5 -224t224 -288.5t143.5 -341.5t51.5 -379t-51.5 -379t-143.5 -341t-224 -287.5t-288.5 -223t-341.5 -142.5t-379 -51t-379 51t-341 142.5t-287.5 223t-223 287.5t-142.5 341t-51 379q0 397 201 731.5
t536 519.5z" />
    <glyph glyph-name="ninetythree.zero" unicode="&#x39;&#x33;" horiz-adv-x="3252" 
d="M200 1376q0 421 224 769.5t592 522.5l608 -1292v1428q194 0 379 -51.5t341.5 -143.5t288.5 -224t224 -288.5t143.5 -341.5t51.5 -379t-51.5 -379t-143.5 -341t-224 -287.5t-288.5 -223t-341.5 -142.5t-379 -51t-379 51t-341 142.5t-287.5 223t-223 287.5t-142.5 341
t-51 379z" />
    <glyph glyph-name="ninetyfour.zero" unicode="&#x39;&#x34;" horiz-adv-x="3252" 
d="M1624 1376v1428q194 0 379 -51.5t341.5 -143.5t288.5 -224t224 -288.5t143.5 -341.5t51.5 -379t-51.5 -379t-143.5 -341t-224 -287.5t-288.5 -223t-341.5 -142.5t-379 -51t-379 51t-341 142.5t-287.5 223t-223 287.5t-142.5 341t-51 379q0 222 66.5 431.5t185 380
t284.5 304t362 211.5z" />
    <glyph glyph-name="ninetyfive.zero" unicode="&#x39;&#x35;" horiz-adv-x="3252" 
d="M1182 2734l442 -1358v1428q194 0 379 -51.5t341.5 -143.5t288.5 -224t224 -288.5t143.5 -341.5t51.5 -379t-51.5 -379t-143.5 -341t-224 -287.5t-288.5 -223t-341.5 -142.5t-379 -51t-379 51t-341 142.5t-287.5 223t-223 287.5t-142.5 341t-51 379q0 312 126.5 590
t348.5 476.5t507 291.5z" />
    <glyph glyph-name="ninetysix.zero" unicode="&#x39;&#x36;" horiz-adv-x="3252" 
d="M1624 1376v1428q194 0 379 -51.5t341.5 -143.5t288.5 -224t224 -288.5t143.5 -341.5t51.5 -379t-51.5 -379t-143.5 -341t-224 -287.5t-288.5 -223t-341.5 -142.5t-379 -51t-379 51t-341 142.5t-287.5 223t-223 287.5t-142.5 341t-51 379q0 245 80.5 473.5t222.5 408.5
t339 311t426 190z" />
    <glyph glyph-name="ninetyseven.zero" unicode="&#x39;&#x37;" horiz-adv-x="3252" 
d="M1357 2778l267 -1402v1428q194 0 379 -51.5t341.5 -143.5t288.5 -224t224 -288.5t143.5 -341.5t51.5 -379t-51.5 -379t-143.5 -341t-224 -287.5t-288.5 -223t-341.5 -142.5t-379 -51t-379 51t-341 142.5t-287.5 223t-223 287.5t-142.5 341t-51 379q0 257 88.5 494.5
t242 421t367.5 312t459 174.5z" />
    <glyph glyph-name="ninetyeight.zero" unicode="&#x39;&#x38;" horiz-adv-x="3252" 
d="M1443 2792l181 -1416v1428q194 0 379 -51.5t341.5 -143.5t288.5 -224t224 -288.5t143.5 -341.5t51.5 -379t-51.5 -379t-143.5 -341t-224 -287.5t-288.5 -223t-341.5 -142.5t-379 -51t-379 51t-341 142.5t-287.5 223t-223 287.5t-142.5 341t-51 379q0 215 61.5 417.5
t174.5 370.5t265.5 300.5t343 217t398.5 110.5z" />
    <glyph glyph-name="ninetynine.zero" unicode="&#x39;&#x39;" horiz-adv-x="3252" 
d="M1534 2801l90 -1425v1428q194 0 379 -51.5t341.5 -143.5t288.5 -224t224 -288.5t143.5 -341.5t51.5 -379t-51.5 -379t-143.5 -341t-224 -287.5t-288.5 -223t-341.5 -142.5t-379 -51t-379 51t-341 142.5t-287.5 223t-223 287.5t-142.5 341t-51 379q0 187 47.5 365.5
t132.5 331t207.5 282.5t269 224.5t320 152t357.5 69.5z" />
    <glyph glyph-name=".notdef" horiz-adv-x="1836" 
d="M612 3120l56 -2096q22 -5 63 -12t171.5 -8t265.5 20l56 2096q-33 4 -90 8t-218.5 5t-303.5 -13zM576 264q0 -138 97 -235t235 -97t235 97t97 235t-97 235t-235 97t-235 -97t-97 -235zM80 -560v4128h1676v-4128h-1676z" />
    <glyph glyph-name=".null" 
 />
    <glyph glyph-name="nonmarkingreturn" horiz-adv-x="1333" 
 />
    <glyph glyph-name="space" unicode=" " horiz-adv-x="600" 
 />
    <glyph glyph-name="exclam" unicode="!" horiz-adv-x="804" 
d="M290 725l-60 2075h344l-60 -2075h-224zM250 0v392h304v-392h-304z" />
    <glyph glyph-name="quotedbl" unicode="&#x22;" horiz-adv-x="1071" 
d="M220 1965l-60 838h324l-60 -838h-204zM647 1965l-60 838h324l-60 -838h-204z" />
    <glyph glyph-name="numbersign" unicode="#" horiz-adv-x="2417" 
d="M1222 0l131 785h-474l-131 -785h-240l131 785h-559v226h597l145 862h-576v226h614l118 703h240l-118 -703h474l118 703h240l-118 -703h523v-226h-561l-145 -862h540v-226h-578l-131 -785h-240zM1062 1873l-145 -862h474l145 862h-474z" />
    <glyph glyph-name="dollar" unicode="$" horiz-adv-x="1328" 
d="M565 -300v390q-98 18 -172 70t-128.5 144.5t-82.5 235.5t-28 334h274q0 -150 19 -255t55.5 -162t81.5 -81.5t105 -24.5q46 0 84.5 15.5t73.5 51.5t54.5 106t19.5 168q0 104 -39 212.5t-102 205.5t-138.5 196.5t-151.5 201.5t-139 203.5t-102 218.5t-39 232q0 109 21 198
t55 147.5t82 101.5t95.5 65t101.5 34v394h227v-392q68 -12 123.5 -41t107 -87t86.5 -142t56 -213t21 -293h-266q0 271 -58.5 391t-182.5 120q-29 0 -52.5 -5.5t-50 -23.5t-44.5 -48t-30 -84t-12 -126q0 -82 38.5 -177t99.5 -187t135 -191t148.5 -204.5t135.5 -211.5
t99.5 -227.5t38.5 -237.5q0 -289 -103 -444.5t-290 -188.5v-389h-227z" />
    <glyph glyph-name="percent" unicode="%" horiz-adv-x="2190" 
d="M266 0l1400 2802h253l-1400 -2802h-253zM570 2840q72 0 127 -15t108.5 -59.5t88 -119t55.5 -200t21 -296.5t-21 -296.5t-55.5 -200t-88 -119t-108.5 -59.5t-127 -15t-127 15t-108.5 59.5t-88 119t-55.5 200t-21 296.5t21 296.5t55.5 200t88 119t108.5 59.5t127 15z
M570 2638q-35 0 -64 -23.5t-53.5 -76.5t-38.5 -152t-14 -236t14 -236t38.5 -152t53.5 -76.5t64 -23.5q36 0 64 19.5t53.5 69.5t39 151t13.5 248t-13.5 248t-39 151t-53.5 69.5t-64 19.5zM1620 1340q72 0 127 -15t108.5 -59.5t88 -119t55.5 -200t21 -296.5t-21 -296.5
t-55.5 -200t-88 -119t-108.5 -59.5t-127 -15t-127 15t-108.5 59.5t-88 119t-55.5 200t-21 296.5t21 296.5t55.5 200t88 119t108.5 59.5t127 15zM1620 1138q-35 0 -64 -23.5t-53.5 -76.5t-38.5 -152t-14 -236t14 -236t38.5 -152t53.5 -76.5t64 -23.5q36 0 64 19.5t53.5 69.5
t39 151t13.5 248t-13.5 248t-39 151t-53.5 69.5t-64 19.5z" />
    <glyph glyph-name="ampersand" unicode="&#x26;" horiz-adv-x="1751" 
d="M1683 170l-179 -170q-98 112 -238 280q-168 -320 -512 -320q-87 0 -163.5 19.5t-149.5 67.5t-125.5 122.5t-84 192t-31.5 267.5q0 107 18.5 204.5t47 172t72.5 147t86 124t97 108.5q-214 447 -214 833q0 622 471 622q200 0 314 -137.5t114 -408.5q0 -160 -30.5 -309.5
t-71.5 -251.5t-97 -194.5t-92 -137t-71 -79.5q136 -244 330 -511q31 255 31 669h247q0 -586 -85 -925q142 -181 316 -385zM467 672q0 -102 20 -182.5t51 -130.5t73 -83.5t82.5 -46.5t81.5 -13q117 0 197.5 60.5t131.5 205.5q-285 366 -469 687q-84 -112 -126 -230.5
t-42 -266.5zM964 2273q0 141 -47 228t-139 87q-28 0 -53.5 -7.5t-53 -30.5t-47.5 -59.5t-33 -100t-13 -146.5q0 -168 34.5 -335.5t120.5 -362.5q27 30 53 65.5t60 101.5t58.5 141.5t42 186t17.5 232.5z" />
    <glyph glyph-name="quotesingle" unicode="'" horiz-adv-x="644" 
d="M220 1965l-60 838h324l-60 -838h-204z" />
    <glyph glyph-name="parenleft" unicode="(" horiz-adv-x="927" 
d="M852 -315h-227q-8 15 -21.5 43t-53 122t-75.5 194.5t-80 255t-75.5 310.5t-53 353.5t-21.5 390.5q0 203 21 404.5t54.5 360.5t74 304t81 249.5t74 182.5t54.5 117l21 38h227q-7 -15 -19 -43.5t-46 -123.5t-65.5 -196t-69.5 -255t-65 -308t-46 -348t-19 -382
q0 -239 34 -499t82.5 -460t97 -366t82.5 -255z" />
    <glyph glyph-name="parenright" unicode=")" horiz-adv-x="927" 
d="M302 -315h-227q13 33 35.5 93t79.5 247t100.5 374.5t79 451.5t35.5 503q0 258 -34 523t-82.5 460t-97 352.5t-82.5 238.5l-34 82h227q8 -14 21.5 -40t53 -114t75.5 -184.5t80 -247.5t75.5 -306.5t53 -358t21.5 -405.5q0 -193 -21 -389t-54.5 -356t-74 -308t-81 -257.5
t-74 -192t-54.5 -124.5z" />
    <glyph glyph-name="asterisk" unicode="*" horiz-adv-x="929" 
d="M857 1962l-314 197l14 -370h-185l14 370l-314 -197l-92 160l328 174l-328 173l92 160l315 -200l-15 373h185l-16 -373l316 200l92 -160l-329 -173l329 -174z" />
    <glyph glyph-name="plus" unicode="+" horiz-adv-x="1480" 
d="M607 772v458h-437v238h437v458h264v-458h439v-238h-439v-458h-264z" />
    <glyph glyph-name="comma" unicode="," horiz-adv-x="623" 
d="M80 -446l122 838h321l-242 -838h-201z" />
    <glyph glyph-name="hyphen" unicode="-" horiz-adv-x="1156" 
d="M936 1466v-284h-716v284h716z" />
    <glyph glyph-name="period" unicode="." horiz-adv-x="524" 
d="M110 0v392h304v-392h-304z" />
    <glyph glyph-name="slash" unicode="/" horiz-adv-x="1065" 
d="M50 -317l708 3367h257l-708 -3367h-257z" />
    <glyph glyph-name="zero" unicode="0" horiz-adv-x="1500" 
d="M750 2840q76 0 136 -14t122 -53t108.5 -105t88 -175.5t68 -259t42 -360t15.5 -473.5t-15.5 -473.5t-42 -360t-68 -259t-88 -175.5t-108.5 -105t-122 -53t-136 -14t-136 14t-122 53t-108.5 105t-88 175.5t-68 259t-42 360t-15.5 473.5t15.5 473.5t42 360t68 259t88 175.5
t108.5 105t122 53t136 14zM750 2548q-57 0 -95.5 -23.5t-73.5 -93t-55.5 -195.5t-32 -333t-11.5 -503t11.5 -503t32 -333t55.5 -195.5t73.5 -93t95.5 -23.5q41 0 70 9t59 37t50 78.5t38 135t28.5 206t16.5 291.5t6 391t-6 391t-16.5 291.5t-28.5 206t-38 135t-50 78.5
t-59 37t-70 9z" />
    <glyph glyph-name="one" unicode="1" horiz-adv-x="938" 
d="M688 0h-292v2469h-296v191l412 142h176v-2802z" />
    <glyph glyph-name="two" unicode="2" horiz-adv-x="1352" 
d="M176 0v284q53 198 121.5 375t134 302t133.5 241.5t124 216t101 202.5t70 225t25 260q0 245 -45.5 353t-139.5 108q-44 0 -79.5 -21t-59.5 -55.5t-41.5 -88t-27.5 -108.5t-16 -127.5t-8 -134.5t-2 -139h-271q0 491 119.5 719t392.5 228q105 0 186.5 -40t143 -125
t94.5 -227t33 -336q0 -161 -29 -308.5t-78 -269t-110 -235.5t-130 -230.5t-132 -231t-122 -259.5t-95 -294h746v-284h-1038z" />
    <glyph glyph-name="three" unicode="3" horiz-adv-x="1406" 
d="M890 2150q0 50 -2 90t-8 93t-19.5 91.5t-34.5 74t-55.5 54.5t-78.5 19q-82 0 -133 -65t-78 -216t-27 -399h-273q0 487 121 717.5t396 230.5q112 0 197.5 -39.5t137.5 -103.5t85.5 -154t45.5 -180.5t12 -194.5q0 -313 -67.5 -467t-238.5 -225q93 -25 160.5 -79t106 -119.5
t61 -155.5t29.5 -171t7 -183q0 -179 -29.5 -320t-78.5 -231t-119 -149t-145 -83.5t-162 -24.5q-261 0 -395 235.5t-134 696.5h278q0 -339 71 -500.5t192 -161.5q111 0 175 129t64 406q0 111 -10.5 189.5t-36.5 143.5t-72.5 106.5t-115.5 68.5t-168 39v258q69 20 115.5 42
t93 64t73.5 101.5t43.5 153t16.5 219.5z" />
    <glyph glyph-name="four" unicode="4" horiz-adv-x="1466" 
d="M74 852l659 1950h435v-1950h211v-260h-211v-592h-274v592h-820v260zM330 852h564v1231q0 115 2 233.5t4 179.5l3 61h-20q-59 -207 -138 -458z" />
    <glyph glyph-name="five" unicode="5" horiz-adv-x="1494" 
d="M580 2518l-39 -847q5 5 13.5 12t38 26.5t61.5 34t80 26.5t97 12q45 0 85 -7.5t89 -31.5t89 -63t79 -109t66 -162.5t43.5 -229t16.5 -303.5q0 -477 -138.5 -696.5t-404.5 -219.5q-260 0 -404 232.5t-144 695.5h285q0 -97 6.5 -181.5t25 -174.5t48 -153.5t80 -104.5
t117.5 -41q68 0 116 41.5t75 123.5t39 190t12 255q0 128 -7 230t-18 172.5t-29.5 122t-37.5 81t-44.5 46.5t-48.5 22.5t-53 5.5q-40 0 -80 -13.5t-68 -33t-50.5 -39.5t-33.5 -33l-11 -14l-267 37l67 1375h823v-284h-574z" />
    <glyph glyph-name="six" unicode="6" horiz-adv-x="1478" 
d="M757 2565q-40 0 -70.5 -10t-62.5 -39.5t-54.5 -80.5t-43.5 -136t-33.5 -202.5t-20 -283t-7.5 -375.5q134 166 337 166q69 0 133.5 -19.5t134 -75t121 -142.5t84.5 -234.5t33 -338.5q0 -834 -550 -834q-83 0 -148.5 16t-128 56.5t-109 108.5t-86 173.5t-64.5 249.5
t-38.5 339t-13.5 439q0 232 8.5 419t26.5 336t43 262t62.5 195.5t81 137.5t101.5 88t120.5 46.5t141.5 13.5q252 0 371 -227.5t119 -720.5h-275q0 673 -213 673zM758 1343q-92 0 -171.5 -57.5t-121.5 -143.5q0 -182 11 -327t31.5 -242t46.5 -165t60.5 -105t68 -52.5
t73.5 -15.5q51 0 88.5 13t72 49t56.5 97.5t34.5 162t12.5 237.5q0 136 -18 239t-44.5 160.5t-63.5 92.5t-69 46t-67 11z" />
    <glyph glyph-name="seven" unicode="7" horiz-adv-x="1232" 
d="M1088 2518l-464 -2518h-279l464 2518h-733v284h1012v-284z" />
    <glyph glyph-name="eight" unicode="8" horiz-adv-x="1468" 
d="M735 2840q53 0 101 -8.5t100 -31.5t96 -58.5t84 -93.5t67.5 -133t44 -180.5t16.5 -232.5q0 -261 -74.5 -418.5t-203.5 -225.5q71 -33 127.5 -90t103 -144t71.5 -214.5t25 -286.5q0 -133 -19 -243.5t-50.5 -188t-77 -137.5t-94 -96t-105.5 -58.5t-108 -31t-105 -8.5
q-559 0 -559 763q0 282 77 442.5t236 253.5q-53 32 -99.5 84t-89 132t-67 200.5t-24.5 266.5q0 125 17.5 229.5t46.5 179t71 133t88 95t99.5 60t103 32.5t101.5 9zM734 1288q-138 0 -204.5 -133t-66.5 -432q0 -501 271 -501q48 0 85.5 11.5t74 44t60 87t38 145t14.5 213.5
q0 160 -22.5 274.5t-62 175.5t-85.5 88t-102 27zM735 2578q-235 0 -235 -476q0 -138 22 -244.5t57.5 -165t75 -87t80.5 -28.5q40 0 71.5 13.5t61 49.5t49 94t31 151t11.5 217q0 111 -11.5 195.5t-31 137t-49 85.5t-61 45.5t-71.5 12.5z" />
    <glyph glyph-name="nine" unicode="9" horiz-adv-x="1473" 
d="M739 235q33 0 55 3.5t47.5 16t42.5 35.5t36 62.5t30.5 97.5t23 140.5t17.5 190.5t9.5 248t3.5 313q-137 -146 -330 -146q-47 0 -90.5 8t-95.5 31t-95 60t-85 100t-71 146t-46.5 203.5t-17.5 266.5q0 143 18.5 262.5t50 204t76 149.5t92.5 104.5t104.5 64.5t107 34.5
t104.5 9.5q57 0 103.5 -7t96 -27t89 -53.5t78.5 -88t69 -128.5t56 -178t43.5 -234t28.5 -298t13 -368q3 -271 -8 -485t-33.5 -370.5t-60.5 -270t-82.5 -185t-107 -113.5t-127 -58t-148.5 -16q-524 0 -524 930h276q0 -149 14.5 -265.5t38.5 -188.5t57.5 -118.5t67.5 -64.5
t73 -18zM717 1452q92 0 166.5 52.5t120.5 133.5q3 217 -9.5 382t-36.5 268t-60.5 167.5t-77.5 89.5t-91 25q-44 0 -78.5 -10.5t-71 -45t-60.5 -93.5t-39.5 -162.5t-15.5 -244.5q0 -139 14.5 -242.5t37.5 -163.5t57.5 -96t68 -48t75.5 -12z" />
    <glyph glyph-name="colon" unicode=":" horiz-adv-x="724" 
d="M110 0v392h304v-392h-304zM110 1862v392h304v-392h-304z" />
    <glyph glyph-name="semicolon" unicode=";" horiz-adv-x="724" 
d="M110 1862v392h304v-392h-304zM-20 -446l122 838h321l-242 -838h-201z" />
    <glyph glyph-name="less" unicode="&#x3c;" horiz-adv-x="1384" 
d="M1184 1761l-724 -494l724 -498v-325l-964 651v309l964 687v-330z" />
    <glyph glyph-name="equal" unicode="=" horiz-adv-x="1346" 
d="M1176 1742v-274h-1006v274h1006zM1176 1182v-274h-1006v274h1006z" />
    <glyph glyph-name="greater" unicode="&#x3e;" horiz-adv-x="1384" 
d="M200 772l724 494l-724 498v325l964 -651v-309l-964 -687v330z" />
    <glyph glyph-name="question" unicode="?" horiz-adv-x="1187" 
d="M672 724h-234q-10 186 3 340.5t41.5 261.5t65.5 198.5t75.5 169.5t71 154t53 172t20.5 206q0 162 -48.5 255.5t-121.5 93.5q-88 0 -139.5 -153t-51.5 -468h-267q0 318 48 512.5t148 284t262 89.5q213 0 326.5 -150.5t113.5 -457.5q0 -122 -20.5 -230t-53.5 -192t-73 -167
t-79.5 -174t-71.5 -193t-51 -244t-17 -308zM414 0v392h304v-392h-304z" />
    <glyph glyph-name="at" unicode="@" horiz-adv-x="2703" 
d="M1564 1409v163q0 164 -18 255t-51 123t-91 32q-31 0 -55.5 -9.5t-48 -36t-38.5 -71t-24.5 -119t-9.5 -174.5h-272q0 69 3 125.5t14.5 128.5t31 128t54.5 112.5t83 93.5t119.5 60.5t160.5 23.5q96 0 169 -31t129 -98.5t85 -184t29 -278.5v-963q0 -167 133 -167
q80 0 136 56t88 166.5t46 255.5t14 342q0 222 -20 403t-56.5 317.5t-92.5 240.5t-124 173t-155.5 112t-182.5 61.5t-209 18.5q-115 0 -210.5 -15.5t-193.5 -56.5t-174.5 -109t-145.5 -177.5t-115 -257t-75 -352.5t-33 -459q-5 -297 30.5 -519t113 -381t202.5 -257.5
t292 -144.5t390 -46q153 0 327 24t272 48l98 24v-234q-13 -4 -37.5 -10.5t-102.5 -22.5t-160 -28.5t-204 -23t-240 -10.5q-88 0 -164.5 5.5t-179 25t-188.5 52t-183 92.5t-173.5 140.5t-149 201t-121 269.5t-77.5 351t-29 440q0 291 37.5 531t102 411.5t159 303t198.5 212.5
t230.5 132.5t246.5 71t254 19.5q546 0 830.5 -381t284.5 -1155q0 -253 -28 -443t-77.5 -312t-126 -197.5t-164 -105.5t-199.5 -30q-61 0 -110.5 10t-96 34t-83.5 68t-62 107q-27 -45 -55 -79.5t-68 -68.5t-92.5 -52.5t-112.5 -18.5q-31 0 -62 4.5t-69.5 18t-72 35t-66 58.5
t-55.5 85t-37 118t-14 155q0 615 692 641zM1160 786q0 -138 43.5 -187t128.5 -49q59 0 124 61.5t108 153.5v436q-97 -5 -169 -27.5t-116.5 -57.5t-71.5 -88t-37 -110t-10 -132z" />
    <glyph glyph-name="A" unicode="A" horiz-adv-x="1534" 
d="M972 2802l448 -2802h-298l-104 716h-514l-102 -716h-288l446 2802h412zM699 2099l-157 -1099h438l-156 1099q-16 108 -29.5 219t-18.5 168l-6 56h-20q-16 -201 -51 -443z" />
    <glyph glyph-name="B" unicode="B" horiz-adv-x="1532" 
d="M1286 2036q0 -226 -37 -361.5t-127 -214.5q120 -79 180 -238.5t60 -445.5q0 -179 -21 -310t-61.5 -220.5t-107 -144t-151 -78t-199.5 -23.5h-572v2802h492q103 0 183 -21.5t149.5 -74.5t115 -139t71 -219.5t25.5 -311.5zM778 1296h-224v-1052h284q58 0 97.5 19.5
t65.5 56.5t40 104t19.5 148.5t5.5 203.5q0 130 -7.5 214.5t-25.5 147.5t-52 95.5t-82 47.5t-121 15zM554 2558v-1018h224q49 0 85 15t59 49t37 71.5t20.5 101.5t8.5 118.5t2 140.5q0 161 -12.5 258t-47.5 158.5t-90 83.5t-146 22h-140z" />
    <glyph glyph-name="C" unicode="C" horiz-adv-x="1420" 
d="M986 932h304q0 -218 -26 -386.5t-71.5 -278t-112 -179.5t-142.5 -99t-168 -29q-81 0 -147 18t-129 62.5t-111.5 117t-89.5 184t-67.5 260.5t-41 349.5t-14.5 448.5t14.5 448.5t41 349.5t67.5 260.5t89.5 184t111.5 117t129 62.5t147 18q92 0 166.5 -31t138.5 -104.5
t107 -189t67.5 -292.5t24.5 -407h-296q0 374 -51.5 553t-156.5 179q-71 0 -121.5 -51t-89.5 -176.5t-58 -354t-19 -566.5t19 -566.5t58 -354t89.5 -176.5t121.5 -51q216 0 216 680z" />
    <glyph glyph-name="D" unicode="D" horiz-adv-x="1544" 
d="M1374 1402q0 -505 -64 -812.5t-195 -448.5t-345 -141h-520v2802h524q81 0 148 -18t130 -62t111.5 -115.5t89 -180t66.5 -253.5t40.5 -338.5t14.5 -432.5zM554 2558v-2314h232q67 0 115 46t79 132t49.5 231.5t25.5 322.5t7 426q0 230 -6 396t-21.5 299.5t-40 218
t-62.5 140.5t-88 79t-118 23h-172z" />
    <glyph glyph-name="E" unicode="E" horiz-adv-x="1332" 
d="M250 0v2802h912v-284h-608v-980h548v-284h-548v-970h608v-284h-912z" />
    <glyph glyph-name="F" unicode="F" horiz-adv-x="1302" 
d="M250 0v2802h912v-284h-608v-990h548v-284h-548v-1244h-304z" />
    <glyph glyph-name="G" unicode="G" horiz-adv-x="1534" 
d="M828 1290h518v-1290h-188l-60 266q-26 -87 -67.5 -149t-91.5 -95t-100.5 -47.5t-106.5 -14.5q-63 0 -119 18t-113.5 63t-105 116t-90 184.5t-71.5 260t-46 350t-17 448.5q0 248 15.5 449t43 349.5t70 260t92.5 184t115 117t132.5 62.5t149.5 18q69 0 128.5 -15.5
t114.5 -50.5t99 -90t80.5 -136t61 -186t37.5 -242.5t13 -303.5h-296q0 374 -58.5 553t-179.5 179q-76 0 -129.5 -51t-95 -177t-61.5 -354t-20 -566q0 -336 22.5 -566t66.5 -354.5t99 -176t130 -51.5q62 0 107.5 35t81.5 117.5t54.5 233t18.5 368.5h-234v284z" />
    <glyph glyph-name="H" unicode="H" horiz-adv-x="1714" 
d="M1160 0v1262h-606v-1262h-304v2802h304v-1256h606v1256h304v-2802h-304z" />
    <glyph glyph-name="I" unicode="I" horiz-adv-x="804" 
d="M250 0v2802h304v-2802h-304z" />
    <glyph glyph-name="J" unicode="J" horiz-adv-x="904" 
d="M350 232v2570h304v-2562q0 -195 -48 -326.5t-160 -228.5t-308 -173l-104 254q56 30 86 47.5t69.5 44.5t59.5 49.5t43 56t33.5 71t17.5 87t7 110.5z" />
    <glyph glyph-name="K" unicode="K" horiz-adv-x="1427" 
d="M250 0v2802h304v-1246h144l375 1246h294l-433 -1378l494 -1424h-302l-441 1272h-131v-1272h-304z" />
    <glyph glyph-name="L" unicode="L" horiz-adv-x="1212" 
d="M250 0v2802h304v-2518h608v-284h-912z" />
    <glyph glyph-name="M" unicode="M" horiz-adv-x="2420" 
d="M250 2802h484l390 -1998l93 -522h20q30 222 84 520l379 2000h470v-2802h-268v2106q0 103 2.5 212t5.5 166l2 58h-20q-27 -188 -74 -447l-400 -2095h-393l-415 2097l-83 445h-20q11 -164 11 -448v-2094h-268v2802z" />
    <glyph glyph-name="N" unicode="N" horiz-adv-x="1802" 
d="M250 2802h438l479 -1989l116 -530h20q-9 280 -9 536v1983h258v-2802h-429l-514 2099q-25 107 -48 217.5t-33 167.5l-11 58h-20q11 -218 11 -442v-2100h-258v2802z" />
    <glyph glyph-name="O" unicode="O" horiz-adv-x="1540" 
d="M770 2840q60 0 110 -8t102.5 -29.5t94.5 -57.5t83 -93.5t72 -135.5t58 -186.5t44 -243t26.5 -307.5t9.5 -379t-9.5 -379t-26.5 -307.5t-44 -243t-58 -186.5t-72 -135.5t-83 -93.5t-94.5 -57.5t-102.5 -29.5t-110 -8t-110 8t-102.5 29.5t-94.5 57.5t-83 93.5t-72 135.5
t-58 186.5t-44 243t-26.5 307.5t-9.5 379t9.5 379t26.5 307.5t44 243t58 186.5t72 135.5t83 93.5t94.5 57.5t102.5 29.5t110 8zM770 2548q-61 0 -102 -23t-79 -93t-60 -195.5t-34.5 -333t-12.5 -503.5t12.5 -503.5t34.5 -333t60 -195.5t79 -93t102 -23q44 0 75 9t63.5 37
t54 78.5t41 135t31 206t18 291.5t6.5 391t-6.5 391t-18 291.5t-31 206t-41 135t-54 78.5t-63.5 37t-75 9z" />
    <glyph glyph-name="P" unicode="P" horiz-adv-x="1424" 
d="M1294 1962q0 -440 -125 -641t-399 -201h-216v-1120h-304v2802h524q98 0 175.5 -24.5t143.5 -84t109.5 -154.5t67.5 -240t24 -337zM554 2558v-1194h232q128 0 172 131.5t44 466.5q0 147 -8 245t-25.5 169t-50.5 109.5t-78.5 55.5t-113.5 17h-172z" />
    <glyph glyph-name="Q" unicode="Q" horiz-adv-x="1540" 
d="M770 2840q60 0 110 -8t102.5 -29.5t94.5 -57.5t83 -93.5t72 -135.5t58 -186.5t44 -243t26.5 -307.5t9.5 -379q0 -352 -27 -609t-79 -416t-118.5 -246.5t-155.5 -128.5q30 -77 92.5 -123.5t195.5 -110.5l-120 -234q-212 80 -323.5 181t-150.5 252q-67 8 -122 30.5
t-109.5 69.5t-96 119t-77.5 182t-59.5 255t-36.5 341.5t-13 437.5q0 206 9.5 379t26.5 307.5t44 243t58 186.5t72 135.5t83 93.5t94.5 57.5t102.5 29.5t110 8zM770 2548q-61 0 -102 -23t-79 -93t-60 -195.5t-34.5 -333t-12.5 -503.5t12.5 -503.5t34.5 -333t60 -195.5t79 -93
t102 -23q44 0 75 9t63 37t53.5 78.5t41.5 135t31 206t17.5 291.5t6.5 391t-6.5 391t-17.5 291.5t-31 206t-41.5 135t-53.5 78.5t-63 37t-75 9z" />
    <glyph glyph-name="R" unicode="R" horiz-adv-x="1492" 
d="M1046 0l-212 1264q-24 -4 -64 -4h-216v-1260h-304v2802h524q105 0 184.5 -20.5t148.5 -73t113 -138.5t69 -219.5t25 -314.5q0 -305 -50 -462.5t-166 -233.5l244 -1340h-296zM554 2558v-1054h232q139 0 187.5 118.5t48.5 413.5q0 159 -12.5 255.5t-47 158.5t-90 85
t-146.5 23h-172z" />
    <glyph glyph-name="S" unicode="S" horiz-adv-x="1328" 
d="M1169 2004h-286q0 292 -54 423t-167 131q-34 0 -62 -10.5t-55.5 -38t-43 -86.5t-15.5 -145q0 -97 37.5 -208t98 -218.5t133 -223t145 -238.5t133 -246t98 -264.5t37.5 -277.5q0 -328 -132.5 -485t-367.5 -157q-126 0 -220.5 43.5t-166 140t-108 262t-36.5 398.5h294
q0 -162 18 -275.5t51.5 -176t75 -89.5t96.5 -27q44 0 80.5 16t68.5 52t50.5 104t18.5 164q0 110 -38.5 233t-100 238.5t-135.5 236.5t-148.5 245t-136 245t-100 254.5t-38.5 257.5q0 112 21.5 202.5t59 149.5t83 101t100.5 64t103.5 31.5t98.5 9.5q85 0 153.5 -18.5
t137.5 -73.5t115 -145t75 -242.5t29 -356.5z" />
    <glyph glyph-name="T" unicode="T" horiz-adv-x="1348" 
d="M10 2802h1328v-284h-512v-2518h-304v2518h-512v284z" />
    <glyph glyph-name="U" unicode="U" horiz-adv-x="1608" 
d="M804 -40q-91 0 -170.5 21t-153 72.5t-126 131t-83.5 203.5t-31 282v2132h304v-2090q0 -115 14 -199.5t37 -134.5t58 -80t70.5 -40t80.5 -10t80.5 10t70.5 40t58 80t37 134.5t14 199.5v2090h304v-2132q0 -158 -31 -282t-83.5 -203.5t-126 -131t-153 -72.5t-170.5 -21z" />
    <glyph glyph-name="V" unicode="V" horiz-adv-x="1487" 
d="M824 813l268 1989h275l-411 -2802h-427l-409 2802h292l273 -1982q18 -132 32 -274t19 -218l5 -76h20q31 322 63 561z" />
    <glyph glyph-name="W" unicode="W" horiz-adv-x="2475" 
d="M1877 855l180 1947h240l-261 -2802h-421l-308 2128q-16 104 -30 207.5t-21 154.5l-6 52h-20q-16 -185 -50 -412l-291 -2130h-434l-334 2802h271l229 -1944l64 -576h20q23 298 65 577l265 1943h408l292 -1944q17 -107 37.5 -251t32.5 -235l12 -90h20q19 318 40 573z" />
    <glyph glyph-name="X" unicode="X" horiz-adv-x="1426" 
d="M1052 0l-228 769q-24 83 -45.5 161.5t-30.5 115.5l-10 37h-15q-40 -166 -80 -309l-219 -774h-304l453 1404l-437 1398h299l221 -765l81 -304h15q42 176 78 304l217 765h289l-431 -1373l462 -1429h-315z" />
    <glyph glyph-name="Y" unicode="Y" horiz-adv-x="1413" 
d="M563 0v1048l-468 1754h304l260 -1088l55 -260h15q22 136 51 267l241 1081h285l-439 -1760v-1042h-304z" />
    <glyph glyph-name="Z" unicode="Z" horiz-adv-x="1305" 
d="M130 244l726 2274h-666v284h971v-244l-714 -2274h728v-284h-1045v244z" />
    <glyph glyph-name="bracketleft" unicode="[" horiz-adv-x="996" 
d="M250 -318v3368h627v-264h-343v-2838h343v-264z" />
    <glyph glyph-name="backslash" unicode="\" horiz-adv-x="1047" 
d="M289 3050l708 -3367h-239l-708 3367h239z" />
    <glyph glyph-name="bracketright" unicode="]" horiz-adv-x="996" 
d="M746 3050v-3368l-627 2v264h343v2838h-343v264h627z" />
    <glyph glyph-name="asciicircum" unicode="^" horiz-adv-x="1408" 
d="M702 2733l-324 -1123h-268l409 1313h375l404 -1313h-272z" />
    <glyph glyph-name="underscore" unicode="_" horiz-adv-x="963" 
d="M963 -231v-284h-963v284h963z" />
    <glyph glyph-name="grave" unicode="`" horiz-adv-x="733" 
d="M454 2090l-346 838h321l226 -838h-201z" />
    <glyph glyph-name="a" unicode="a" horiz-adv-x="1437" 
d="M927 1325v163q0 207 -22.5 322.5t-62.5 156.5t-109 41q-37 0 -66.5 -11t-57.5 -43t-46.5 -84t-30 -138.5t-11.5 -203.5h-302q0 59 2 109t8.5 113.5t18 115t32 109t47.5 101.5t68 85.5t91 69t117.5 43.5t147.5 16q110 0 194 -36.5t149 -118t99 -224t34 -343.5v-1568h-220
l-61 212q-33 -51 -64 -89t-78 -78.5t-109 -62.5t-134 -22q-36 0 -70.5 5.5t-78 23t-81.5 45.5t-75 76.5t-63 111.5t-42 156t-16 206q0 715 792 741zM453 602q0 -180 54 -263t138 -83q74 0 152.5 61t129.5 151v613q-114 -5 -198 -31t-136.5 -66.5t-84 -101.5t-43.5 -127.5
t-12 -152.5z" />
    <glyph glyph-name="b" unicode="b" horiz-adv-x="1462" 
d="M514 2928v-841q60 87 145 145t191 58q49 0 92 -11.5t91 -44.5t87 -86t76 -143.5t61.5 -210.5t39.5 -292t15 -382t-15 -381.5t-39.5 -290.5t-61.5 -208.5t-76 -141.5t-87 -84t-91 -43t-92 -11q-199 0 -358 185l-58 -145h-224v2928h304zM1002 1120q0 197 -8 345.5
t-24 244.5t-35 158t-47 92.5t-54 41t-62 10.5q-61 0 -132.5 -63t-125.5 -143v-1411q54 -61 125.5 -109t132.5 -48q31 0 53.5 6.5t48 27.5t43 59t35 103.5t27.5 157.5t16.5 225.5t6.5 302.5z" />
    <glyph glyph-name="c" unicode="c" horiz-adv-x="1360" 
d="M926 732h304q0 -772 -500 -772q-111 0 -195 29t-159 106.5t-123 206t-75.5 334t-27.5 484.5t27.5 485.5t75.5 336.5t123 209t159.5 109t194.5 30q88 0 159.5 -25.5t133 -85.5t103 -153.5t65 -235t23.5 -324.5h-296q0 532 -188 532q-68 0 -116 -40t-84 -137.5t-53 -270.5
t-17 -430t17 -428.5t53 -267t83.5 -134t116.5 -38.5q95 0 145.5 112t50.5 368z" />
    <glyph glyph-name="d" unicode="d" horiz-adv-x="1462" 
d="M948 2193v735h304v-2928h-224l-59 217q-32 -51 -63.5 -90.5t-76.5 -80.5t-100.5 -63.5t-116.5 -22.5q-49 0 -92 11t-91 43t-87 84t-76 141.5t-61.5 208.5t-39.5 290.5t-15 381.5q0 211 15 382.5t40.5 291.5t64.5 210t81 144t96 86.5t104.5 44t110.5 11.5q143 0 286 -97z
M460 1120q0 -166 6.5 -296t16.5 -220t27.5 -154t35 -101t43 -58t48 -27t53.5 -6q59 0 133.5 61t124.5 149v1473q-52 36 -124.5 64.5t-133.5 28.5q-36 0 -62 -11t-54 -42.5t-47 -95t-35 -162t-24 -250.5t-8 -353z" />
    <glyph glyph-name="e" unicode="e" horiz-adv-x="1396" 
d="M1246 998h-790q3 -232 20.5 -381.5t53.5 -229t81.5 -109t114.5 -29.5q42 0 75.5 10t67 38.5t55.5 76.5t35.5 128.5t13.5 189.5h273q0 -174 -28 -305t-74.5 -211.5t-115.5 -130t-141 -67.5t-161 -18q-111 0 -195.5 31t-158.5 111t-121 212t-74 339t-27 487q0 207 14.5 372
t39.5 284.5t65 207.5t86 142.5t107.5 87t123.5 44.5t140 12q144 0 239.5 -61.5t160 -211.5t92.5 -396.5t28 -622.5zM726 2001q-45 0 -77.5 -10t-64 -38t-52.5 -79t-38 -130.5t-26 -195.5t-12 -272h500q0 391 -53.5 558t-176.5 167z" />
    <glyph glyph-name="f" unicode="f" horiz-adv-x="1136" 
d="M842 2674q-43 0 -75.5 -15.5t-60 -53.5t-42 -109.5t-14.5 -175.5v-66h388v-278h-388v-2016h-304v2016h-256v278h256v114q0 151 23.5 258.5t77 184.5t143.5 114t220 37q67 0 149 -13.5t135 -36.5l-54 -266q-9 2 -33.5 7.5t-38 8t-36 6t-44.5 5t-46 1.5z" />
    <glyph glyph-name="g" unicode="g" horiz-adv-x="1451" 
d="M722 2290q123 0 225 -47l207 303l220 -212l-271 -214q155 -191 155 -580q0 -130 -18.5 -238t-49 -183t-74.5 -133t-90.5 -92.5t-101.5 -56t-103 -29.5t-99 -8q-108 0 -200 35q-74 -62 -74 -133q0 -43 26 -74.5t70.5 -50.5t103.5 -37t126 -31.5t137 -35t137 -47t126 -68.5
t103.5 -98t70.5 -138t26 -185q0 -292 -178.5 -458.5t-516.5 -166.5q-92 0 -172.5 15.5t-154 52.5t-125.5 93.5t-83 144t-31 198.5q0 306 285 507q-94 40 -146 112t-52 194q0 85 48 165t128 136q-190 185 -190 610q0 132 18.5 242t49.5 186t75 134.5t90.5 93.5t101.5 56.5
t102.5 29.5t98.5 8zM722 2032q-37 0 -68 -11.5t-62.5 -44t-53.5 -85.5t-35.5 -142.5t-13.5 -208.5q0 -116 13.5 -203t35.5 -139t53.5 -84t62.5 -43t68 -11q39 0 68.5 8t63.5 37.5t56 79.5t36.5 140.5t14.5 214.5q0 129 -14.5 222.5t-36.5 144.5t-56 80.5t-63.5 37t-68.5 7.5
zM1085 -105q0 41 -6 76.5t-19 64t-28.5 52t-38.5 42.5t-45.5 34t-53.5 27.5t-57.5 21.5t-62.5 17.5t-64 14.5t-66 13q-17 3 -26 5q-106 -84 -160.5 -178.5t-54.5 -213.5q0 -160 82 -233t218 -73q83 0 150 17.5t120.5 55.5t82.5 103t29 154z" />
    <glyph glyph-name="h" unicode="h" horiz-adv-x="1520" 
d="M1006 0v1710q0 164 -48 234t-124 70q-87 0 -161.5 -51t-158.5 -153v-1810h-304v2928h304v-846q87 98 184.5 153t231.5 55q179 0 279.5 -132t100.5 -376v-1782h-304z" />
    <glyph glyph-name="i" unicode="i" horiz-adv-x="724" 
d="M210 0v2254h304v-2254h-304zM210 2534v392h304v-392h-304z" />
    <glyph glyph-name="j" unicode="j" horiz-adv-x="770" 
d="M256 46v2208h304v-2200q0 -289 -109 -452t-387 -276l-104 254q45 26 70.5 41.5t59.5 39t52 42t40.5 45.5t33.5 55t21.5 65t14.5 80.5t4 97.5zM256 2534v392h304v-392h-304z" />
    <glyph glyph-name="k" unicode="k" horiz-adv-x="1397" 
d="M210 0v2928h304v-1592h160l322 918h290l-396 -1090l452 -1164h-296l-398 1052h-134v-1052h-304z" />
    <glyph glyph-name="l" unicode="l" horiz-adv-x="764" 
d="M210 0v2928h304v-2928h-304z" />
    <glyph glyph-name="m" unicode="m" horiz-adv-x="2262" 
d="M1748 0v1710q0 304 -166 304q-152 0 -301 -154q3 -38 3 -78v-1782h-304v1710q0 304 -166 304q-82 0 -151.5 -51t-148.5 -153v-1810h-304v2254h244l40 -192q41 51 81 88t91 71t112.5 51.5t131.5 17.5q230 0 322 -214q91 100 198 157t248 57q178 0 276 -131.5t98 -376.5
v-1782h-304z" />
    <glyph glyph-name="n" unicode="n" horiz-adv-x="1520" 
d="M1006 0v1710q0 164 -48 234t-124 70q-87 0 -161.5 -51t-158.5 -153v-1810h-304v2254h244l40 -192q91 107 193.5 167.5t242.5 60.5q179 0 279.5 -132t100.5 -376v-1782h-304z" />
    <glyph glyph-name="o" unicode="o" horiz-adv-x="1460" 
d="M730 2290q76 0 136 -11t122 -43t108.5 -85.5t88 -142.5t68 -210.5t42 -292.5t15.5 -385q0 -210 -15.5 -378.5t-42 -289t-68 -209t-88 -142.5t-108.5 -86t-122 -43.5t-136 -11.5t-136 11.5t-122 43.5t-108.5 86t-88 142.5t-68 209t-42 289t-15.5 378.5q0 214 15.5 385
t42 292.5t68 210.5t88 142.5t108.5 85.5t122 43t136 11zM730 1998q-47 0 -80.5 -12t-66 -45t-54 -95t-38 -158t-24 -237t-7.5 -331q0 -185 7.5 -324t24 -234t38 -156.5t53.5 -95t66 -46t81 -12.5q41 0 70 6.5t59.5 27.5t50.5 59.5t38.5 102t29 155.5t16.5 221t6 296
q0 171 -6 302.5t-16.5 224.5t-29.5 157t-38.5 102t-50 58.5t-59 27t-70.5 6.5z" />
    <glyph glyph-name="p" unicode="p" horiz-adv-x="1462" 
d="M850 -40q-186 0 -336 160v-794h-304v2928h224l54 -206q27 45 60.5 84.5t78.5 77t103 59t120 21.5q49 0 92 -11.5t91 -44.5t87 -86t76 -143.5t61.5 -210.5t39.5 -292t15 -382t-15 -381.5t-39.5 -290.5t-61.5 -208.5t-76 -141.5t-87 -84t-91 -43t-92 -11zM1002 1120
q0 197 -8 345.5t-24 244.5t-35 158t-47 92.5t-54 41t-62 10.5q-61 0 -132.5 -63t-125.5 -143v-1411q54 -61 125.5 -109t132.5 -48q31 0 53.5 6.5t48 27.5t43 59t35 103.5t27.5 157.5t16.5 225.5t6.5 302.5z" />
    <glyph glyph-name="q" unicode="q" horiz-adv-x="1462" 
d="M612 -40q-49 0 -92 11t-91 43t-87 84t-76 141.5t-61.5 208.5t-39.5 290.5t-15 381.5q0 211 15 382.5t40.5 291.5t64.5 210t81 144t96 86.5t104.5 44t110.5 11.5q169 0 332 -116l34 80h224v-2928h-304v858q-151 -224 -336 -224zM460 1120q0 -166 6.5 -296t16.5 -220
t27.5 -154t35 -101t43 -58t48 -27t53.5 -6q59 0 133.5 61t124.5 149v1473q-52 36 -124.5 64.5t-133.5 28.5q-36 0 -62 -11t-54 -42.5t-47 -95t-35 -162t-24 -250.5t-8 -353z" />
    <glyph glyph-name="r" unicode="r" horiz-adv-x="1038" 
d="M988 2274v-356q-84 16 -132 16q-78 0 -142.5 -59t-104.5 -151t-63.5 -184.5t-31.5 -179.5v-1360h-304v2254h244l40 -410q15 74 33 133t48.5 120t68 101.5t93 66t123.5 25.5q61 0 128 -16z" />
    <glyph glyph-name="s" unicode="s" horiz-adv-x="1295" 
d="M1126 1554h-293q0 129 -13.5 220t-39.5 142.5t-58.5 74.5t-75.5 23q-65 0 -110.5 -49.5t-45.5 -150.5q0 -83 35 -175t90.5 -179.5t123 -180t135 -191t123 -198t90.5 -215t35 -228.5q0 -231 -135 -359t-356 -128q-246 0 -373.5 180.5t-127.5 573.5h295q0 -118 12.5 -206
t32 -140t49.5 -83.5t60 -42t68 -10.5q81 0 132 51t51 165q0 89 -34.5 184.5t-90.5 182.5t-123 178t-134 186.5t-123 192t-90.5 209t-34.5 224.5q0 126 37 222t101.5 152t143 83.5t169.5 27.5q94 0 168.5 -28.5t124.5 -82.5t85 -120t55 -153.5t29.5 -170t12.5 -181.5z" />
    <glyph glyph-name="t" unicode="t" horiz-adv-x="1130" 
d="M796 248q112 0 190 36l64 -258q-124 -66 -306 -66q-115 0 -195 39t-126 116.5t-66.5 179.5t-20.5 241v1440h-246v278h246v508h300v-508h362v-278h-362v-1398q0 -130 22 -205.5t55 -100t83 -24.5z" />
    <glyph glyph-name="u" unicode="u" horiz-adv-x="1490" 
d="M514 2250v-1710q0 -304 170 -304q75 0 154.5 67t137.5 177v1770h304v-2250h-224l-54 228q-55 -82 -109.5 -137.5t-134 -93t-172.5 -37.5q-178 0 -277 132t-99 376v1782h304z" />
    <glyph glyph-name="v" unicode="v" horiz-adv-x="1408" 
d="M763 643l247 1611h288l-389 -2254h-435l-364 2254h292l246 -1606q13 -83 26 -183.5t19 -158.5l6 -59h15q19 212 49 396z" />
    <glyph glyph-name="w" unicode="w" horiz-adv-x="2290" 
d="M1740 608l170 1646h270l-267 -2254h-420l-281 1702q-13 77 -23.5 154.5t-14.5 116.5l-4 39h-15q-13 -137 -38 -310l-243 -1702h-458l-306 2254h301l199 -1676q8 -65 16 -150t12 -138l4 -53h15q23 196 45 338l255 1679h402l279 -1649q13 -75 26.5 -167t20.5 -146l7 -55h15
q13 185 33 371z" />
    <glyph glyph-name="x" unicode="x" horiz-adv-x="1408" 
d="M958 0l-187 626q-24 80 -43 150.5t-26 101.5l-7 30h-15q-23 -104 -68 -264l-182 -644h-294l377 1129l-383 1125h306l168 -547l86 -302h15q37 161 75 296l156 553h276l-341 -1074l407 -1180h-320z" />
    <glyph glyph-name="y" unicode="y" horiz-adv-x="1396" 
d="M776 803l232 1451h278l-541 -2928h-297l94 592l-432 2336h298l222 -1438q16 -96 34 -238t28 -236l11 -95h15q19 323 58 556z" />
    <glyph glyph-name="z" unicode="z" horiz-adv-x="1224" 
d="M110 244l690 1726h-630v284h934v-244l-678 -1726h698v-284h-1014v244z" />
    <glyph glyph-name="braceleft" unicode="{" horiz-adv-x="996" 
d="M250 96v940q0 40 -11.5 72.5t-30 52.5t-41 35.5t-45 23t-41 11.5t-29.5 5l-12 1v230q9 2 23 5.5t50 20t64 38t50.5 62t22.5 89.5v1004q0 364 413 364h214v-264h-215q-61 0 -99.5 -45.5t-38.5 -140.5v-1000q0 -45 -21.5 -83.5t-49.5 -61t-61.5 -40t-51.5 -23t-26 -7.5
q12 -2 26.5 -6.5t51 -23.5t62.5 -45t48 -77t22 -114v-952q0 -114 35 -166.5t89 -52.5h229v-264h-206q-75 0 -134.5 10.5t-114.5 38.5t-91.5 73t-58.5 118.5t-22 171.5z" />
    <glyph glyph-name="bar" unicode="|" horiz-adv-x="747" 
d="M250 -890v4050h247v-4050h-247z" />
    <glyph glyph-name="braceright" unicode="}" horiz-adv-x="996" 
d="M746 1036v-940q0 -98 -22 -171.5t-58.5 -118.5t-91.5 -73t-114.5 -38.5t-134.5 -10.5h-206v264h229q54 0 89 52.5t35 166.5v952q0 63 22 114t48 77t62.5 45t51 23.5t26.5 6.5q-8 2 -26 7.5t-51.5 23t-61.5 40t-49.5 61t-21.5 83.5v1000q0 95 -38.5 140.5t-99.5 45.5h-215
v264h214q413 0 413 -364v-1004q0 -49 21.5 -89t52.5 -62.5t62 -38t52 -20.5l22 -5v-230q-4 0 -12 -0.5t-29.5 -5.5t-41.5 -12t-44 -22.5t-41.5 -35.5t-29.5 -52.5t-12 -72.5z" />
    <glyph glyph-name="asciitilde" unicode="~" horiz-adv-x="1648" 
d="M501 1337q-35 0 -85 -20.5t-84 -42.5t-34 -28q-89 97 -103 130q73 88 176 149t214 61q43 0 91.5 -15t76 -29t75.5 -41q49 -31 68 -42.5t60 -25.5t83 -14q119 0 216 101l120 -104q-33 -56 -86 -108.5t-134.5 -93.5t-164.5 -41q-46 0 -98 16t-82 31.5t-80 43.5
q-44 25 -72 38t-70.5 24t-86.5 11z" />
    <glyph glyph-name="endash" unicode="&#x2013;" horiz-adv-x="1556" 
d="M1336 1396v-254h-1116v254h1116z" />
    <glyph glyph-name="emdash" unicode="&#x2014;" horiz-adv-x="2023" 
d="M1793 1396v-224h-1583v224h1583z" />
    <glyph glyph-name="quoteleft" unicode="&#x2018;" horiz-adv-x="449" 
d="M429 2840l-122 -838h-321l242 838h201z" />
    <glyph glyph-name="quoteright" unicode="&#x2019;" horiz-adv-x="437" 
d="M-20 2002l122 838h321l-242 -838h-201z" />
    <glyph glyph-name="quotesinglbase" unicode="&#x201a;" horiz-adv-x="623" 
d="M-20 -446l122 838h321l-242 -838h-201z" />
    <glyph glyph-name="quotedblleft" unicode="&#x201c;" horiz-adv-x="985" 
d="M429 2840l-122 -838h-321l242 838h201zM965 2840l-122 -838h-321l242 838h201z" />
    <glyph glyph-name="quotedblright" unicode="&#x201d;" horiz-adv-x="973" 
d="M-20 2002l122 838h321l-242 -838h-201zM516 2002l122 838h321l-242 -838h-201z" />
    <glyph glyph-name="quotedblbase" unicode="&#x201e;" horiz-adv-x="973" 
d="M-20 -446l122 838h321l-242 -838h-201zM516 -446l122 838h321l-242 -838h-201z" />
    <glyph glyph-name="bullet" unicode="&#x2022;" horiz-adv-x="654" 
d="M110 1059v502h434v-502h-434z" />
    <glyph glyph-name="ellipsis" unicode="&#x2026;" horiz-adv-x="1532" 
d="M110 0v392h304v-392h-304zM614 0v392h304v-392h-304zM1118 0v392h304v-392h-304z" />
    <glyph glyph-name="plus.liga" 
 />
    <glyph glyph-name="zero.zero" 
 />
    <glyph glyph-name="one.zero" horiz-adv-x="3252" 
d="M1624 1376v1428q45 0 90 -3z" />
    <glyph glyph-name="two.zero" horiz-adv-x="3252" 
d="M1624 1376v1428q88 0 181 -11z" />
    <glyph glyph-name="three.zero" horiz-adv-x="3252" 
d="M1624 1376v1428q133 0 267 -25z" />
    <glyph glyph-name="four.zero" horiz-adv-x="3252" 
d="M1624 1376v1428q179 0 356 -45z" />
    <glyph glyph-name="five.zero" horiz-adv-x="3252" 
d="M1624 1376v1428q229 0 442 -70z" />
    <glyph glyph-name="six.zero" horiz-adv-x="3252" 
d="M1624 1376v1428q271 0 526 -100z" />
    <glyph glyph-name="seven.zero" horiz-adv-x="3252" 
d="M2232 2668l-608 -1292v1428q324 0 608 -136z" />
    <glyph glyph-name="eight.zero" horiz-adv-x="3252" 
d="M1624 1376v1428q367 0 688 -176z" />
    <glyph glyph-name="nine.zero" horiz-adv-x="3252" 
d="M1624 1376v1428q415 0 765 -222z" />
    <glyph glyph-name="one.one" 
d="M-1628 1376l90 1425q60 -4 89 -8z" />
    <glyph glyph-name="two.one" 
d="M-1628 1376l90 1425q96 -6 180 -22z" />
    <glyph glyph-name="three.one" 
d="M-1628 1376l90 1425q130 -7 265 -42z" />
    <glyph glyph-name="four.one" 
d="M-1628 1376l90 1425q175 -10 352 -67z" />
    <glyph glyph-name="five.one" 
d="M-1628 1376l90 1425q225 -13 436 -97z" />
    <glyph glyph-name="six.one" 
d="M-1628 1376l90 1425q272 -16 518 -133z" />
    <glyph glyph-name="seven.one" 
d="M-940 2628l-688 -1252l90 1425q317 -19 598 -173z" />
    <glyph glyph-name="eight.one" 
d="M-1628 1376l90 1425q365 -22 675 -219z" />
    <glyph glyph-name="nine.one" 
d="M-1628 1376l90 1425q414 -25 749 -270z" />
    <glyph glyph-name="ten.one" 
d="M-1628 1376l90 1425q230 -14 439 -98t381 -226z" />
    <glyph glyph-name="eleven.one" 
d="M-1628 1376l90 1425q253 -15 480.5 -115.5t406.5 -268.5z" />
    <glyph glyph-name="twelve.one" 
d="M-1628 1376l90 1425q277 -17 521.5 -134.5t428.5 -312.5z" />
    <glyph glyph-name="thirteen.one" 
d="M-1628 1376l90 1425q301 -18 562.5 -154.5t447.5 -360.5z" />
    <glyph glyph-name="fourteen.one" 
d="M-1628 1376l90 1425q325 -20 602.5 -176t462.5 -410z" />
    <glyph glyph-name="fifteen.one" 
d="M-1628 1376l90 1425q349 -22 641.5 -198.5t473.5 -460.5z" />
    <glyph glyph-name="sixteen.one" 
d="M-1628 1376l90 1425q373 -24 680.5 -223t481.5 -515z" />
    <glyph glyph-name="seventeen.one" 
d="M-1628 1376l90 1425q397 -25 717.5 -247.5t484.5 -569.5z" />
    <glyph glyph-name="eighteen.one" 
d="M-1628 1376l90 1425q421 -27 754 -273.5t484 -625.5z" />
    <glyph glyph-name="nineteen.one" 
d="M-1628 1376l90 1425q222 -14 426.5 -94t367.5 -209.5t285.5 -303.5t188.5 -376z" />
    <glyph glyph-name="twenty.one" 
d="M-1628 1376l90 1425q233 -14 447 -101.5t381 -228.5t288 -331t177 -407z" />
    <glyph glyph-name="twentyone.one" 
d="M-1628 1376l90 1425q245 -15 468 -111t393.5 -249.5t289 -359.5t162.5 -438z" />
    <glyph glyph-name="twentytwo.one" 
d="M-1628 1376l90 1425q256 -16 488 -119.5t405.5 -269t288 -388t145.5 -469.5z" />
    <glyph glyph-name="twentythree.one" 
d="M-1628 1376l90 1425q267 -17 508 -129t416.5 -290t285 -416t125.5 -500z" />
    <glyph glyph-name="twentyfour.one" 
d="M-1628 1376l90 1425q186 -12 361.5 -70.5t322 -153.5t269 -226t207.5 -283.5t131.5 -330t46.5 -361.5h-1428z" />
    <glyph glyph-name="twentyfive.one" 
d="M-1628 1376l90 1425q194 -12 375 -75t331.5 -164.5t274 -241.5t205.5 -302t121.5 -350t27.5 -382z" />
    <glyph glyph-name="twentysix.one" 
d="M-1628 1376l90 1425q194 -12 375 -75t331.5 -164.5t274 -241.5t205.5 -302t121.5 -350t27.5 -382q-2 -36 -8 -90z" />
    <glyph glyph-name="twentyseven.one" 
d="M-1628 1376l90 1425q194 -12 375 -75t331.5 -164.5t274 -241.5t205.5 -302t121.5 -350t27.5 -382q-6 -96 -22 -178z" />
    <glyph glyph-name="twentyeight.one" 
d="M-1628 1376l90 1425q194 -12 375 -75t331.5 -164.5t274 -241.5t205.5 -302t121.5 -350t27.5 -382q-7 -129 -42 -266z" />
    <glyph glyph-name="twentynine.one" 
d="M-1628 1376l90 1425q194 -12 375 -75t331.5 -164.5t274 -241.5t205.5 -302t121.5 -350t27.5 -382q-10 -175 -67 -352z" />
    <glyph glyph-name="thirty.one" 
d="M-300 850l-1328 526l90 1425q194 -12 375 -75t331.5 -164.5t274 -241.5t205.5 -302t121.5 -350t27.5 -382q-13 -225 -97 -436z" />
    <glyph glyph-name="thirtyone.one" 
d="M-1628 1376l90 1425q194 -12 375 -75t331.5 -164.5t274 -241.5t205.5 -302t121.5 -350t27.5 -382q-16 -271 -133 -519z" />
    <glyph glyph-name="thirtytwo.one" 
d="M-1628 1376l90 1425q194 -12 375 -75t331.5 -164.5t274 -241.5t205.5 -302t121.5 -350t27.5 -382q-19 -318 -174 -598z" />
    <glyph glyph-name="thirtythree.one" 
d="M-1628 1376l90 1425q194 -12 375 -75t331.5 -164.5t274 -241.5t205.5 -302t121.5 -350t27.5 -382q-22 -362 -219 -674z" />
    <glyph glyph-name="thirtyfour.one" 
d="M-1628 1376l90 1425q194 -12 375 -75t331.5 -164.5t274 -241.5t205.5 -302t121.5 -350t27.5 -382q-25 -414 -271 -749z" />
    <glyph glyph-name="thirtyfive.one" 
d="M-1628 1376l90 1425q194 -12 375 -75t331.5 -164.5t274 -241.5t205.5 -302t121.5 -350t27.5 -382q-14 -231 -98.5 -439.5t-226.5 -379.5z" />
    <glyph glyph-name="thirtysix.one" 
d="M-1628 1376l90 1425q194 -12 375 -75t331.5 -164.5t274 -241.5t205.5 -302t121.5 -350t27.5 -382q-15 -254 -115.5 -481t-269.5 -405z" />
    <glyph glyph-name="thirtyseven.one" 
d="M-651 337l-977 1039l90 1425q194 -12 375 -75t331.5 -164.5t274 -241.5t205.5 -302t121.5 -350t27.5 -382q-17 -277 -134.5 -521.5t-313.5 -427.5z" />
    <glyph glyph-name="thirtyeight.one" 
d="M-1628 1376l90 1425q194 -12 375 -75t331.5 -164.5t274 -241.5t205.5 -302t121.5 -350t27.5 -382q-18 -301 -154.5 -562.5t-360.5 -445.5z" />
    <glyph glyph-name="thirtynine.one" 
d="M-1628 1376l90 1425q194 -12 375 -75t331.5 -164.5t274 -241.5t205.5 -302t121.5 -350t27.5 -382q-21 -325 -177 -602t-410 -461z" />
    <glyph glyph-name="fourty.one" 
d="M-864 172l-764 1204l90 1425q194 -12 375 -75t331.5 -164.5t274 -241.5t205.5 -302t121.5 -350t27.5 -382q-22 -349 -199 -641.5t-462 -472.5z" />
    <glyph glyph-name="fourtyone.one" 
d="M-941 127l-687 1249l90 1425q194 -12 375 -75t331.5 -164.5t274 -241.5t205.5 -302t121.5 -350t27.5 -382q-24 -373 -223 -679.5t-515 -479.5z" />
    <glyph glyph-name="fourtytwo.one" 
d="M-1021 86l-607 1290l90 1425q194 -12 375 -75t331.5 -164.5t274 -241.5t205.5 -302t121.5 -350t27.5 -382q-25 -397 -247.5 -717t-570.5 -483z" />
    <glyph glyph-name="fourtythree.one" 
d="M-1104 51l-524 1325l90 1425q194 -12 375 -75t331.5 -164.5t274 -241.5t205.5 -302t121.5 -350t27.5 -382q-27 -421 -274 -753.5t-627 -481.5z" />
    <glyph glyph-name="fourtyfour.one" 
d="M-1188 21l-440 1355l90 1425q194 -12 375 -75t331.5 -164.5t274 -241.5t205.5 -302t121.5 -350t27.5 -382q-14 -222 -94 -426t-209.5 -366.5t-304.5 -285t-377 -187.5z" />
    <glyph glyph-name="fourtyfive.one" 
d="M-1273 -4l-355 1380l90 1425q194 -12 375 -75t331.5 -164.5t274 -241.5t205.5 -302t121.5 -350t27.5 -382q-15 -233 -102.5 -446.5t-229 -380t-331.5 -287t-407 -176.5z" />
    <glyph glyph-name="fourtysix.one" 
d="M-1361 -24l-267 1400l90 1425q194 -12 375 -75t331.5 -164.5t274 -241.5t205.5 -302t121.5 -350t27.5 -382q-15 -245 -111 -467.5t-249.5 -392.5t-359.5 -288t-438 -162z" />
    <glyph glyph-name="fourtyseven.one" 
d="M-1449 -37l-179 1413l90 1425q194 -12 375 -75t331.5 -164.5t274 -241.5t205.5 -302t121.5 -350t27.5 -382q-16 -256 -119.5 -487.5t-269 -404t-387.5 -286.5t-470 -145z" />
    <glyph glyph-name="fourtyeight.one" 
d="M-1539 -45l-89 1421l90 1425q194 -12 375 -75t331.5 -164.5t274 -241.5t205.5 -302t121.5 -350t27.5 -382q-13 -214 -87.5 -412.5t-198.5 -358t-285.5 -282t-358 -194t-406.5 -84.5z" />
    <glyph glyph-name="fourtynine.one" 
d="M-1628 -48v1424l90 1425q194 -12 375 -75t331.5 -164.5t274 -241.5t205.5 -302t121.5 -350t27.5 -382q-12 -186 -70.5 -361t-153.5 -321.5t-226 -268t-283.5 -206t-329.5 -131t-362 -46.5z" />
    <glyph glyph-name="fifty.one" 
d="M-1718 -45l180 2846q194 -12 375 -75t331.5 -164.5t274 -241.5t205.5 -302t121.5 -350t27.5 -382t-75 -375t-164.5 -331t-241.5 -273t-302 -204.5t-350 -120.5t-382 -27z" />
    <glyph glyph-name="fiftyone.one" 
d="M-1718 -45q-45 3 -89 9l179 1412l90 1425q194 -12 375 -75t331.5 -164.5t274 -241.5t205.5 -302t121.5 -350t27.5 -382t-75 -375t-164.5 -331t-241.5 -273t-302 -204.5t-350 -120.5t-382 -27z" />
    <glyph glyph-name="fiftytwo.one" 
d="M-1718 -45q-94 6 -177 22l267 1399l90 1425q194 -12 375 -75t331.5 -164.5t274 -241.5t205.5 -302t121.5 -350t27.5 -382t-75 -375t-164.5 -331t-241.5 -273t-302 -204.5t-350 -120.5t-382 -27z" />
    <glyph glyph-name="fiftythree.one" 
d="M-1718 -45q-129 7 -264 42l354 1379l90 1425q194 -12 375 -75t331.5 -164.5t274 -241.5t205.5 -302t121.5 -350t27.5 -382t-75 -375t-164.5 -331t-241.5 -273t-302 -204.5t-350 -120.5t-382 -27z" />
    <glyph glyph-name="fiftyfour.one" 
d="M-1718 -45q-172 10 -350 66l440 1355l90 1425q194 -12 375 -75t331.5 -164.5t274 -241.5t205.5 -302t121.5 -350t27.5 -382t-75 -375t-164.5 -331t-241.5 -273t-302 -204.5t-350 -120.5t-382 -27z" />
    <glyph glyph-name="fiftyfive.one" 
d="M-1718 -45q-226 13 -435 97l525 1324l90 1425q194 -12 375 -75t331.5 -164.5t274 -241.5t205.5 -302t121.5 -350t27.5 -382t-75 -375t-164.5 -331t-241.5 -273t-302 -204.5t-350 -120.5t-382 -27z" />
    <glyph glyph-name="fiftysix.one" 
d="M-1718 -45q-269 16 -517 132l607 1289l90 1425q194 -12 375 -75t331.5 -164.5t274 -241.5t205.5 -302t121.5 -350t27.5 -382t-75 -375t-164.5 -331t-241.5 -273t-302 -204.5t-350 -120.5t-382 -27z" />
    <glyph glyph-name="fiftyseven.one" 
d="M-1718 -45q-318 19 -596 172l686 1249l90 1425q194 -12 375 -75t331.5 -164.5t274 -241.5t205.5 -302t121.5 -350t27.5 -382t-75 -375t-164.5 -331t-241.5 -273t-302 -204.5t-350 -120.5t-382 -27z" />
    <glyph glyph-name="fiftyeight.one" 
d="M-1718 -45q-365 22 -674 218l764 1203l90 1425q194 -12 375 -75t331.5 -164.5t274 -241.5t205.5 -302t121.5 -350t27.5 -382t-75 -375t-164.5 -331t-241.5 -273t-302 -204.5t-350 -120.5t-382 -27z" />
    <glyph glyph-name="fiftynine.one" 
d="M-1718 -45q-412 25 -748 269l838 1152l90 1425q194 -12 375 -75t331.5 -164.5t274 -241.5t205.5 -302t121.5 -350t27.5 -382t-75 -375t-164.5 -331t-241.5 -273t-302 -204.5t-350 -120.5t-382 -27z" />
    <glyph glyph-name="sixty.one" 
d="M-1718 -45q-230 14 -439 98t-380 225l909 1098l90 1425q194 -12 375 -75t331.5 -164.5t274 -241.5t205.5 -302t121.5 -350t27.5 -382t-75 -375t-164.5 -331t-241.5 -273t-302 -204.5t-350 -120.5t-382 -27z" />
    <glyph glyph-name="sixtyone.one" 
d="M-1718 -45q-254 15 -480.5 115t-405.5 268l976 1038l90 1425q194 -12 375 -75t331.5 -164.5t274 -241.5t205.5 -302t121.5 -350t27.5 -382t-75 -375t-164.5 -331t-241.5 -273t-302 -204.5t-350 -120.5t-382 -27z" />
    <glyph glyph-name="sixtytwo.one" 
d="M-1718 -45q-278 17 -522 134t-427 312l1039 975l90 1425q194 -12 375 -75t331.5 -164.5t274 -241.5t205.5 -302t121.5 -350t27.5 -382t-75 -375t-164.5 -331t-241.5 -273t-302 -204.5t-350 -120.5t-382 -27z" />
    <glyph glyph-name="sixtythree.one" 
d="M-1718 -45q-301 18 -562 153.5t-446 359.5l1098 908l90 1425q194 -12 375 -75t331.5 -164.5t274 -241.5t205.5 -302t121.5 -350t27.5 -382t-75 -375t-164.5 -331t-241.5 -273t-302 -204.5t-350 -120.5t-382 -27z" />
    <glyph glyph-name="sixtyfour.one" 
d="M-1718 -45q-325 21 -602 176t-461 408l1153 837l90 1425q194 -12 375 -75t331.5 -164.5t274 -241.5t205.5 -302t121.5 -350t27.5 -382t-75 -375t-164.5 -331t-241.5 -273t-302 -204.5t-350 -120.5t-382 -27z" />
    <glyph glyph-name="sixtyfive.one" 
d="M-1718 -45q-349 22 -641.5 198t-472.5 460l1204 763l90 1425q194 -12 375 -75t331.5 -164.5t274 -241.5t205.5 -302t121.5 -350t27.5 -382t-75 -375t-164.5 -331t-241.5 -273t-302 -204.5t-350 -120.5t-382 -27z" />
    <glyph glyph-name="sixtysix.one" 
d="M-1718 -45q-373 24 -679.5 222t-478.5 513l1248 686l90 1425q194 -12 375 -75t331.5 -164.5t274 -241.5t205.5 -302t121.5 -350t27.5 -382t-75 -375t-164.5 -331t-241.5 -273t-302 -204.5t-350 -120.5t-382 -27z" />
    <glyph glyph-name="sixtyseven.one" 
d="M-1718 -45q-397 25 -717 246.5t-483 568.5l1290 606l90 1425q194 -12 375 -75t331.5 -164.5t274 -241.5t205.5 -302t121.5 -350t27.5 -382t-75 -375t-164.5 -331t-241.5 -273t-302 -204.5t-350 -120.5t-382 -27z" />
    <glyph glyph-name="sixtyeight.one" 
d="M-1718 -45q-421 27 -753 272t-482 624l1325 525l90 1425q194 -12 375 -75t331.5 -164.5t274 -241.5t205.5 -302t121.5 -350t27.5 -382t-75 -375t-164.5 -331t-241.5 -273t-302 -204.5t-350 -120.5t-382 -27z" />
    <glyph glyph-name="sixtynine.one" 
d="M-1718 -45q-222 14 -426 93.5t-366.5 208.5t-285 303t-187.5 375l1355 441l90 1425q194 -12 375 -75t331.5 -164.5t274 -241.5t205.5 -302t121.5 -350t27.5 -382t-75 -375t-164.5 -331t-241.5 -273t-302 -204.5t-350 -120.5t-382 -27z" />
    <glyph glyph-name="seventy.one" 
d="M-1718 -45q-233 15 -446.5 102t-380.5 228t-287.5 330.5t-175.5 406.5l1380 354l90 1425q194 -12 375 -75t331.5 -164.5t274 -241.5t205.5 -302t121.5 -350t27.5 -382t-75 -375t-164.5 -331t-241.5 -273t-302 -204.5t-350 -120.5t-382 -27z" />
    <glyph glyph-name="seventyone.one" 
d="M-1718 -45q-245 15 -467.5 110t-392.5 248t-287.5 358t-161.5 437l1399 268l90 1425q194 -12 375 -75t331.5 -164.5t274 -241.5t205.5 -302t121.5 -350t27.5 -382t-75 -375t-164.5 -331t-241.5 -273t-302 -204.5t-350 -120.5t-382 -27z" />
    <glyph glyph-name="seventytwo.one" 
d="M-1718 -45q-256 16 -487.5 119t-404 268t-286.5 386t-145 468l1413 180l90 1425q194 -12 375 -75t331.5 -164.5t274 -241.5t205.5 -302t121.5 -350t27.5 -382t-75 -375t-164.5 -331t-241.5 -273t-302 -204.5t-350 -120.5t-382 -27z" />
    <glyph glyph-name="seventythree.one" 
d="M-1718 -45q-268 17 -507.5 128.5t-414.5 288.5t-284 415t-125 500l1421 89l90 1425q194 -12 375 -75t331.5 -164.5t274 -241.5t205.5 -302t121.5 -350t27.5 -382t-75 -375t-164.5 -331t-241.5 -273t-302 -204.5t-350 -120.5t-382 -27z" />
    <glyph glyph-name="seventyfour.one" 
d="M-1718 -45q-223 14 -428.5 93.5t-368.5 212t-284.5 304.5t-187 380t-65.5 429l1424 2l90 1425q194 -12 375 -75t331.5 -164.5t274 -241.5t205.5 -302t121.5 -350t27.5 -382t-75 -375t-164.5 -331t-241.5 -273t-302 -204.5t-350 -120.5t-382 -27z" />
    <glyph glyph-name="seventyfive.one" 
d="M-3049 1466l1421 -90l90 1425q194 -12 375 -75t331.5 -164.5t274 -241.5t205.5 -302t121.5 -350t27.5 -382t-75 -375t-164.5 -331t-241.5 -273t-302 -204.5t-350 -120.5t-382 -27t-375 74.5t-331 164t-272.5 240.5t-204.5 301t-121 349.5t-27 381.5z" />
    <glyph glyph-name="seventysix.one" 
d="M-3041 1554l1413 -178l90 1425q194 -12 375 -75t331.5 -164.5t274 -241.5t205.5 -302t121.5 -350t27.5 -382t-75 -375t-164.5 -331t-241.5 -273t-302 -204.5t-350 -120.5t-382 -27t-375 74.5t-331 164t-272.5 240.5t-204.5 301t-121 349.5t-27 381.5q2 32 8 88z" />
    <glyph glyph-name="seventyseven.one" 
d="M-3027 1642l1399 -266l90 1425q194 -12 375 -75t331.5 -164.5t274 -241.5t205.5 -302t121.5 -350t27.5 -382t-75 -375t-164.5 -331t-241.5 -273t-302 -204.5t-350 -120.5t-382 -27t-375 74.5t-331 164t-272.5 240.5t-204.5 301t-121 349.5t-27 381.5q6 93 22 176z" />
    <glyph glyph-name="seventyeight.one" 
d="M-1628 1376l90 1425q194 -12 375 -75t331.5 -164.5t274 -241.5t205.5 -302t121.5 -350t27.5 -382t-75 -375t-164.5 -331t-241.5 -273t-302 -204.5t-350 -120.5t-382 -27t-375 74.5t-331 164t-272.5 240.5t-204.5 301t-121 349.5t-27 381.5q7 130 42 264z" />
    <glyph glyph-name="seventynine.one" 
d="M-1628 1376l90 1425q194 -12 375 -75t331.5 -164.5t274 -241.5t205.5 -302t121.5 -350t27.5 -382t-75 -375t-164.5 -331t-241.5 -273t-302 -204.5t-350 -120.5t-382 -27t-375 74.5t-331 164t-272.5 240.5t-204.5 301t-121 349.5t-27 381.5q10 178 66 350z" />
    <glyph glyph-name="eighty.one" 
d="M-1628 1376l90 1425q194 -12 375 -75t331.5 -164.5t274 -241.5t205.5 -302t121.5 -350t27.5 -382t-75 -375t-164.5 -331t-241.5 -273t-302 -204.5t-350 -120.5t-382 -27t-375 74.5t-331 164t-272.5 240.5t-204.5 301t-121 349.5t-27 381.5q13 225 97 436z" />
    <glyph glyph-name="eightyone.one" 
d="M-1628 1376l90 1425q194 -12 375 -75t331.5 -164.5t274 -241.5t205.5 -302t121.5 -350t27.5 -382t-75 -375t-164.5 -331t-241.5 -273t-302 -204.5t-350 -120.5t-382 -27t-375 74.5t-331 164t-272.5 240.5t-204.5 301t-121 349.5t-27 381.5q16 268 132 516z" />
    <glyph glyph-name="eightytwo.one" 
d="M-2877 2063l1249 -687l90 1425q194 -12 375 -75t331.5 -164.5t274 -241.5t205.5 -302t121.5 -350t27.5 -382t-75 -375t-164.5 -331t-241.5 -273t-302 -204.5t-350 -120.5t-382 -27t-375 74.5t-331 164t-272.5 240.5t-204.5 301t-121 349.5t-27 381.5q19 318 172 597z" />
    <glyph glyph-name="eightythree.one" 
d="M-2831 2140l1203 -764l90 1425q194 -12 375 -75t331.5 -164.5t274 -241.5t205.5 -302t121.5 -350t27.5 -382t-75 -375t-164.5 -331t-241.5 -273t-302 -204.5t-350 -120.5t-382 -27t-375 74.5t-331 164t-272.5 240.5t-204.5 301t-121 349.5t-27 381.5q22 365 218 674z" />
    <glyph glyph-name="eightyfour.one" 
d="M-1628 1376l90 1425q194 -12 375 -75t331.5 -164.5t274 -241.5t205.5 -302t121.5 -350t27.5 -382t-75 -375t-164.5 -331t-241.5 -273t-302 -204.5t-350 -120.5t-382 -27t-375 74.5t-331 164t-272.5 240.5t-204.5 301t-121 349.5t-27 381.5q25 411 267 747z" />
    <glyph glyph-name="eightyfive.one" 
d="M-2726 2285l1098 -909l90 1425q194 -12 375 -75t331.5 -164.5t274 -241.5t205.5 -302t121.5 -350t27.5 -382t-75 -375t-164.5 -331t-241.5 -273t-302 -204.5t-350 -120.5t-382 -27t-375 74.5t-331 164t-272.5 240.5t-204.5 301t-121 349.5t-27 381.5q14 230 97.5 438.5
t225.5 380.5z" />
    <glyph glyph-name="eightysix.one" 
d="M-1628 1376l90 1425q194 -12 375 -75t331.5 -164.5t274 -241.5t205.5 -302t121.5 -350t27.5 -382t-75 -375t-164.5 -331t-241.5 -273t-302 -204.5t-350 -120.5t-382 -27t-375 74.5t-331 164t-272.5 240.5t-204.5 301t-121 349.5t-27 381.5q15 253 115 480t267 406z" />
    <glyph glyph-name="eightyseven.one" 
d="M-1628 1376l90 1425q194 -12 375 -75t331.5 -164.5t274 -241.5t205.5 -302t121.5 -350t27.5 -382t-75 -375t-164.5 -331t-241.5 -273t-302 -204.5t-350 -120.5t-382 -27t-375 74.5t-331 164t-272.5 240.5t-204.5 301t-121 349.5t-27 381.5q17 277 134 521.5t311 428.5z
" />
    <glyph glyph-name="eightyeight.one" 
d="M-2536 2476l908 -1100l90 1425q194 -12 375 -75t331.5 -164.5t274 -241.5t205.5 -302t121.5 -350t27.5 -382t-75 -375t-164.5 -331t-241.5 -273t-302 -204.5t-350 -120.5t-382 -27t-375 74.5t-331 164t-272.5 240.5t-204.5 301t-121 349.5t-27 381.5q18 301 153.5 562.5
t359.5 447.5z" />
    <glyph glyph-name="eightynine.one" 
d="M-2466 2530l838 -1154l90 1425q194 -12 375 -75t331.5 -164.5t274 -241.5t205.5 -302t121.5 -350t27.5 -382t-75 -375t-164.5 -331t-241.5 -273t-302 -204.5t-350 -120.5t-382 -27t-375 74.5t-331 164t-272.5 240.5t-204.5 301t-121 349.5t-27 381.5q20 324 175 601.5
t408 462.5z" />
    <glyph glyph-name="ninety.one" 
d="M-1628 1376l90 1425q194 -12 375 -75t331.5 -164.5t274 -241.5t205.5 -302t121.5 -350t27.5 -382t-75 -375t-164.5 -331t-241.5 -273t-302 -204.5t-350 -120.5t-382 -27t-375 74.5t-331 164t-272.5 240.5t-204.5 301t-121 349.5t-27 381.5q21 349 197 641.5t460 473.5z
" />
    <glyph glyph-name="ninetyone.one" 
d="M-1628 1376l90 1425q194 -12 375 -75t331.5 -164.5t274 -241.5t205.5 -302t121.5 -350t27.5 -382t-75 -375t-164.5 -331t-241.5 -273t-302 -204.5t-350 -120.5t-382 -27t-375 74.5t-331 164t-272.5 240.5t-204.5 301t-121 349.5t-27 381.5q24 373 221.5 680t512.5 481z
" />
    <glyph glyph-name="ninetytwo.one" 
d="M-2235 2668l607 -1292l90 1425q194 -12 375 -75t331.5 -164.5t274 -241.5t205.5 -302t121.5 -350t27.5 -382t-75 -375t-164.5 -331t-241.5 -273t-302 -204.5t-350 -120.5t-382 -27t-375 74.5t-331 164t-272.5 240.5t-204.5 301t-121 349.5t-27 381.5q25 396 246.5 716.5
t567.5 485.5z" />
    <glyph glyph-name="ninetythree.one" 
d="M-3049 1466q27 421 272 754t623 484l526 -1328l90 1425q194 -12 375 -75t331.5 -164.5t274 -241.5t205.5 -302t121.5 -350t27.5 -382t-75 -375t-164.5 -331t-241.5 -273t-302 -204.5t-350 -120.5t-382 -27t-375 74.5t-331 164t-272.5 240.5t-204.5 301t-121 349.5
t-27 381.5z" />
    <glyph glyph-name="ninetyfour.one" 
d="M-1628 1376l90 1425q194 -12 375 -75t331.5 -164.5t274 -241.5t205.5 -302t121.5 -350t27.5 -382t-75 -375t-164.5 -331t-241.5 -273t-302 -204.5t-350 -120.5t-382 -27t-375 74.5t-331 164t-272.5 240.5t-204.5 301t-121 349.5t-27 381.5q19 295 150 554t346 442.5
t484 271.5z" />
    <glyph glyph-name="ninetyfive.one" 
d="M-1984 2759l356 -1383l90 1425q194 -12 375 -75t331.5 -164.5t274 -241.5t205.5 -302t121.5 -350t27.5 -382t-75 -375t-164.5 -331t-241.5 -273t-302 -204.5t-350 -120.5t-382 -27t-375 74.5t-331 164t-272.5 240.5t-204.5 301t-121 349.5t-27 381.5q14 233 101 447
t228 381t330.5 288t405.5 177z" />
    <glyph glyph-name="ninetysix.one" 
d="M-1628 1376l90 1425q194 -12 375 -75t331.5 -164.5t274 -241.5t205.5 -302t121.5 -350t27.5 -382t-75 -375t-164.5 -331t-241.5 -273t-302 -204.5t-350 -120.5t-382 -27t-375 74.5t-331 164t-272.5 240.5t-204.5 301t-121 349.5t-27 381.5q15 244 110 467t247.5 393.5
t358 289t437.5 162.5z" />
    <glyph glyph-name="ninetyseven.one" 
d="M-1807 2792l179 -1416l90 1425q194 -12 375 -75t331.5 -164.5t274 -241.5t205.5 -302t121.5 -350t27.5 -382t-75 -375t-164.5 -331t-241.5 -273t-302 -204.5t-350 -120.5t-382 -27t-375 74.5t-331 164t-272.5 240.5t-204.5 301t-121 349.5t-27 381.5q16 256 119 487.5
t268 405t386.5 288t468.5 145.5z" />
    <glyph glyph-name="ninetyeight.one" 
d="M-1720 2801l92 -1425l90 1425q194 -12 375 -75t331.5 -164.5t274 -241.5t205.5 -302t121.5 -350t27.5 -382t-75 -375t-164.5 -331t-241.5 -273t-302 -204.5t-350 -120.5t-382 -27t-375 74.5t-331 164t-272.5 240.5t-204.5 301t-121 349.5t-27 381.5q13 214 87 412.5
t197.5 358.5t284 283t356 195.5t404.5 85.5z" />
    <glyph glyph-name="ninetynine.one" 
d="M-1628 2804v-1428l90 1425q194 -12 375 -75t331.5 -164.5t274 -241.5t205.5 -302t121.5 -350t27.5 -382t-75 -375t-164.5 -331t-241.5 -273t-302 -204.5t-350 -120.5t-382 -27t-375 74.5t-331 164t-272.5 240.5t-204.5 301t-121 349.5t-27 381.5q12 186 70 361t153 322
t225 269.5t282.5 207t329.5 131.5t361 47z" />
    <glyph glyph-name="one.two" 
d="M-1628 1376l179 1417q25 -3 89 -14z" />
    <glyph glyph-name="two.two" 
d="M-1628 1376l179 1417q94 -12 178 -34z" />
    <glyph glyph-name="three.two" 
d="M-1628 1376l179 1417q133 -18 262 -59z" />
    <glyph glyph-name="four.two" 
d="M-1628 1376l179 1417q182 -24 347 -89z" />
    <glyph glyph-name="five.two" 
d="M-1628 1376l179 1417q226 -28 429 -125z" />
    <glyph glyph-name="six.two" 
d="M-1628 1376l179 1417q268 -33 509 -165z" />
    <glyph glyph-name="seven.two" 
d="M-863 2582l-765 -1206l179 1417q319 -40 586 -211z" />
    <glyph glyph-name="eight.two" 
d="M-1628 1376l179 1417q365 -46 660 -261z" />
    <glyph glyph-name="nine.two" 
d="M-1628 1376l179 1417q412 -52 731 -317z" />
    <glyph glyph-name="ten.two" 
d="M-1628 1376l179 1417q229 -29 432.5 -126t365.5 -250z" />
    <glyph glyph-name="eleven.two" 
d="M-1628 1376l179 1417q253 -32 473.5 -146t387.5 -293z" />
    <glyph glyph-name="twelve.two" 
d="M-1628 1376l179 1417q276 -35 512.5 -167.5t408.5 -339.5z" />
    <glyph glyph-name="thirteen.two" 
d="M-1628 1376l179 1417q300 -38 552.5 -190t423.5 -387z" />
    <glyph glyph-name="fourteen.two" 
d="M-1628 1376l179 1417q324 -41 591 -214t435 -438z" />
    <glyph glyph-name="fifteen.two" 
d="M-1628 1376l179 1417q347 -44 628 -239t444 -490z" />
    <glyph glyph-name="sixteen.two" 
d="M-1628 1376l179 1417q371 -47 665.5 -265t447.5 -545z" />
    <glyph glyph-name="seventeen.two" 
d="M-1628 1376l179 1417q395 -50 701 -292t448 -599z" />
    <glyph glyph-name="eighteen.two" 
d="M-1628 1376l179 1417q209 -27 399 -111.5t341 -212t264 -294.5t175 -357z" />
    <glyph glyph-name="nineteen.two" 
d="M-1628 1376l179 1417q221 -28 420 -120.5t354 -232t266.5 -321.5t164.5 -387z" />
    <glyph glyph-name="twenty.two" 
d="M-1628 1376l179 1417q232 -30 440 -130.5t365.5 -251.5t267 -348t151.5 -417z" />
    <glyph glyph-name="twentyone.two" 
d="M-1628 1376l179 1417q243 -31 460 -140.5t377.5 -273.5t266 -377t134.5 -448z" />
    <glyph glyph-name="twentytwo.two" 
d="M-1628 1376l179 1417q255 -32 480 -150t387.5 -294t263 -405t115.5 -478z" />
    <glyph glyph-name="twentythree.two" 
d="M-1628 1376l179 1417q266 -34 499 -161t397.5 -315.5t258.5 -433.5t94 -507h-1428z" />
    <glyph glyph-name="twentyfour.two" 
d="M-1628 1376l179 1417q185 -23 356.5 -93t312 -174t254.5 -242.5t189 -296t110.5 -337.5t23.5 -364z" />
    <glyph glyph-name="twentyfive.two" 
d="M-1628 1376l179 1417q193 -24 370 -98.5t321 -185.5t258 -258.5t186 -314t99.5 -356.5t3.5 -383z" />
    <glyph glyph-name="twentysix.two" 
d="M-1628 1376l179 1417q193 -24 370 -98.5t321 -185.5t258 -258.5t186 -314t99.5 -356.5t3.5 -383q-6 -47 -15 -90z" />
    <glyph glyph-name="twentyseven.two" 
d="M-1628 1376l179 1417q193 -24 370 -98.5t321 -185.5t258 -258.5t186 -314t99.5 -356.5t3.5 -383q-13 -95 -34 -176z" />
    <glyph glyph-name="twentyeight.two" 
d="M-1628 1376l179 1417q193 -24 370 -98.5t321 -185.5t258 -258.5t186 -314t99.5 -356.5t3.5 -383q-19 -142 -59 -263z" />
    <glyph glyph-name="twentynine.two" 
d="M-1628 1376l179 1417q193 -24 370 -98.5t321 -185.5t258 -258.5t186 -314t99.5 -356.5t3.5 -383q-24 -182 -89 -347z" />
    <glyph glyph-name="thirty.two" 
d="M-336 768l-1292 608l179 1417q193 -24 370 -98.5t321 -185.5t258 -258.5t186 -314t99.5 -356.5t3.5 -383q-28 -226 -125 -429z" />
    <glyph glyph-name="thirtyone.two" 
d="M-1628 1376l179 1417q193 -24 370 -98.5t321 -185.5t258 -258.5t186 -314t99.5 -356.5t3.5 -383q-34 -270 -166 -510z" />
    <glyph glyph-name="thirtytwo.two" 
d="M-1628 1376l179 1417q193 -24 370 -98.5t321 -185.5t258 -258.5t186 -314t99.5 -356.5t3.5 -383q-39 -315 -211 -586z" />
    <glyph glyph-name="thirtythree.two" 
d="M-1628 1376l179 1417q193 -24 370 -98.5t321 -185.5t258 -258.5t186 -314t99.5 -356.5t3.5 -383q-46 -364 -262 -659z" />
    <glyph glyph-name="thirtyfour.two" 
d="M-1628 1376l179 1417q193 -24 370 -98.5t321 -185.5t258 -258.5t186 -314t99.5 -356.5t3.5 -383q-51 -410 -317 -731z" />
    <glyph glyph-name="thirtyfive.two" 
d="M-1628 1376l179 1417q193 -24 370 -98.5t321 -185.5t258 -258.5t186 -314t99.5 -356.5t3.5 -383q-29 -229 -126 -432.5t-250 -364.5z" />
    <glyph glyph-name="thirtysix.two" 
d="M-1628 1376l179 1417q193 -24 370 -98.5t321 -185.5t258 -258.5t186 -314t99.5 -356.5t3.5 -383q-32 -253 -146.5 -473.5t-293.5 -387.5z" />
    <glyph glyph-name="thirtyseven.two" 
d="M-718 277l-910 1099l179 1417q193 -24 370 -98.5t321 -185.5t258 -258.5t186 -314t99.5 -356.5t3.5 -383q-35 -276 -168 -512.5t-339 -407.5z" />
    <glyph glyph-name="thirtyeight.two" 
d="M-1628 1376l179 1417q193 -24 370 -98.5t321 -185.5t258 -258.5t186 -314t99.5 -356.5t3.5 -383q-38 -300 -190.5 -552.5t-387.5 -422.5z" />
    <glyph glyph-name="thirtynine.two" 
d="M-1628 1376l179 1417q193 -24 370 -98.5t321 -185.5t258 -258.5t186 -314t99.5 -356.5t3.5 -383q-41 -324 -214.5 -591t-438.5 -434z" />
    <glyph glyph-name="fourty.two" 
d="M-941 127l-687 1249l179 1417q193 -24 370 -98.5t321 -185.5t258 -258.5t186 -314t99.5 -356.5t3.5 -383q-44 -347 -239 -628t-491 -442z" />
    <glyph glyph-name="fourtyone.two" 
d="M-1021 86l-607 1290l179 1417q193 -24 370 -98.5t321 -185.5t258 -258.5t186 -314t99.5 -356.5t3.5 -383q-47 -371 -265 -664t-545 -447z" />
    <glyph glyph-name="fourtytwo.two" 
d="M-1104 51l-524 1325l179 1417q193 -24 370 -98.5t321 -185.5t258 -258.5t186 -314t99.5 -356.5t3.5 -383q-33 -263 -156.5 -492.5t-312.5 -395.5t-424 -258z" />
    <glyph glyph-name="fourtythree.two" 
d="M-1188 20l-440 1356l179 1417q193 -24 370 -98.5t321 -185.5t258 -258.5t186 -314t99.5 -356.5t3.5 -383q-35 -278 -171 -518.5t-343.5 -408t-462.5 -250.5z" />
    <glyph glyph-name="fourtyfour.two" 
d="M-1273 -4l-355 1380l179 1417q193 -24 370 -98.5t321 -185.5t258 -258.5t186 -314t99.5 -356.5t3.5 -383q-28 -221 -120.5 -420t-232.5 -353t-322 -265t-387 -163z" />
    <glyph glyph-name="fourtyfive.two" 
d="M-1360 -23l-268 1399l179 1417q193 -24 370 -98.5t321 -185.5t258 -258.5t186 -314t99.5 -356.5t3.5 -383q-30 -232 -130.5 -440t-252 -365t-349 -265.5t-417.5 -149.5z" />
    <glyph glyph-name="fourtysix.two" 
d="M-1450 -38l-178 1414l179 1417q193 -24 370 -98.5t321 -185.5t258 -258.5t186 -314t99.5 -356.5t3.5 -383q-31 -244 -140.5 -460t-273.5 -376t-377 -265t-448 -134z" />
    <glyph glyph-name="fourtyseven.two" 
d="M-1538 -46l-90 1422l179 1417q193 -24 370 -98.5t321 -185.5t258 -258.5t186 -314t99.5 -356.5t3.5 -383q-32 -255 -150 -479.5t-294.5 -386.5t-405 -262t-477.5 -115z" />
    <glyph glyph-name="fourtyeight.two" 
d="M-1628 -48v1424l179 1417q193 -24 370 -98.5t321 -185.5t258 -258.5t186 -314t99.5 -356.5t3.5 -383q-34 -266 -161 -498.5t-315.5 -396t-433 -257t-507.5 -93.5z" />
    <glyph glyph-name="fourtynine.two" 
d="M-1718 -45l90 1421l179 1417q193 -24 370 -98.5t321 -185.5t258 -258.5t186 -314t99.5 -356.5t3.5 -383q-35 -277 -171 -517t-337.5 -404.5t-462 -251.5t-536.5 -69z" />
    <glyph glyph-name="fifty.two" 
d="M-1806 -37l357 2830q193 -24 370 -98.5t321 -185.5t258 -258.5t186 -314t99.5 -356.5t3.5 -383t-98.5 -369.5t-185.5 -320t-258 -257.5t-314 -185t-357 -98.5t-382 -3.5z" />
    <glyph glyph-name="fiftyone.two" 
d="M-1806 -37q-46 6 -89 15l267 1398l179 1417q193 -24 370 -98.5t321 -185.5t258 -258.5t186 -314t99.5 -356.5t3.5 -383t-98.5 -369.5t-185.5 -320t-258 -257.5t-314 -185t-357 -98.5t-382 -3.5z" />
    <glyph glyph-name="fiftytwo.two" 
d="M-1806 -37q-95 13 -176 34l354 1379l179 1417q193 -24 370 -98.5t321 -185.5t258 -258.5t186 -314t99.5 -356.5t3.5 -383t-98.5 -369.5t-185.5 -320t-258 -257.5t-314 -185t-357 -98.5t-382 -3.5z" />
    <glyph glyph-name="fiftythree.two" 
d="M-1806 -37q-136 18 -262 59l440 1354l179 1417q193 -24 370 -98.5t321 -185.5t258 -258.5t186 -314t99.5 -356.5t3.5 -383t-98.5 -369.5t-185.5 -320t-258 -257.5t-314 -185t-357 -98.5t-382 -3.5z" />
    <glyph glyph-name="fiftyfour.two" 
d="M-1806 -37q-177 22 -346 89l524 1324l179 1417q193 -24 370 -98.5t321 -185.5t258 -258.5t186 -314t99.5 -356.5t3.5 -383t-98.5 -369.5t-185.5 -320t-258 -257.5t-314 -185t-357 -98.5t-382 -3.5z" />
    <glyph glyph-name="fiftyfive.two" 
d="M-1806 -37q-226 28 -430 124l608 1289l179 1417q193 -24 370 -98.5t321 -185.5t258 -258.5t186 -314t99.5 -356.5t3.5 -383t-98.5 -369.5t-185.5 -320t-258 -257.5t-314 -185t-357 -98.5t-382 -3.5z" />
    <glyph glyph-name="fiftysix.two" 
d="M-1806 -37q-269 34 -509 165l687 1248l179 1417q193 -24 370 -98.5t321 -185.5t258 -258.5t186 -314t99.5 -356.5t3.5 -383t-98.5 -369.5t-185.5 -320t-258 -257.5t-314 -185t-357 -98.5t-382 -3.5z" />
    <glyph glyph-name="fiftyseven.two" 
d="M-1806 -37q-317 40 -585 209l763 1204l179 1417q193 -24 370 -98.5t321 -185.5t258 -258.5t186 -314t99.5 -356.5t3.5 -383t-98.5 -369.5t-185.5 -320t-258 -257.5t-314 -185t-357 -98.5t-382 -3.5z" />
    <glyph glyph-name="fiftyeight.two" 
d="M-1806 -37q-364 46 -660 261l838 1152l179 1417q193 -24 370 -98.5t321 -185.5t258 -258.5t186 -314t99.5 -356.5t3.5 -383t-98.5 -369.5t-185.5 -320t-258 -257.5t-314 -185t-357 -98.5t-382 -3.5z" />
    <glyph glyph-name="fiftynine.two" 
d="M-1806 -37q-410 51 -731 315l909 1098l179 1417q193 -24 370 -98.5t321 -185.5t258 -258.5t186 -314t99.5 -356.5t3.5 -383t-98.5 -369.5t-185.5 -320t-258 -257.5t-314 -185t-357 -98.5t-382 -3.5z" />
    <glyph glyph-name="sixty.two" 
d="M-1806 -37q-230 29 -433 126t-365 249l976 1038l179 1417q193 -24 370 -98.5t321 -185.5t258 -258.5t186 -314t99.5 -356.5t3.5 -383t-98.5 -369.5t-185.5 -320t-258 -257.5t-314 -185t-357 -98.5t-382 -3.5z" />
    <glyph glyph-name="sixtyone.two" 
d="M-1806 -37q-253 32 -473 146t-388 292l1039 975l179 1417q193 -24 370 -98.5t321 -185.5t258 -258.5t186 -314t99.5 -356.5t3.5 -383t-98.5 -369.5t-185.5 -320t-258 -257.5t-314 -185t-357 -98.5t-382 -3.5z" />
    <glyph glyph-name="sixtytwo.two" 
d="M-1806 -37q-277 35 -513.5 167t-406.5 338l1098 908l179 1417q193 -24 370 -98.5t321 -185.5t258 -258.5t186 -314t99.5 -356.5t3.5 -383t-98.5 -369.5t-185.5 -320t-258 -257.5t-314 -185t-357 -98.5t-382 -3.5z" />
    <glyph glyph-name="sixtythree.two" 
d="M-1806 -37q-301 38 -552.5 189.5t-422.5 386.5l1153 837l179 1417q193 -24 370 -98.5t321 -185.5t258 -258.5t186 -314t99.5 -356.5t3.5 -383t-98.5 -369.5t-185.5 -320t-258 -257.5t-314 -185t-357 -98.5t-382 -3.5z" />
    <glyph glyph-name="sixtyfour.two" 
d="M-1806 -37q-324 41 -591 213t-435 437l1204 763l179 1417q193 -24 370 -98.5t321 -185.5t258 -258.5t186 -314t99.5 -356.5t3.5 -383t-98.5 -369.5t-185.5 -320t-258 -257.5t-314 -185t-357 -98.5t-382 -3.5z" />
    <glyph glyph-name="sixtyfive.two" 
d="M-1806 -37q-348 44 -628.5 238t-442.5 489l1249 686l179 1417q193 -24 370 -98.5t321 -185.5t258 -258.5t186 -314t99.5 -356.5t3.5 -383t-98.5 -369.5t-185.5 -320t-258 -257.5t-314 -185t-357 -98.5t-382 -3.5z" />
    <glyph glyph-name="sixtysix.two" 
d="M-1806 -37q-371 47 -664.5 264t-446.5 542l1289 607l179 1417q193 -24 370 -98.5t321 -185.5t258 -258.5t186 -314t99.5 -356.5t3.5 -383t-98.5 -369.5t-185.5 -320t-258 -257.5t-314 -185t-357 -98.5t-382 -3.5z" />
    <glyph glyph-name="sixtyseven.two" 
d="M-1806 -37q-395 50 -700.5 291t-446.5 598l1325 524l179 1417q193 -24 370 -98.5t321 -185.5t258 -258.5t186 -314t99.5 -356.5t3.5 -383t-98.5 -369.5t-185.5 -320t-258 -257.5t-314 -185t-357 -98.5t-382 -3.5z" />
    <glyph glyph-name="sixtyeight.two" 
d="M-1806 -37q-279 35 -518.5 170t-407.5 341.5t-251 461.5l1355 440l179 1417q193 -24 370 -98.5t321 -185.5t258 -258.5t186 -314t99.5 -356.5t3.5 -383t-98.5 -369.5t-185.5 -320t-258 -257.5t-314 -185t-357 -98.5t-382 -3.5z" />
    <glyph glyph-name="sixtynine.two" 
d="M-1806 -37q-221 28 -420 120t-353 231.5t-265 320.5t-164 386l1380 355l179 1417q193 -24 370 -98.5t321 -185.5t258 -258.5t186 -314t99.5 -356.5t3.5 -383t-98.5 -369.5t-185.5 -320t-258 -257.5t-314 -185t-357 -98.5t-382 -3.5z" />
    <glyph glyph-name="seventy.two" 
d="M-1806 -37q-232 30 -440 130t-365.5 251.5t-266 348t-150.5 416.5l1400 267l179 1417q193 -24 370 -98.5t321 -185.5t258 -258.5t186 -314t99.5 -356.5t3.5 -383t-98.5 -369.5t-185.5 -320t-258 -257.5t-314 -185t-357 -98.5t-382 -3.5z" />
    <glyph glyph-name="seventyone.two" 
d="M-1806 -37q-325 41 -594 215t-435.5 439.5t-205.5 579.5l1413 179l179 1417q193 -24 370 -98.5t321 -185.5t258 -258.5t186 -314t99.5 -356.5t3.5 -383t-98.5 -369.5t-185.5 -320t-258 -257.5t-314 -185t-357 -98.5t-382 -3.5z" />
    <glyph glyph-name="seventytwo.two" 
d="M-1806 -37q-255 32 -479.5 149.5t-386.5 293t-262 403.5t-115 477l1421 90l179 1417q193 -24 370 -98.5t321 -185.5t258 -258.5t186 -314t99.5 -356.5t3.5 -383t-98.5 -369.5t-185.5 -320t-258 -257.5t-314 -185t-357 -98.5t-382 -3.5z" />
    <glyph glyph-name="seventythree.two" 
d="M-1806 -37q-266 34 -498.5 160t-396.5 314t-258 432.5t-93 506.5h1424l179 1417q193 -24 370 -98.5t321 -185.5t258 -258.5t186 -314t99.5 -356.5t3.5 -383t-98.5 -369.5t-185.5 -320t-258 -257.5t-314 -185t-357 -98.5t-382 -3.5z" />
    <glyph glyph-name="seventyfour.two" 
d="M-1806 -37q-185 23 -356 92.5t-311 173t-253.5 241t-188.5 294.5t-110.5 336.5t-23.5 363.5l1421 -88l179 1417q193 -24 370 -98.5t321 -185.5t258 -258.5t186 -314t99.5 -356.5t3.5 -383t-98.5 -369.5t-185.5 -320t-258 -257.5t-314 -185t-357 -98.5t-382 -3.5z" />
    <glyph glyph-name="seventyfive.two" 
d="M-3041 1554l1413 -178l179 1417q193 -24 370 -98.5t321 -185.5t258 -258.5t186 -314t99.5 -356.5t3.5 -383t-98.5 -369.5t-185.5 -320t-258 -257.5t-314 -185t-357 -98.5t-382 -3.5q-193 24 -370 98t-320.5 184.5t-257 257.5t-185 313.5t-99 356t-3.5 381.5z" />
    <glyph glyph-name="seventysix.two" 
d="M-3027 1643l1399 -267l179 1417q193 -24 370 -98.5t321 -185.5t258 -258.5t186 -314t99.5 -356.5t3.5 -383t-98.5 -369.5t-185.5 -320t-258 -257.5t-314 -185t-357 -98.5t-382 -3.5q-193 24 -370 98t-320.5 184.5t-257 257.5t-185 313.5t-99 356t-3.5 381.5q5 34 14 89z
" />
    <glyph glyph-name="seventyseven.two" 
d="M-3007 1730l1379 -354l179 1417q193 -24 370 -98.5t321 -185.5t258 -258.5t186 -314t99.5 -356.5t3.5 -383t-98.5 -369.5t-185.5 -320t-258 -257.5t-314 -185t-357 -98.5t-382 -3.5q-193 24 -370 98t-320.5 184.5t-257 257.5t-185 313.5t-99 356t-3.5 381.5q13 95 34 176
z" />
    <glyph glyph-name="seventyeight.two" 
d="M-1628 1376l179 1417q193 -24 370 -98.5t321 -185.5t258 -258.5t186 -314t99.5 -356.5t3.5 -383t-98.5 -369.5t-185.5 -320t-258 -257.5t-314 -185t-357 -98.5t-382 -3.5q-193 24 -370 98t-320.5 184.5t-257 257.5t-185 313.5t-99 356t-3.5 381.5q18 136 59 262z" />
    <glyph glyph-name="seventynine.two" 
d="M-1628 1376l179 1417q193 -24 370 -98.5t321 -185.5t258 -258.5t186 -314t99.5 -356.5t3.5 -383t-98.5 -369.5t-185.5 -320t-258 -257.5t-314 -185t-357 -98.5t-382 -3.5q-193 24 -370 98t-320.5 184.5t-257 257.5t-185 313.5t-99 356t-3.5 381.5q22 181 88 346z" />
    <glyph glyph-name="eighty.two" 
d="M-1628 1376l179 1417q193 -24 370 -98.5t321 -185.5t258 -258.5t186 -314t99.5 -356.5t3.5 -383t-98.5 -369.5t-185.5 -320t-258 -257.5t-314 -185t-357 -98.5t-382 -3.5q-193 24 -370 98t-320.5 184.5t-257 257.5t-185 313.5t-99 356t-3.5 381.5q28 227 125 430z" />
    <glyph glyph-name="eightyone.two" 
d="M-1628 1376l179 1417q193 -24 370 -98.5t321 -185.5t258 -258.5t186 -314t99.5 -356.5t3.5 -383t-98.5 -369.5t-185.5 -320t-258 -257.5t-314 -185t-357 -98.5t-382 -3.5q-193 24 -370 98t-320.5 184.5t-257 257.5t-185 313.5t-99 356t-3.5 381.5q33 267 164 508z" />
    <glyph glyph-name="eightytwo.two" 
d="M-2831 2140l1203 -764l179 1417q193 -24 370 -98.5t321 -185.5t258 -258.5t186 -314t99.5 -356.5t3.5 -383t-98.5 -369.5t-185.5 -320t-258 -257.5t-314 -185t-357 -98.5t-382 -3.5q-193 24 -370 98t-320.5 184.5t-257 257.5t-185 313.5t-99 356t-3.5 381.5
q40 317 210 586z" />
    <glyph glyph-name="eightythree.two" 
d="M-2781 2214l1153 -838l179 1417q193 -24 370 -98.5t321 -185.5t258 -258.5t186 -314t99.5 -356.5t3.5 -383t-98.5 -369.5t-185.5 -320t-258 -257.5t-314 -185t-357 -98.5t-382 -3.5q-193 24 -370 98t-320.5 184.5t-257 257.5t-185 313.5t-99 356t-3.5 381.5
q46 364 260 660z" />
    <glyph glyph-name="eightyfour.two" 
d="M-1628 1376l179 1417q193 -24 370 -98.5t321 -185.5t258 -258.5t186 -314t99.5 -356.5t3.5 -383t-98.5 -369.5t-185.5 -320t-258 -257.5t-314 -185t-357 -98.5t-382 -3.5q-193 24 -370 98t-320.5 184.5t-257 257.5t-185 313.5t-99 356t-3.5 381.5q52 411 314 730z" />
    <glyph glyph-name="eightyfive.two" 
d="M-2667 2352l1039 -976l179 1417q193 -24 370 -98.5t321 -185.5t258 -258.5t186 -314t99.5 -356.5t3.5 -383t-98.5 -369.5t-185.5 -320t-258 -257.5t-314 -185t-357 -98.5t-382 -3.5q-193 24 -370 98t-320.5 184.5t-257 257.5t-185 313.5t-99 356t-3.5 381.5
q29 229 125.5 432.5t248.5 365.5z" />
    <glyph glyph-name="eightysix.two" 
d="M-1628 1376l179 1417q193 -24 370 -98.5t321 -185.5t258 -258.5t186 -314t99.5 -356.5t3.5 -383t-98.5 -369.5t-185.5 -320t-258 -257.5t-314 -185t-357 -98.5t-382 -3.5q-193 24 -370 98t-320.5 184.5t-257 257.5t-185 313.5t-99 356t-3.5 381.5q32 253 145.5 473.5
t291.5 387.5z" />
    <glyph glyph-name="eightyseven.two" 
d="M-1628 1376l179 1417q193 -24 370 -98.5t321 -185.5t258 -258.5t186 -314t99.5 -356.5t3.5 -383t-98.5 -369.5t-185.5 -320t-258 -257.5t-314 -185t-357 -98.5t-382 -3.5q-193 24 -370 98t-320.5 184.5t-257 257.5t-185 313.5t-99 356t-3.5 381.5q35 276 166.5 513.5
t337.5 407.5z" />
    <glyph glyph-name="eightyeight.two" 
d="M-2466 2530l838 -1154l179 1417q193 -24 370 -98.5t321 -185.5t258 -258.5t186 -314t99.5 -356.5t3.5 -383t-98.5 -369.5t-185.5 -320t-258 -257.5t-314 -185t-357 -98.5t-382 -3.5q-193 24 -370 98t-320.5 184.5t-257 257.5t-185 313.5t-99 356t-3.5 381.5
q38 300 189.5 552.5t385.5 423.5z" />
    <glyph glyph-name="eightynine.two" 
d="M-2392 2580l764 -1204l179 1417q193 -24 370 -98.5t321 -185.5t258 -258.5t186 -314t99.5 -356.5t3.5 -383t-98.5 -369.5t-185.5 -320t-258 -257.5t-314 -185t-357 -98.5t-382 -3.5q-193 24 -370 98t-320.5 184.5t-257 257.5t-185 313.5t-99 356t-3.5 381.5
q41 324 213 591t436 435z" />
    <glyph glyph-name="ninety.two" 
d="M-1628 1376l179 1417q193 -24 370 -98.5t321 -185.5t258 -258.5t186 -314t99.5 -356.5t3.5 -383t-98.5 -369.5t-185.5 -320t-258 -257.5t-314 -185t-357 -98.5t-382 -3.5q-193 24 -370 98t-320.5 184.5t-257 257.5t-185 313.5t-99 356t-3.5 381.5q44 347 238 628t488 445
z" />
    <glyph glyph-name="ninetyone.two" 
d="M-1628 1376l179 1417q193 -24 370 -98.5t321 -185.5t258 -258.5t186 -314t99.5 -356.5t3.5 -383t-98.5 -369.5t-185.5 -320t-258 -257.5t-314 -185t-357 -98.5t-382 -3.5q-193 24 -370 98t-320.5 184.5t-257 257.5t-185 313.5t-99 356t-3.5 381.5q47 371 264 665.5
t542 448.5z" />
    <glyph glyph-name="ninetytwo.two" 
d="M-2153 2703l525 -1327l179 1417q193 -24 370 -98.5t321 -185.5t258 -258.5t186 -314t99.5 -356.5t3.5 -383t-98.5 -369.5t-185.5 -320t-258 -257.5t-314 -185t-357 -98.5t-382 -3.5q-193 24 -370 98t-320.5 184.5t-257 257.5t-185 313.5t-99 356t-3.5 381.5
q50 395 291 701t597 448z" />
    <glyph glyph-name="ninetythree.two" 
d="M-3041 1554q35 278 170 518.5t341.5 409.5t460.5 252l441 -1358l179 1417q193 -24 370 -98.5t321 -185.5t258 -258.5t186 -314t99.5 -356.5t3.5 -383t-98.5 -369.5t-185.5 -320t-258 -257.5t-314 -185t-357 -98.5t-382 -3.5q-193 24 -370 98t-320.5 184.5t-257 257.5
t-185 313.5t-99 356t-3.5 381.5z" />
    <glyph glyph-name="ninetyfour.two" 
d="M-1628 1376l179 1417q193 -24 370 -98.5t321 -185.5t258 -258.5t186 -314t99.5 -356.5t3.5 -383t-98.5 -369.5t-185.5 -320t-258 -257.5t-314 -185t-357 -98.5t-382 -3.5q-193 24 -370 98t-320.5 184.5t-257 257.5t-185 313.5t-99 356t-3.5 381.5q28 221 120 420
t231.5 354t320.5 266.5t386 164.5z" />
    <glyph glyph-name="ninetyfive.two" 
d="M-1896 2779l268 -1403l179 1417q193 -24 370 -98.5t321 -185.5t258 -258.5t186 -314t99.5 -356.5t3.5 -383t-98.5 -369.5t-185.5 -320t-258 -257.5t-314 -185t-357 -98.5t-382 -3.5q-193 24 -370 98t-320.5 184.5t-257 257.5t-185 313.5t-99 356t-3.5 381.5
q30 232 130 440t251 366t347.5 267.5t416.5 151.5z" />
    <glyph glyph-name="ninetysix.two" 
d="M-1628 1376l179 1417q193 -24 370 -98.5t321 -185.5t258 -258.5t186 -314t99.5 -356.5t3.5 -383t-98.5 -369.5t-185.5 -320t-258 -257.5t-314 -185t-357 -98.5t-382 -3.5q-193 24 -370 98t-320.5 184.5t-257 257.5t-185 313.5t-99 356t-3.5 381.5q31 243 140 460
t271.5 377.5t375 265.5t446.5 135z" />
    <glyph glyph-name="ninetyseven.two" 
d="M-1717 2801l89 -1425l179 1417q193 -24 370 -98.5t321 -185.5t258 -258.5t186 -314t99.5 -356.5t3.5 -383t-98.5 -369.5t-185.5 -320t-258 -257.5t-314 -185t-357 -98.5t-382 -3.5q-193 24 -370 98t-320.5 184.5t-257 257.5t-185 313.5t-99 356t-3.5 381.5
q32 255 149.5 480t293 387.5t404 263t477.5 116.5z" />
    <glyph glyph-name="ninetyeight.two" 
d="M-1630 2804l2 -1428l179 1417q193 -24 370 -98.5t321 -185.5t258 -258.5t186 -314t99.5 -356.5t3.5 -383t-98.5 -369.5t-185.5 -320t-258 -257.5t-314 -185t-357 -98.5t-382 -3.5q-193 24 -370 98t-320.5 184.5t-257 257.5t-185 313.5t-99 356t-3.5 381.5q34 266 160 499
t313.5 397.5t431.5 259t506 94.5z" />
    <glyph glyph-name="one.three" 
d="M-1628 1376l268 1403q58 -12 87 -20z" />
    <glyph glyph-name="two.three" 
d="M-1628 1376l268 1403q89 -18 175 -45z" />
    <glyph glyph-name="three.three" 
d="M-1628 1376l268 1403q130 -25 257 -75z" />
    <glyph glyph-name="four.three" 
d="M-1628 1376l268 1403q176 -34 340 -111z" />
    <glyph glyph-name="five.three" 
d="M-1628 1376l268 1403q222 -43 420 -151z" />
    <glyph glyph-name="six.three" 
d="M-1628 1376l268 1403q268 -52 497 -197z" />
    <glyph glyph-name="seven.three" 
d="M-788 2532l-840 -1156l268 1403q316 -61 572 -247z" />
    <glyph glyph-name="eight.three" 
d="M-1628 1376l268 1403q362 -70 642 -303z" />
    <glyph glyph-name="nine.three" 
d="M-1628 1376l268 1403q408 -78 709 -362z" />
    <glyph glyph-name="ten.three" 
d="M-1628 1376l268 1403q226 -44 423 -153.5t349 -271.5z" />
    <glyph glyph-name="eleven.three" 
d="M-1628 1376l268 1403q250 -48 462.5 -176t369.5 -317z" />
    <glyph glyph-name="twelve.three" 
d="M-1628 1376l268 1403q273 -52 500.5 -199.5t385.5 -363.5z" />
    <glyph glyph-name="thirteen.three" 
d="M-1628 1376l268 1403q296 -57 538.5 -224.5t398.5 -413.5z" />
    <glyph glyph-name="fourteen.three" 
d="M-1628 1376l268 1403q320 -61 576 -250.5t407 -464.5z" />
    <glyph glyph-name="fifteen.three" 
d="M-1628 1376l268 1403q343 -66 611.5 -278t412.5 -517z" />
    <glyph glyph-name="sixteen.three" 
d="M-1628 1376l268 1403q367 -70 647 -306.5t413 -571.5z" />
    <glyph glyph-name="seventeen.three" 
d="M-1628 1376l268 1403q390 -75 680.5 -335.5t409.5 -626.5z" />
    <glyph glyph-name="eighteen.three" 
d="M-1628 1376l268 1403q207 -39 391.5 -135.5t326.5 -234t244.5 -310.5t152.5 -367z" />
    <glyph glyph-name="nineteen.three" 
d="M-1628 1376l268 1403q218 -42 411 -146.5t338.5 -254t245.5 -338t140 -396.5z" />
    <glyph glyph-name="twenty.three" 
d="M-1628 1376l268 1403q229 -44 430.5 -157.5t349.5 -274.5t244.5 -364.5t124.5 -425.5z" />
    <glyph glyph-name="twentyone.three" 
d="M-1628 1376l268 1403q193 -37 367 -123.5t312 -211t242 -278.5t164.5 -333t72.5 -368z" />
    <glyph glyph-name="twentytwo.three" 
d="M-1628 1376l268 1403q252 -48 469 -180t368 -318t237 -421t86 -484h-1428z" />
    <glyph glyph-name="twentythree.three" 
d="M-1628 1376l268 1403q211 -40 398.5 -139t331 -242.5t245 -319t149 -379t33.5 -413.5z" />
    <glyph glyph-name="twentyfour.three" 
d="M-1628 1376l268 1403q183 -35 349.5 -115t300.5 -193t239 -258.5t170 -307.5t89 -344t1 -365z" />
    <glyph glyph-name="twentyfive.three" 
d="M-1628 1376l268 1403q164 -31 314.5 -98.5t274.5 -162t229 -215.5t176 -259t115.5 -292t49.5 -315.5t-24 -328.5z" />
    <glyph glyph-name="twentysix.three" 
d="M-1628 1376l268 1403q164 -31 314.5 -98.5t274.5 -162t229 -215.5t176 -259t115.5 -292t49.5 -315.5t-24 -328.5q-7 -36 -20 -89z" />
    <glyph glyph-name="twentyseven.three" 
d="M-1628 1376l268 1403q164 -31 314.5 -98.5t274.5 -162t229 -215.5t176 -259t115.5 -292t49.5 -315.5t-24 -328.5q-18 -90 -45 -173z" />
    <glyph glyph-name="twentyeight.three" 
d="M-1628 1376l268 1403q164 -31 314.5 -98.5t274.5 -162t229 -215.5t176 -259t115.5 -292t49.5 -315.5t-24 -328.5q-24 -128 -75 -258z" />
    <glyph glyph-name="twentynine.three" 
d="M-1628 1376l268 1403q164 -31 314.5 -98.5t274.5 -162t229 -215.5t176 -259t115.5 -292t49.5 -315.5t-24 -328.5q-34 -176 -111 -340z" />
    <glyph glyph-name="thirty.three" 
d="M-376 688l-1252 688l268 1403q164 -31 314.5 -98.5t274.5 -162t229 -215.5t176 -259t115.5 -292t49.5 -315.5t-24 -328.5q-43 -222 -151 -420z" />
    <glyph glyph-name="thirtyone.three" 
d="M-1628 1376l268 1403q164 -31 314.5 -98.5t274.5 -162t229 -215.5t176 -259t115.5 -292t49.5 -315.5t-24 -328.5q-52 -269 -197 -498z" />
    <glyph glyph-name="thirtytwo.three" 
d="M-1628 1376l268 1403q164 -31 314.5 -98.5t274.5 -162t229 -215.5t176 -259t115.5 -292t49.5 -315.5t-24 -328.5q-60 -313 -248 -571z" />
    <glyph glyph-name="thirtythree.three" 
d="M-1628 1376l268 1403q164 -31 314.5 -98.5t274.5 -162t229 -215.5t176 -259t115.5 -292t49.5 -315.5t-24 -328.5q-69 -360 -303 -642z" />
    <glyph glyph-name="thirtyfour.three" 
d="M-1628 1376l268 1403q164 -31 314.5 -98.5t274.5 -162t229 -215.5t176 -259t115.5 -292t49.5 -315.5t-24 -328.5q-78 -407 -363 -709z" />
    <glyph glyph-name="thirtyfive.three" 
d="M-1628 1376l268 1403q164 -31 314.5 -98.5t274.5 -162t229 -215.5t176 -259t115.5 -292t49.5 -315.5t-24 -328.5q-44 -227 -153.5 -424t-272.5 -348z" />
    <glyph glyph-name="thirtysix.three" 
d="M-1628 1376l268 1403q164 -31 314.5 -98.5t274.5 -162t229 -215.5t176 -259t115.5 -292t49.5 -315.5t-24 -328.5q-48 -251 -175.5 -463t-317.5 -368z" />
    <glyph glyph-name="thirtyseven.three" 
d="M-789 222l-839 1154l268 1403q164 -31 314.5 -98.5t274.5 -162t229 -215.5t176 -259t115.5 -292t49.5 -315.5t-24 -328.5q-52 -273 -199.5 -500.5t-364.5 -385.5z" />
    <glyph glyph-name="thirtyeight.three" 
d="M-1628 1376l268 1403q164 -31 314.5 -98.5t274.5 -162t229 -215.5t176 -259t115.5 -292t49.5 -315.5t-24 -328.5q-57 -297 -224.5 -539t-413.5 -397z" />
    <glyph glyph-name="thirtynine.three" 
d="M-1628 1376l268 1403q164 -31 314.5 -98.5t274.5 -162t229 -215.5t176 -259t115.5 -292t49.5 -315.5t-24 -328.5q-61 -320 -251 -575t-465 -406z" />
    <glyph glyph-name="fourty.three" 
d="M-1021 86l-607 1290l268 1403q164 -31 314.5 -98.5t274.5 -162t229 -215.5t176 -259t115.5 -292t49.5 -315.5t-24 -328.5q-66 -343 -278.5 -611t-517.5 -411z" />
    <glyph glyph-name="fourtyone.three" 
d="M-1103 51l-525 1325l268 1403q164 -31 314.5 -98.5t274.5 -162t229 -215.5t176 -259t115.5 -292t49.5 -315.5t-24 -328.5q-70 -367 -306 -646t-572 -411z" />
    <glyph glyph-name="fourtytwo.three" 
d="M-1188 20l-440 1356l268 1403q164 -31 314.5 -98.5t274.5 -162t229 -215.5t176 -259t115.5 -292t49.5 -315.5t-24 -328.5q-75 -390 -336 -680t-627 -408z" />
    <glyph glyph-name="fourtythree.three" 
d="M-1274 -4l-354 1380l268 1403q164 -31 314.5 -98.5t274.5 -162t229 -215.5t176 -259t115.5 -292t49.5 -315.5t-24 -328.5q-53 -275 -203.5 -506t-368 -385.5t-477.5 -220.5z" />
    <glyph glyph-name="fourtyfour.three" 
d="M-1361 -24l-267 1400l268 1403q164 -31 314.5 -98.5t274.5 -162t229 -215.5t176 -259t115.5 -292t49.5 -315.5t-24 -328.5q-55 -291 -219 -531t-401 -394t-516 -207z" />
    <glyph glyph-name="fourtyfive.three" 
d="M-1449 -38l-179 1414l268 1403q164 -31 314.5 -98.5t274.5 -162t229 -215.5t176 -259t115.5 -292t49.5 -315.5t-24 -328.5q-44 -229 -157.5 -430t-275 -348.5t-365.5 -243.5t-426 -124z" />
    <glyph glyph-name="fourtysix.three" 
d="M-1539 -46l-89 1422l268 1403q164 -31 314.5 -98.5t274.5 -162t229 -215.5t176 -259t115.5 -292t49.5 -315.5t-24 -328.5q-46 -241 -169 -450t-296.5 -358.5t-393 -240.5t-455.5 -105z" />
    <glyph glyph-name="fourtyseven.three" 
d="M-1628 -48v1424l268 1403q164 -31 314.5 -98.5t274.5 -162t229 -215.5t176 -259t115.5 -292t49.5 -315.5t-24 -328.5q-39 -202 -131.5 -382.5t-226 -321t-298.5 -243t-356.5 -156.5t-390.5 -53z" />
    <glyph glyph-name="fourtyeight.three" 
d="M-1718 -45l90 1421l268 1403q164 -31 314.5 -98.5t274.5 -162t229 -215.5t176 -259t115.5 -292t49.5 -315.5t-24 -328.5q-40 -211 -139 -398t-242.5 -330t-319 -244t-379 -148t-413.5 -33z" />
    <glyph glyph-name="fourtynine.three" 
d="M-1807 -37l179 1413l268 1403q164 -31 314.5 -98.5t274.5 -162t229 -215.5t176 -259t115.5 -292t49.5 -315.5t-24 -328.5q-42 -220 -147 -413.5t-258 -339t-339.5 -244.5t-402.5 -137.5t-435 -10.5z" />
    <glyph glyph-name="fifty.three" 
d="M-1895 -23l535 2802q164 -31 314.5 -98.5t274.5 -162t229 -215.5t176 -259t115.5 -292t49.5 -315.5t-24 -328.5q-27 -143 -82.5 -276.5t-132 -247t-174.5 -213t-211 -174.5t-240.5 -131t-263 -83t-278.5 -31t-288 25z" />
    <glyph glyph-name="fiftyone.three" 
d="M-1895 -23q-41 8 -87 20l354 1379l268 1403q164 -31 314.5 -98.5t274.5 -162t229 -215.5t176 -259t115.5 -292t49.5 -315.5t-24 -328.5q-27 -143 -82.5 -276.5t-132 -247t-174.5 -213t-211 -174.5t-240.5 -131t-263 -83t-278.5 -31t-288 25z" />
    <glyph glyph-name="fiftytwo.three" 
d="M-1895 -23q-79 15 -173 45l440 1354l268 1403q164 -31 314.5 -98.5t274.5 -162t229 -215.5t176 -259t115.5 -292t49.5 -315.5t-24 -328.5q-27 -143 -82.5 -276.5t-132 -247t-174.5 -213t-211 -174.5t-240.5 -131t-263 -83t-278.5 -31t-288 25z" />
    <glyph glyph-name="fiftythree.three" 
d="M-1895 -23q-129 24 -257 75l524 1324l268 1403q164 -31 314.5 -98.5t274.5 -162t229 -215.5t176 -259t115.5 -292t49.5 -315.5t-24 -328.5q-27 -143 -82.5 -276.5t-132 -247t-174.5 -213t-211 -174.5t-240.5 -131t-263 -83t-278.5 -31t-288 25z" />
    <glyph glyph-name="fiftyfour.three" 
d="M-1895 -23q-173 33 -339 110l606 1289l268 1403q164 -31 314.5 -98.5t274.5 -162t229 -215.5t176 -259t115.5 -292t49.5 -315.5t-24 -328.5q-27 -143 -82.5 -276.5t-132 -247t-174.5 -213t-211 -174.5t-240.5 -131t-263 -83t-278.5 -31t-288 25z" />
    <glyph glyph-name="fiftyfive.three" 
d="M-1895 -23q-222 43 -420 151l687 1248l268 1403q164 -31 314.5 -98.5t274.5 -162t229 -215.5t176 -259t115.5 -292t49.5 -315.5t-24 -328.5q-27 -143 -82.5 -276.5t-132 -247t-174.5 -213t-211 -174.5t-240.5 -131t-263 -83t-278.5 -31t-288 25z" />
    <glyph glyph-name="fiftysix.three" 
d="M-1895 -23q-267 51 -497 196l764 1203l268 1403q164 -31 314.5 -98.5t274.5 -162t229 -215.5t176 -259t115.5 -292t49.5 -315.5t-24 -328.5q-27 -143 -82.5 -276.5t-132 -247t-174.5 -213t-211 -174.5t-240.5 -131t-263 -83t-278.5 -31t-288 25z" />
    <glyph glyph-name="fiftyseven.three" 
d="M-1895 -23q-314 61 -570 246l837 1153l268 1403q164 -31 314.5 -98.5t274.5 -162t229 -215.5t176 -259t115.5 -292t49.5 -315.5t-24 -328.5q-27 -143 -82.5 -276.5t-132 -247t-174.5 -213t-211 -174.5t-240.5 -131t-263 -83t-278.5 -31t-288 25z" />
    <glyph glyph-name="fiftyeight.three" 
d="M-1895 -23q-361 69 -641 301l908 1098l268 1403q164 -31 314.5 -98.5t274.5 -162t229 -215.5t176 -259t115.5 -292t49.5 -315.5t-24 -328.5q-27 -143 -82.5 -276.5t-132 -247t-174.5 -213t-211 -174.5t-240.5 -131t-263 -83t-278.5 -31t-288 25z" />
    <glyph glyph-name="fiftynine.three" 
d="M-1895 -23q-407 78 -709 361l976 1038l268 1403q164 -31 314.5 -98.5t274.5 -162t229 -215.5t176 -259t115.5 -292t49.5 -315.5t-24 -328.5q-27 -143 -82.5 -276.5t-132 -247t-174.5 -213t-211 -174.5t-240.5 -131t-263 -83t-278.5 -31t-288 25z" />
    <glyph glyph-name="sixty.three" 
d="M-1895 -23q-227 44 -423.5 153t-348.5 271l1039 975l268 1403q164 -31 314.5 -98.5t274.5 -162t229 -215.5t176 -259t115.5 -292t49.5 -315.5t-24 -328.5q-27 -143 -82.5 -276.5t-132 -247t-174.5 -213t-211 -174.5t-240.5 -131t-263 -83t-278.5 -31t-288 25z" />
    <glyph glyph-name="sixtyone.three" 
d="M-1895 -23q-250 48 -462.5 175.5t-368.5 315.5l1098 908l268 1403q164 -31 314.5 -98.5t274.5 -162t229 -215.5t176 -259t115.5 -292t49.5 -315.5t-24 -328.5q-27 -143 -82.5 -276.5t-132 -247t-174.5 -213t-211 -174.5t-240.5 -131t-263 -83t-278.5 -31t-288 25z" />
    <glyph glyph-name="sixtytwo.three" 
d="M-1895 -23q-274 52 -501.5 199t-384.5 363l1153 837l268 1403q164 -31 314.5 -98.5t274.5 -162t229 -215.5t176 -259t115.5 -292t49.5 -315.5t-24 -328.5q-27 -143 -82.5 -276.5t-132 -247t-174.5 -213t-211 -174.5t-240.5 -131t-263 -83t-278.5 -31t-288 25z" />
    <glyph glyph-name="sixtythree.three" 
d="M-1895 -23q-297 57 -539 224t-397 412l1203 763l268 1403q164 -31 314.5 -98.5t274.5 -162t229 -215.5t176 -259t115.5 -292t49.5 -315.5t-24 -328.5q-27 -143 -82.5 -276.5t-132 -247t-174.5 -213t-211 -174.5t-240.5 -131t-263 -83t-278.5 -31t-288 25z" />
    <glyph glyph-name="sixtyfour.three" 
d="M-1895 -23q-321 61 -576 250t-406 463l1249 686l268 1403q164 -31 314.5 -98.5t274.5 -162t229 -215.5t176 -259t115.5 -292t49.5 -315.5t-24 -328.5q-27 -143 -82.5 -276.5t-132 -247t-174.5 -213t-211 -174.5t-240.5 -131t-263 -83t-278.5 -31t-288 25z" />
    <glyph glyph-name="sixtyfive.three" 
d="M-1895 -23q-343 66 -611 277.5t-412 515.5l1290 606l268 1403q164 -31 314.5 -98.5t274.5 -162t229 -215.5t176 -259t115.5 -292t49.5 -315.5t-24 -328.5q-27 -143 -82.5 -276.5t-132 -247t-174.5 -213t-211 -174.5t-240.5 -131t-263 -83t-278.5 -31t-288 25z" />
    <glyph glyph-name="sixtysix.three" 
d="M-1895 -23q-367 70 -646 305t-411 569l1324 525l268 1403q164 -31 314.5 -98.5t274.5 -162t229 -215.5t176 -259t115.5 -292t49.5 -315.5t-24 -328.5q-27 -143 -82.5 -276.5t-132 -247t-174.5 -213t-211 -174.5t-240.5 -131t-263 -83t-278.5 -31t-288 25z" />
    <glyph glyph-name="sixtyseven.three" 
d="M-1895 -23q-391 75 -680.5 334.5t-407.5 624.5l1355 440l268 1403q164 -31 314.5 -98.5t274.5 -162t229 -215.5t176 -259t115.5 -292t49.5 -315.5t-24 -328.5q-27 -143 -82.5 -276.5t-132 -247t-174.5 -213t-211 -174.5t-240.5 -131t-263 -83t-278.5 -31t-288 25z" />
    <glyph glyph-name="sixtyeight.three" 
d="M-1895 -23q-207 39 -391.5 135.5t-326.5 233t-244 309.5t-151 367l1380 354l268 1403q164 -31 314.5 -98.5t274.5 -162t229 -215.5t176 -259t115.5 -292t49.5 -315.5t-24 -328.5q-27 -143 -82.5 -276.5t-132 -247t-174.5 -213t-211 -174.5t-240.5 -131t-263 -83
t-278.5 -31t-288 25z" />
    <glyph glyph-name="sixtynine.three" 
d="M-1895 -23q-290 56 -530.5 218.5t-395 398.5t-206.5 514l1399 268l268 1403q164 -31 314.5 -98.5t274.5 -162t229 -215.5t176 -259t115.5 -292t49.5 -315.5t-24 -328.5q-27 -143 -82.5 -276.5t-132 -247t-174.5 -213t-211 -174.5t-240.5 -131t-263 -83t-278.5 -31
t-288 25z" />
    <glyph glyph-name="seventy.three" 
d="M-1895 -23q-230 44 -431 157.5t-348.5 274t-243.5 364t-124 425.5l1414 178l268 1403q164 -31 314.5 -98.5t274.5 -162t229 -215.5t176 -259t115.5 -292t49.5 -315.5t-24 -328.5q-27 -143 -82.5 -276.5t-132 -247t-174.5 -213t-211 -174.5t-240.5 -131t-263 -83
t-278.5 -31t-288 25z" />
    <glyph glyph-name="seventyone.three" 
d="M-1895 -23q-241 46 -450 168.5t-358.5 295t-240.5 391t-106 454.5l1422 90l268 1403q164 -31 314.5 -98.5t274.5 -162t229 -215.5t176 -259t115.5 -292t49.5 -315.5t-24 -328.5q-27 -143 -82.5 -276.5t-132 -247t-174.5 -213t-211 -174.5t-240.5 -131t-263 -83
t-278.5 -31t-288 25z" />
    <glyph glyph-name="seventytwo.three" 
d="M-1895 -23q-252 48 -468.5 179.5t-367.5 316.5t-236 419t-85 483l1424 1l268 1403q164 -31 314.5 -98.5t274.5 -162t229 -215.5t176 -259t115.5 -292t49.5 -315.5t-24 -328.5q-27 -143 -82.5 -276.5t-132 -247t-174.5 -213t-211 -174.5t-240.5 -131t-263 -83t-278.5 -31
t-288 25z" />
    <glyph glyph-name="seventythree.three" 
d="M-1895 -23q-211 40 -398.5 138.5t-330.5 241.5t-244 318t-148 378t-33 413l1421 -90l268 1403q164 -31 314.5 -98.5t274.5 -162t229 -215.5t176 -259t115.5 -292t49.5 -315.5t-24 -328.5q-27 -143 -82.5 -276.5t-132 -247t-174.5 -213t-211 -174.5t-240.5 -131t-263 -83
t-278.5 -31t-288 25z" />
    <glyph glyph-name="seventyfour.three" 
d="M-1895 -23q-183 35 -349.5 115t-299.5 192t-238 256.5t-169.5 306t-88.5 342.5t-1 364l1413 -177l268 1403q164 -31 314.5 -98.5t274.5 -162t229 -215.5t176 -259t115.5 -292t49.5 -315.5t-24 -328.5q-27 -143 -82.5 -276.5t-132 -247t-174.5 -213t-211 -174.5
t-240.5 -131t-263 -83t-278.5 -31t-288 25z" />
    <glyph glyph-name="seventyfive.three" 
d="M-3027 1643l1399 -267l268 1403q164 -31 314.5 -98.5t274.5 -162t229 -215.5t176 -259t115.5 -292t49.5 -315.5t-24 -328.5q-27 -143 -82.5 -276.5t-132 -247t-174.5 -213t-211 -174.5t-240.5 -131t-263 -83t-278.5 -31t-288 25q-164 31 -314.5 98t-274.5 161.5
t-228 214.5t-175 258t-115.5 291.5t-49 314.5t24.5 328z" />
    <glyph glyph-name="seventysix.three" 
d="M-3007 1730l1379 -354l268 1403q164 -31 314.5 -98.5t274.5 -162t229 -215.5t176 -259t115.5 -292t49.5 -315.5t-24 -328.5q-27 -143 -82.5 -276.5t-132 -247t-174.5 -213t-211 -174.5t-240.5 -131t-263 -83t-278.5 -31t-288 25q-164 31 -314.5 98t-274.5 161.5
t-228 214.5t-175 258t-115.5 291.5t-49 314.5t24.5 328q6 29 20 87z" />
    <glyph glyph-name="seventyseven.three" 
d="M-2982 1816l1354 -440l268 1403q164 -31 314.5 -98.5t274.5 -162t229 -215.5t176 -259t115.5 -292t49.5 -315.5t-24 -328.5q-27 -143 -82.5 -276.5t-132 -247t-174.5 -213t-211 -174.5t-240.5 -131t-263 -83t-278.5 -31t-288 25q-164 31 -314.5 98t-274.5 161.5
t-228 214.5t-175 258t-115.5 291.5t-49 314.5t24.5 328q15 79 45 173z" />
    <glyph glyph-name="seventyeight.three" 
d="M-1628 1376l268 1403q164 -31 314.5 -98.5t274.5 -162t229 -215.5t176 -259t115.5 -292t49.5 -315.5t-24 -328.5q-27 -143 -82.5 -276.5t-132 -247t-174.5 -213t-211 -174.5t-240.5 -131t-263 -83t-278.5 -31t-288 25q-164 31 -314.5 98t-274.5 161.5t-228 214.5
t-175 258t-115.5 291.5t-49 314.5t24.5 328q25 130 75 257z" />
    <glyph glyph-name="seventynine.three" 
d="M-1628 1376l268 1403q164 -31 314.5 -98.5t274.5 -162t229 -215.5t176 -259t115.5 -292t49.5 -315.5t-24 -328.5q-27 -143 -82.5 -276.5t-132 -247t-174.5 -213t-211 -174.5t-240.5 -131t-263 -83t-278.5 -31t-288 25q-164 31 -314.5 98t-274.5 161.5t-228 214.5
t-175 258t-115.5 291.5t-49 314.5t24.5 328q34 178 110 339z" />
    <glyph glyph-name="eighty.three" 
d="M-1628 1376l268 1403q164 -31 314.5 -98.5t274.5 -162t229 -215.5t176 -259t115.5 -292t49.5 -315.5t-24 -328.5q-27 -143 -82.5 -276.5t-132 -247t-174.5 -213t-211 -174.5t-240.5 -131t-263 -83t-278.5 -31t-288 25q-164 31 -314.5 98t-274.5 161.5t-228 214.5
t-175 258t-115.5 291.5t-49 314.5t24.5 328q42 221 151 421z" />
    <glyph glyph-name="eightyone.three" 
d="M-1628 1376l268 1403q164 -31 314.5 -98.5t274.5 -162t229 -215.5t176 -259t115.5 -292t49.5 -315.5t-24 -328.5q-27 -143 -82.5 -276.5t-132 -247t-174.5 -213t-211 -174.5t-240.5 -131t-263 -83t-278.5 -31t-288 25q-164 31 -314.5 98t-274.5 161.5t-228 214.5
t-175 258t-115.5 291.5t-49 314.5t24.5 328q51 268 196 496z" />
    <glyph glyph-name="eightytwo.three" 
d="M-2781 2214l1153 -838l268 1403q164 -31 314.5 -98.5t274.5 -162t229 -215.5t176 -259t115.5 -292t49.5 -315.5t-24 -328.5q-27 -143 -82.5 -276.5t-132 -247t-174.5 -213t-211 -174.5t-240.5 -131t-263 -83t-278.5 -31t-288 25q-164 31 -314.5 98t-274.5 161.5
t-228 214.5t-175 258t-115.5 291.5t-49 314.5t24.5 328q60 314 246 571z" />
    <glyph glyph-name="eightythree.three" 
d="M-2726 2284l1098 -908l268 1403q164 -31 314.5 -98.5t274.5 -162t229 -215.5t176 -259t115.5 -292t49.5 -315.5t-24 -328.5q-27 -143 -82.5 -276.5t-132 -247t-174.5 -213t-211 -174.5t-240.5 -131t-263 -83t-278.5 -31t-288 25q-164 31 -314.5 98t-274.5 161.5
t-228 214.5t-175 258t-115.5 291.5t-49 314.5t24.5 328q70 361 301 641z" />
    <glyph glyph-name="eightyfour.three" 
d="M-1628 1376l268 1403q164 -31 314.5 -98.5t274.5 -162t229 -215.5t176 -259t115.5 -292t49.5 -315.5t-24 -328.5q-27 -143 -82.5 -276.5t-132 -247t-174.5 -213t-211 -174.5t-240.5 -131t-263 -83t-278.5 -31t-288 25q-164 31 -314.5 98t-274.5 161.5t-228 214.5
t-175 258t-115.5 291.5t-49 314.5t24.5 328q78 407 359 708z" />
    <glyph glyph-name="eightyfive.three" 
d="M-2604 2415l976 -1039l268 1403q164 -31 314.5 -98.5t274.5 -162t229 -215.5t176 -259t115.5 -292t49.5 -315.5t-24 -328.5q-27 -143 -82.5 -276.5t-132 -247t-174.5 -213t-211 -174.5t-240.5 -131t-263 -83t-278.5 -31t-288 25q-164 31 -314.5 98t-274.5 161.5
t-228 214.5t-175 258t-115.5 291.5t-49 314.5t24.5 328q44 227 153 423.5t270 348.5z" />
    <glyph glyph-name="eightysix.three" 
d="M-1628 1376l268 1403q164 -31 314.5 -98.5t274.5 -162t229 -215.5t176 -259t115.5 -292t49.5 -315.5t-24 -328.5q-27 -143 -82.5 -276.5t-132 -247t-174.5 -213t-211 -174.5t-240.5 -131t-263 -83t-278.5 -31t-288 25q-164 31 -314.5 98t-274.5 161.5t-228 214.5
t-175 258t-115.5 291.5t-49 314.5t24.5 328q48 250 175 462.5t315 368.5z" />
    <glyph glyph-name="eightyseven.three" 
d="M-1628 1376l268 1403q164 -31 314.5 -98.5t274.5 -162t229 -215.5t176 -259t115.5 -292t49.5 -315.5t-24 -328.5q-27 -143 -82.5 -276.5t-132 -247t-174.5 -213t-211 -174.5t-240.5 -131t-263 -83t-278.5 -31t-288 25q-164 31 -314.5 98t-274.5 161.5t-228 214.5
t-175 258t-115.5 291.5t-49 314.5t24.5 328q52 273 198.5 501t362.5 386z" />
    <glyph glyph-name="eightyeight.three" 
d="M-2391 2581l763 -1205l268 1403q164 -31 314.5 -98.5t274.5 -162t229 -215.5t176 -259t115.5 -292t49.5 -315.5t-24 -328.5q-27 -143 -82.5 -276.5t-132 -247t-174.5 -213t-211 -174.5t-240.5 -131t-263 -83t-278.5 -31t-288 25q-164 31 -314.5 98t-274.5 161.5
t-228 214.5t-175 258t-115.5 291.5t-49 314.5t24.5 328q57 297 224 539t412 399z" />
    <glyph glyph-name="eightynine.three" 
d="M-2315 2626l687 -1250l268 1403q164 -31 314.5 -98.5t274.5 -162t229 -215.5t176 -259t115.5 -292t49.5 -315.5t-24 -328.5q-27 -143 -82.5 -276.5t-132 -247t-174.5 -213t-211 -174.5t-240.5 -131t-263 -83t-278.5 -31t-288 25q-164 31 -314.5 98t-274.5 161.5
t-228 214.5t-175 258t-115.5 291.5t-49 314.5t24.5 328q61 320 249.5 576t462.5 407z" />
    <glyph glyph-name="ninety.three" 
d="M-1628 1376l268 1403q164 -31 314.5 -98.5t274.5 -162t229 -215.5t176 -259t115.5 -292t49.5 -315.5t-24 -328.5q-27 -143 -82.5 -276.5t-132 -247t-174.5 -213t-211 -174.5t-240.5 -131t-263 -83t-278.5 -31t-288 25q-164 31 -314.5 98t-274.5 161.5t-228 214.5
t-175 258t-115.5 291.5t-49 314.5t24.5 328q66 343 277 611t515 413z" />
    <glyph glyph-name="ninetyone.three" 
d="M-1628 1376l268 1403q164 -31 314.5 -98.5t274.5 -162t229 -215.5t176 -259t115.5 -292t49.5 -315.5t-24 -328.5q-27 -143 -82.5 -276.5t-132 -247t-174.5 -213t-211 -174.5t-240.5 -131t-263 -83t-278.5 -31t-288 25q-164 31 -314.5 98t-274.5 161.5t-228 214.5
t-175 258t-115.5 291.5t-49 314.5t24.5 328q70 367 305 646.5t569 413.5z" />
    <glyph glyph-name="ninetytwo.three" 
d="M-2069 2734l441 -1358l268 1403q164 -31 314.5 -98.5t274.5 -162t229 -215.5t176 -259t115.5 -292t49.5 -315.5t-24 -328.5q-27 -143 -82.5 -276.5t-132 -247t-174.5 -213t-211 -174.5t-240.5 -131t-263 -83t-278.5 -31t-288 25q-164 31 -314.5 98t-274.5 161.5
t-228 214.5t-175 258t-115.5 291.5t-49 314.5t24.5 328q75 390 334.5 680.5t623.5 410.5z" />
    <glyph glyph-name="ninetythree.three" 
d="M-3027 1643q39 207 135.5 391.5t233 327t309.5 245t366 152.5l355 -1383l268 1403q164 -31 314.5 -98.5t274.5 -162t229 -215.5t176 -259t115.5 -292t49.5 -315.5t-24 -328.5q-27 -143 -82.5 -276.5t-132 -247t-174.5 -213t-211 -174.5t-240.5 -131t-263 -83t-278.5 -31
t-288 25q-164 31 -314.5 98t-274.5 161.5t-228 214.5t-175 258t-115.5 291.5t-49 314.5t24.5 328z" />
    <glyph glyph-name="ninetyfour.three" 
d="M-1628 1376l268 1403q164 -31 314.5 -98.5t274.5 -162t229 -215.5t176 -259t115.5 -292t49.5 -315.5t-24 -328.5q-27 -143 -82.5 -276.5t-132 -247t-174.5 -213t-211 -174.5t-240.5 -131t-263 -83t-278.5 -31t-288 25q-164 31 -314.5 98t-274.5 161.5t-228 214.5
t-175 258t-115.5 291.5t-49 314.5t24.5 328q42 218 146.5 411t253 338.5t336 245.5t395.5 140z" />
    <glyph glyph-name="ninetyfive.three" 
d="M-1807 2793l179 -1417l268 1403q164 -31 314.5 -98.5t274.5 -162t229 -215.5t176 -259t115.5 -292t49.5 -315.5t-24 -328.5q-27 -143 -82.5 -276.5t-132 -247t-174.5 -213t-211 -174.5t-240.5 -131t-263 -83t-278.5 -31t-288 25q-164 31 -314.5 98t-274.5 161.5
t-228 214.5t-175 258t-115.5 291.5t-49 314.5t24.5 328q44 229 157 430.5t274 350t364 245t425 124.5z" />
    <glyph glyph-name="ninetysix.three" 
d="M-1628 1376l268 1403q164 -31 314.5 -98.5t274.5 -162t229 -215.5t176 -259t115.5 -292t49.5 -315.5t-24 -328.5q-27 -143 -82.5 -276.5t-132 -247t-174.5 -213t-211 -174.5t-240.5 -131t-263 -83t-278.5 -31t-288 25q-164 31 -314.5 98t-274.5 161.5t-228 214.5
t-175 258t-115.5 291.5t-49 314.5t24.5 328q46 241 168.5 450t295 359.5t391 242t454.5 106.5z" />
    <glyph glyph-name="ninetyseven.three" 
d="M-1628 2804v-1428l268 1403q164 -31 314.5 -98.5t274.5 -162t229 -215.5t176 -259t115.5 -292t49.5 -315.5t-24 -328.5q-27 -143 -82.5 -276.5t-132 -247t-174.5 -213t-211 -174.5t-240.5 -131t-263 -83t-278.5 -31t-288 25q-164 31 -314.5 98t-274.5 161.5t-228 214.5
t-175 258t-115.5 291.5t-49 314.5t24.5 328q64 336 269 602t501 412.5t629 146.5z" />
    <glyph glyph-name="one.four" 
d="M-1628 1376l355 1383q49 -12 86 -25z" />
    <glyph glyph-name="two.four" 
d="M-1628 1376l355 1383q96 -24 173 -56z" />
    <glyph glyph-name="three.four" 
d="M-1628 1376l355 1383q135 -35 253 -91z" />
    <glyph glyph-name="four.four" 
d="M-1628 1376l355 1383q181 -47 333 -132z" />
    <glyph glyph-name="five.four" 
d="M-1628 1376l355 1383q218 -56 411 -177z" />
    <glyph glyph-name="six.four" 
d="M-1628 1376l355 1383q263 -67 484 -227z" />
    <glyph glyph-name="seven.four" 
d="M-718 2476l-910 -1100l355 1383q311 -80 555 -283z" />
    <glyph glyph-name="eight.four" 
d="M-1628 1376l355 1383q358 -92 622 -342z" />
    <glyph glyph-name="nine.four" 
d="M-1628 1376l355 1383q402 -103 685 -405z" />
    <glyph glyph-name="ten.four" 
d="M-1628 1376l355 1383q223 -58 413 -179.5t332 -292.5z" />
    <glyph glyph-name="eleven.four" 
d="M-1628 1376l355 1383q247 -63 451 -204t349 -339z" />
    <glyph glyph-name="twelve.four" 
d="M-1628 1376l355 1383q269 -69 487.5 -230t362.5 -387z" />
    <glyph glyph-name="thirteen.four" 
d="M-1628 1376l355 1383q293 -75 524.5 -257.5t371.5 -437.5z" />
    <glyph glyph-name="fourteen.four" 
d="M-1628 1376l355 1383q316 -81 559.5 -286t377.5 -489z" />
    <glyph glyph-name="fifteen.four" 
d="M-1628 1376l355 1383q339 -87 593 -315t379 -542z" />
    <glyph glyph-name="sixteen.four" 
d="M-1628 1376l355 1383q362 -93 627 -346t376 -597z" />
    <glyph glyph-name="seventeen.four" 
d="M-1628 1376l355 1383q385 -99 658.5 -377.5t369.5 -650.5z" />
    <glyph glyph-name="eighteen.four" 
d="M-1628 1376l355 1383q272 -70 493.5 -234t362.5 -391t192 -490z" />
    <glyph glyph-name="nineteen.four" 
d="M-1628 1376l355 1383q287 -74 517 -252t369.5 -424t175.5 -528z" />
    <glyph glyph-name="twenty.four" 
d="M-1628 1376l355 1383q301 -77 539 -269t375.5 -457.5t156.5 -564.5z" />
    <glyph glyph-name="twentyone.four" 
d="M-1628 1376l355 1383q238 -61 439.5 -196.5t340 -318t216 -407.5t77.5 -461h-1428z" />
    <glyph glyph-name="twentytwo.four" 
d="M-1628 1376l355 1383q199 -51 374 -154.5t307 -246t224.5 -313t135 -365t29.5 -393.5z" />
    <glyph glyph-name="twentythree.four" 
d="M-1628 1376l355 1383q208 -53 389 -163.5t315.5 -262.5t224.5 -334t124.5 -388t8.5 -414z" />
    <glyph glyph-name="twentyfour.four" 
d="M-1628 1376l355 1383q136 -35 261.5 -95t231.5 -139t198 -177t161 -209t120 -235t75 -254.5t26.5 -267.5t-25.5 -274z" />
    <glyph glyph-name="twentyfive.four" 
d="M-1628 1376l355 1383q161 -41 307 -117.5t265 -179.5t214.5 -228.5t159.5 -270t97.5 -298t29.5 -318.5t-45 -326z" />
    <glyph glyph-name="twentysix.four" 
d="M-1628 1376l355 1383q161 -41 307 -117.5t265 -179.5t214.5 -228.5t159.5 -270t97.5 -298t29.5 -318.5t-45 -326q-7 -30 -25 -88z" />
    <glyph glyph-name="twentyseven.four" 
d="M-1628 1376l355 1383q161 -41 307 -117.5t265 -179.5t214.5 -228.5t159.5 -270t97.5 -298t29.5 -318.5t-45 -326q-21 -81 -55 -171z" />
    <glyph glyph-name="twentyeight.four" 
d="M-1628 1376l355 1383q161 -41 307 -117.5t265 -179.5t214.5 -228.5t159.5 -270t97.5 -298t29.5 -318.5t-45 -326q-35 -137 -91 -254z" />
    <glyph glyph-name="twentynine.four" 
d="M-1628 1376l355 1383q161 -41 307 -117.5t265 -179.5t214.5 -228.5t159.5 -270t97.5 -298t29.5 -318.5t-45 -326q-47 -181 -132 -333z" />
    <glyph glyph-name="thirty.four" 
d="M-422 611l-1206 765l355 1383q161 -41 307 -117.5t265 -179.5t214.5 -228.5t159.5 -270t97.5 -298t29.5 -318.5t-45 -326q-56 -219 -177 -410z" />
    <glyph glyph-name="thirtyone.four" 
d="M-1628 1376l355 1383q161 -41 307 -117.5t265 -179.5t214.5 -228.5t159.5 -270t97.5 -298t29.5 -318.5t-45 -326q-67 -264 -228 -485z" />
    <glyph glyph-name="thirtytwo.four" 
d="M-1628 1376l355 1383q161 -41 307 -117.5t265 -179.5t214.5 -228.5t159.5 -270t97.5 -298t29.5 -318.5t-45 -326q-79 -309 -283 -555z" />
    <glyph glyph-name="thirtythree.four" 
d="M-1628 1376l355 1383q161 -41 307 -117.5t265 -179.5t214.5 -228.5t159.5 -270t97.5 -298t29.5 -318.5t-45 -326q-92 -356 -342 -622z" />
    <glyph glyph-name="thirtyfour.four" 
d="M-1628 1376l355 1383q161 -41 307 -117.5t265 -179.5t214.5 -228.5t159.5 -270t97.5 -298t29.5 -318.5t-45 -326q-103 -403 -406 -685z" />
    <glyph glyph-name="thirtyfive.four" 
d="M-1628 1376l355 1383q161 -41 307 -117.5t265 -179.5t214.5 -228.5t159.5 -270t97.5 -298t29.5 -318.5t-45 -326q-58 -224 -179.5 -413.5t-293.5 -330.5z" />
    <glyph glyph-name="thirtysix.four" 
d="M-1628 1376l355 1383q161 -41 307 -117.5t265 -179.5t214.5 -228.5t159.5 -270t97.5 -298t29.5 -318.5t-45 -326q-63 -247 -204 -451t-340 -348z" />
    <glyph glyph-name="thirtyseven.four" 
d="M-863 172l-765 1204l355 1383q161 -41 307 -117.5t265 -179.5t214.5 -228.5t159.5 -270t97.5 -298t29.5 -318.5t-45 -326q-69 -270 -230 -488t-388 -361z" />
    <glyph glyph-name="thirtyeight.four" 
d="M-1628 1376l355 1383q161 -41 307 -117.5t265 -179.5t214.5 -228.5t159.5 -270t97.5 -298t29.5 -318.5t-45 -326q-75 -293 -257.5 -524t-437.5 -371z" />
    <glyph glyph-name="thirtynine.four" 
d="M-1628 1376l355 1383q161 -41 307 -117.5t265 -179.5t214.5 -228.5t159.5 -270t97.5 -298t29.5 -318.5t-45 -326q-81 -316 -286 -559t-490 -376z" />
    <glyph glyph-name="fourty.four" 
d="M-1103 51l-525 1325l355 1383q161 -41 307 -117.5t265 -179.5t214.5 -228.5t159.5 -270t97.5 -298t29.5 -318.5t-45 -326q-87 -339 -315.5 -593t-542.5 -377z" />
    <glyph glyph-name="fourtyone.four" 
d="M-1187 21l-441 1355l355 1383q161 -41 307 -117.5t265 -179.5t214.5 -228.5t159.5 -270t97.5 -298t29.5 -318.5t-45 -326q-93 -362 -346 -625.5t-596 -374.5z" />
    <glyph glyph-name="fourtytwo.four" 
d="M-1274 -5l-354 1381l355 1383q161 -41 307 -117.5t265 -179.5t214.5 -228.5t159.5 -270t97.5 -298t29.5 -318.5t-45 -326q-99 -385 -377.5 -658t-651.5 -368z" />
    <glyph glyph-name="fourtythree.four" 
d="M-1361 -24l-267 1400l355 1383q161 -41 307 -117.5t265 -179.5t214.5 -228.5t159.5 -270t97.5 -298t29.5 -318.5t-45 -326q-70 -272 -234.5 -493t-391.5 -361.5t-490 -190.5z" />
    <glyph glyph-name="fourtyfour.four" 
d="M-1449 -38l-179 1414l355 1383q161 -41 307 -117.5t265 -179.5t214.5 -228.5t159.5 -270t97.5 -298t29.5 -318.5t-45 -326q-55 -215 -172 -401t-275 -321.5t-352 -222.5t-405 -114z" />
    <glyph glyph-name="fourtyfive.four" 
d="M-1538 -46l-90 1422l355 1383q161 -41 307 -117.5t265 -179.5t214.5 -228.5t159.5 -270t97.5 -298t29.5 -318.5t-45 -326q-58 -226 -184 -419.5t-296 -331t-379.5 -220t-433.5 -96.5z" />
    <glyph glyph-name="fourtysix.four" 
d="M-1628 -49v1425l355 1383q161 -41 307 -117.5t265 -179.5t214.5 -228.5t159.5 -270t97.5 -298t29.5 -318.5t-45 -326q-61 -238 -196.5 -439t-318 -339t-407 -215t-461.5 -77z" />
    <glyph glyph-name="fourtyseven.four" 
d="M-1717 -46l89 1422l355 1383q161 -41 307 -117.5t265 -179.5t214.5 -228.5t159.5 -270t97.5 -298t29.5 -318.5t-45 -326q-64 -249 -209 -457t-340 -347t-434.5 -209t-488.5 -54z" />
    <glyph glyph-name="fourtyeight.four" 
d="M-1806 -37l178 1413l355 1383q161 -41 307 -117.5t265 -179.5t214.5 -228.5t159.5 -270t97.5 -298t29.5 -318.5t-45 -326q-53 -208 -163.5 -389t-262.5 -314.5t-333.5 -223.5t-387.5 -124t-414 -7z" />
    <glyph glyph-name="fourtynine.four" 
d="M-1895 -23l267 1399l355 1383q161 -41 307 -117.5t265 -179.5t214.5 -228.5t159.5 -270t97.5 -298t29.5 -318.5t-45 -326q-35 -136 -95 -261.5t-139 -231t-177 -197.5t-209 -160.5t-235 -119t-254 -74t-267 -26t-274 25.5z" />
    <glyph glyph-name="fifty.four" 
d="M-1982 -3l709 2762q161 -41 307 -117.5t265 -179.5t214.5 -228.5t159.5 -270t97.5 -298t29.5 -318.5t-45 -326t-117.5 -307t-179.5 -264t-228.5 -213.5t-269.5 -159t-298 -96.5t-318.5 -29t-325.5 45z" />
    <glyph glyph-name="fiftyone.four" 
d="M-1982 -3q-33 8 -86 25l440 1354l355 1383q161 -41 307 -117.5t265 -179.5t214.5 -228.5t159.5 -270t97.5 -298t29.5 -318.5t-45 -326t-117.5 -307t-179.5 -264t-228.5 -213.5t-269.5 -159t-298 -96.5t-318.5 -29t-325.5 45z" />
    <glyph glyph-name="fiftytwo.four" 
d="M-1982 -3q-89 23 -170 55l524 1324l355 1383q161 -41 307 -117.5t265 -179.5t214.5 -228.5t159.5 -270t97.5 -298t29.5 -318.5t-45 -326t-117.5 -307t-179.5 -264t-228.5 -213.5t-269.5 -159t-298 -96.5t-318.5 -29t-325.5 45z" />
    <glyph glyph-name="fiftythree.four" 
d="M-1982 -3q-135 35 -253 91l607 1288l355 1383q161 -41 307 -117.5t265 -179.5t214.5 -228.5t159.5 -270t97.5 -298t29.5 -318.5t-45 -326t-117.5 -307t-179.5 -264t-228.5 -213.5t-269.5 -159t-298 -96.5t-318.5 -29t-325.5 45z" />
    <glyph glyph-name="fiftyfour.four" 
d="M-1982 -3q-173 44 -332 131l686 1248l355 1383q161 -41 307 -117.5t265 -179.5t214.5 -228.5t159.5 -270t97.5 -298t29.5 -318.5t-45 -326t-117.5 -307t-179.5 -264t-228.5 -213.5t-269.5 -159t-298 -96.5t-318.5 -29t-325.5 45z" />
    <glyph glyph-name="fiftyfive.four" 
d="M-1982 -3q-219 56 -410 177l764 1202l355 1383q161 -41 307 -117.5t265 -179.5t214.5 -228.5t159.5 -270t97.5 -298t29.5 -318.5t-45 -326t-117.5 -307t-179.5 -264t-228.5 -213.5t-269.5 -159t-298 -96.5t-318.5 -29t-325.5 45z" />
    <glyph glyph-name="fiftysix.four" 
d="M-1982 -3q-264 67 -484 227l838 1152l355 1383q161 -41 307 -117.5t265 -179.5t214.5 -228.5t159.5 -270t97.5 -298t29.5 -318.5t-45 -326t-117.5 -307t-179.5 -264t-228.5 -213.5t-269.5 -159t-298 -96.5t-318.5 -29t-325.5 45z" />
    <glyph glyph-name="fiftyseven.four" 
d="M-1982 -3q-314 81 -554 281l908 1098l355 1383q161 -41 307 -117.5t265 -179.5t214.5 -228.5t159.5 -270t97.5 -298t29.5 -318.5t-45 -326t-117.5 -307t-179.5 -264t-228.5 -213.5t-269.5 -159t-298 -96.5t-318.5 -29t-325.5 45z" />
    <glyph glyph-name="fiftyeight.four" 
d="M-1982 -3q-358 92 -621 341l975 1038l355 1383q161 -41 307 -117.5t265 -179.5t214.5 -228.5t159.5 -270t97.5 -298t29.5 -318.5t-45 -326t-117.5 -307t-179.5 -264t-228.5 -213.5t-269.5 -159t-298 -96.5t-318.5 -29t-325.5 45z" />
    <glyph glyph-name="fiftynine.four" 
d="M-1982 -3q-403 103 -685 404l1039 975l355 1383q161 -41 307 -117.5t265 -179.5t214.5 -228.5t159.5 -270t97.5 -298t29.5 -318.5t-45 -326t-117.5 -307t-179.5 -264t-228.5 -213.5t-269.5 -159t-298 -96.5t-318.5 -29t-325.5 45z" />
    <glyph glyph-name="sixty.four" 
d="M-1982 -3q-450 116 -744 471l1098 908l355 1383q161 -41 307 -117.5t265 -179.5t214.5 -228.5t159.5 -270t97.5 -298t29.5 -318.5t-45 -326t-117.5 -307t-179.5 -264t-228.5 -213.5t-269.5 -159t-298 -96.5t-318.5 -29t-325.5 45z" />
    <glyph glyph-name="sixtyone.four" 
d="M-1982 -3q-247 63 -451 203.5t-348 338.5l1153 837l355 1383q161 -41 307 -117.5t265 -179.5t214.5 -228.5t159.5 -270t97.5 -298t29.5 -318.5t-45 -326t-117.5 -307t-179.5 -264t-228.5 -213.5t-269.5 -159t-298 -96.5t-318.5 -29t-325.5 45z" />
    <glyph glyph-name="sixtytwo.four" 
d="M-1982 -3q-270 69 -488 229.5t-362 386.5l1204 763l355 1383q161 -41 307 -117.5t265 -179.5t214.5 -228.5t159.5 -270t97.5 -298t29.5 -318.5t-45 -326t-117.5 -307t-179.5 -264t-228.5 -213.5t-269.5 -159t-298 -96.5t-318.5 -29t-325.5 45z" />
    <glyph glyph-name="sixtythree.four" 
d="M-1982 -3q-293 75 -524 257t-371 436l1249 686l355 1383q161 -41 307 -117.5t265 -179.5t214.5 -228.5t159.5 -270t97.5 -298t29.5 -318.5t-45 -326t-117.5 -307t-179.5 -264t-228.5 -213.5t-269.5 -159t-298 -96.5t-318.5 -29t-325.5 45z" />
    <glyph glyph-name="sixtyfour.four" 
d="M-1982 -3q-316 81 -559 285.5t-377 487.5l1290 606l355 1383q161 -41 307 -117.5t265 -179.5t214.5 -228.5t159.5 -270t97.5 -298t29.5 -318.5t-45 -326t-117.5 -307t-179.5 -264t-228.5 -213.5t-269.5 -159t-298 -96.5t-318.5 -29t-325.5 45z" />
    <glyph glyph-name="sixtyfive.four" 
d="M-1982 -3q-339 87 -593 314.5t-378 540.5l1325 524l355 1383q161 -41 307 -117.5t265 -179.5t214.5 -228.5t159.5 -270t97.5 -298t29.5 -318.5t-45 -326t-117.5 -307t-179.5 -264t-228.5 -213.5t-269.5 -159t-298 -96.5t-318.5 -29t-325.5 45z" />
    <glyph glyph-name="sixtysix.four" 
d="M-1982 -3q-362 93 -625.5 345t-375.5 594l1355 440l355 1383q161 -41 307 -117.5t265 -179.5t214.5 -228.5t159.5 -270t97.5 -298t29.5 -318.5t-45 -326t-117.5 -307t-179.5 -264t-228.5 -213.5t-269.5 -159t-298 -96.5t-318.5 -29t-325.5 45z" />
    <glyph glyph-name="sixtyseven.four" 
d="M-1982 -3q-385 99 -658 376t-368 649l1380 354l355 1383q161 -41 307 -117.5t265 -179.5t214.5 -228.5t159.5 -270t97.5 -298t29.5 -318.5t-45 -326t-117.5 -307t-179.5 -264t-228.5 -213.5t-269.5 -159t-298 -96.5t-318.5 -29t-325.5 45z" />
    <glyph glyph-name="sixtyeight.four" 
d="M-1982 -3q-272 70 -493 233.5t-362 389.5t-191 489l1400 267l355 1383q161 -41 307 -117.5t265 -179.5t214.5 -228.5t159.5 -270t97.5 -298t29.5 -318.5t-45 -326t-117.5 -307t-179.5 -264t-228.5 -213.5t-269.5 -159t-298 -96.5t-318.5 -29t-325.5 45z" />
    <glyph glyph-name="sixtynine.four" 
d="M-1982 -3q-287 73 -516.5 250.5t-369 423t-174.5 526.5l1414 179l355 1383q161 -41 307 -117.5t265 -179.5t214.5 -228.5t159.5 -270t97.5 -298t29.5 -318.5t-45 -326t-117.5 -307t-179.5 -264t-228.5 -213.5t-269.5 -159t-298 -96.5t-318.5 -29t-325.5 45z" />
    <glyph glyph-name="seventy.four" 
d="M-1982 -3q-227 58 -420.5 183.5t-331 295.5t-220 378.5t-96.5 432.5l1422 89l355 1383q161 -41 307 -117.5t265 -179.5t214.5 -228.5t159.5 -270t97.5 -298t29.5 -318.5t-45 -326t-117.5 -307t-179.5 -264t-228.5 -213.5t-269.5 -159t-298 -96.5t-318.5 -29t-325.5 45z
" />
    <glyph glyph-name="seventyone.four" 
d="M-1982 -3q-317 81 -562 287t-377 491t-131 601h1424l355 1383q161 -41 307 -117.5t265 -179.5t214.5 -228.5t159.5 -270t97.5 -298t29.5 -318.5t-45 -326t-117.5 -307t-179.5 -264t-228.5 -213.5t-269.5 -159t-298 -96.5t-318.5 -29t-325.5 45z" />
    <glyph glyph-name="seventytwo.four" 
d="M-1982 -3q-249 64 -457 208.5t-346.5 339t-209.5 433t-55 486.5l1422 -88l355 1383q161 -41 307 -117.5t265 -179.5t214.5 -228.5t159.5 -270t97.5 -298t29.5 -318.5t-45 -326t-117.5 -307t-179.5 -264t-228.5 -213.5t-269.5 -159t-298 -96.5t-318.5 -29t-325.5 45z" />
    <glyph glyph-name="seventythree.four" 
d="M-1982 -3q-208 53 -389 163t-315 261.5t-224 332.5t-124 386.5t-7 413.5l1413 -178l355 1383q161 -41 307 -117.5t265 -179.5t214.5 -228.5t159.5 -270t97.5 -298t29.5 -318.5t-45 -326t-117.5 -307t-179.5 -264t-228.5 -213.5t-269.5 -159t-298 -96.5t-318.5 -29
t-325.5 45z" />
    <glyph glyph-name="seventyfour.four" 
d="M-1982 -3q-155 40 -296.5 112t-256.5 168t-210.5 215t-160 253t-104 282t-42 302t24.5 312l1399 -265l355 1383q161 -41 307 -117.5t265 -179.5t214.5 -228.5t159.5 -270t97.5 -298t29.5 -318.5t-45 -326t-117.5 -307t-179.5 -264t-228.5 -213.5t-269.5 -159t-298 -96.5
t-318.5 -29t-325.5 45z" />
    <glyph glyph-name="seventyfive.four" 
d="M-3007 1730l1379 -354l355 1383q161 -41 307 -117.5t265 -179.5t214.5 -228.5t159.5 -270t97.5 -298t29.5 -318.5t-45 -326t-117.5 -307t-179.5 -264t-228.5 -213.5t-269.5 -159t-298 -96.5t-318.5 -29t-325.5 45t-307 117t-264.5 179t-214 228t-159 269t-96.5 297
t-29 317.5t45 325.5z" />
    <glyph glyph-name="seventysix.four" 
d="M-2982 1816l1354 -440l355 1383q161 -41 307 -117.5t265 -179.5t214.5 -228.5t159.5 -270t97.5 -298t29.5 -318.5t-45 -326t-117.5 -307t-179.5 -264t-228.5 -213.5t-269.5 -159t-298 -96.5t-318.5 -29t-325.5 45t-307 117t-264.5 179t-214 228t-159 269t-96.5 297
t-29 317.5t45 325.5q8 33 25 86z" />
    <glyph glyph-name="seventyseven.four" 
d="M-2952 1900l1324 -524l355 1383q161 -41 307 -117.5t265 -179.5t214.5 -228.5t159.5 -270t97.5 -298t29.5 -318.5t-45 -326t-117.5 -307t-179.5 -264t-228.5 -213.5t-269.5 -159t-298 -96.5t-318.5 -29t-325.5 45t-307 117t-264.5 179t-214 228t-159 269t-96.5 297
t-29 317.5t45 325.5q23 89 55 170z" />
    <glyph glyph-name="seventyeight.four" 
d="M-1628 1376l355 1383q161 -41 307 -117.5t265 -179.5t214.5 -228.5t159.5 -270t97.5 -298t29.5 -318.5t-45 -326t-117.5 -307t-179.5 -264t-228.5 -213.5t-269.5 -159t-298 -96.5t-318.5 -29t-325.5 45t-307 117t-264.5 179t-214 228t-159 269t-96.5 297t-29 317.5
t45 325.5q36 137 91 253z" />
    <glyph glyph-name="seventynine.four" 
d="M-1628 1376l355 1383q161 -41 307 -117.5t265 -179.5t214.5 -228.5t159.5 -270t97.5 -298t29.5 -318.5t-45 -326t-117.5 -307t-179.5 -264t-228.5 -213.5t-269.5 -159t-298 -96.5t-318.5 -29t-325.5 45t-307 117t-264.5 179t-214 228t-159 269t-96.5 297t-29 317.5
t45 325.5q45 177 130 332z" />
    <glyph glyph-name="eighty.four" 
d="M-1628 1376l355 1383q161 -41 307 -117.5t265 -179.5t214.5 -228.5t159.5 -270t97.5 -298t29.5 -318.5t-45 -326t-117.5 -307t-179.5 -264t-228.5 -213.5t-269.5 -159t-298 -96.5t-318.5 -29t-325.5 45t-307 117t-264.5 179t-214 228t-159 269t-96.5 297t-29 317.5
t45 325.5q56 219 177 410z" />
    <glyph glyph-name="eightyone.four" 
d="M-1628 1376l355 1383q161 -41 307 -117.5t265 -179.5t214.5 -228.5t159.5 -270t97.5 -298t29.5 -318.5t-45 -326t-117.5 -307t-179.5 -264t-228.5 -213.5t-269.5 -159t-298 -96.5t-318.5 -29t-325.5 45t-307 117t-264.5 179t-214 228t-159 269t-96.5 297t-29 317.5
t45 325.5q67 264 226 483z" />
    <glyph glyph-name="eightytwo.four" 
d="M-2726 2285l1098 -909l355 1383q161 -41 307 -117.5t265 -179.5t214.5 -228.5t159.5 -270t97.5 -298t29.5 -318.5t-45 -326t-117.5 -307t-179.5 -264t-228.5 -213.5t-269.5 -159t-298 -96.5t-318.5 -29t-325.5 45t-307 117t-264.5 179t-214 228t-159 269t-96.5 297
t-29 317.5t45 325.5q80 313 281 555z" />
    <glyph glyph-name="eightythree.four" 
d="M-2667 2351l1039 -975l355 1383q161 -41 307 -117.5t265 -179.5t214.5 -228.5t159.5 -270t97.5 -298t29.5 -318.5t-45 -326t-117.5 -307t-179.5 -264t-228.5 -213.5t-269.5 -159t-298 -96.5t-318.5 -29t-325.5 45t-307 117t-264.5 179t-214 228t-159 269t-96.5 297
t-29 317.5t45 325.5q92 357 340 621z" />
    <glyph glyph-name="eightyfour.four" 
d="M-1628 1376l355 1383q161 -41 307 -117.5t265 -179.5t214.5 -228.5t159.5 -270t97.5 -298t29.5 -318.5t-45 -326t-117.5 -307t-179.5 -264t-228.5 -213.5t-269.5 -159t-298 -96.5t-318.5 -29t-325.5 45t-307 117t-264.5 179t-214 228t-159 269t-96.5 297t-29 317.5
t45 325.5q101 399 403 685z" />
    <glyph glyph-name="eightyfive.four" 
d="M-2536 2474l908 -1098l355 1383q161 -41 307 -117.5t265 -179.5t214.5 -228.5t159.5 -270t97.5 -298t29.5 -318.5t-45 -326t-117.5 -307t-179.5 -264t-228.5 -213.5t-269.5 -159t-298 -96.5t-318.5 -29t-325.5 45t-307 117t-264.5 179t-214 228t-159 269t-96.5 297
t-29 317.5t45 325.5q57 223 178.5 413t292.5 331z" />
    <glyph glyph-name="eightysix.four" 
d="M-1628 1376l355 1383q161 -41 307 -117.5t265 -179.5t214.5 -228.5t159.5 -270t97.5 -298t29.5 -318.5t-45 -326t-117.5 -307t-179.5 -264t-228.5 -213.5t-269.5 -159t-298 -96.5t-318.5 -29t-325.5 45t-307 117t-264.5 179t-214 228t-159 269t-96.5 297t-29 317.5
t45 325.5q63 246 203.5 450.5t337.5 349.5z" />
    <glyph glyph-name="eightyseven.four" 
d="M-1628 1376l355 1383q161 -41 307 -117.5t265 -179.5t214.5 -228.5t159.5 -270t97.5 -298t29.5 -318.5t-45 -326t-117.5 -307t-179.5 -264t-228.5 -213.5t-269.5 -159t-298 -96.5t-318.5 -29t-325.5 45t-307 117t-264.5 179t-214 228t-159 269t-96.5 297t-29 317.5
t45 325.5q69 270 229.5 488t385.5 362z" />
    <glyph glyph-name="eightyeight.four" 
d="M-2314 2626l686 -1250l355 1383q161 -41 307 -117.5t265 -179.5t214.5 -228.5t159.5 -270t97.5 -298t29.5 -318.5t-45 -326t-117.5 -307t-179.5 -264t-228.5 -213.5t-269.5 -159t-298 -96.5t-318.5 -29t-325.5 45t-307 117t-264.5 179t-214 228t-159 269t-96.5 297
t-29 317.5t45 325.5q75 293 257 524t436 372z" />
    <glyph glyph-name="eightynine.four" 
d="M-2235 2667l607 -1291l355 1383q161 -41 307 -117.5t265 -179.5t214.5 -228.5t159.5 -270t97.5 -298t29.5 -318.5t-45 -326t-117.5 -307t-179.5 -264t-228.5 -213.5t-269.5 -159t-298 -96.5t-318.5 -29t-325.5 45t-307 117t-264.5 179t-214 228t-159 269t-96.5 297
t-29 317.5t45 325.5q81 315 285 558.5t487 378.5z" />
    <glyph glyph-name="ninety.four" 
d="M-1628 1376l355 1383q161 -41 307 -117.5t265 -179.5t214.5 -228.5t159.5 -270t97.5 -298t29.5 -318.5t-45 -326t-117.5 -307t-179.5 -264t-228.5 -213.5t-269.5 -159t-298 -96.5t-318.5 -29t-325.5 45t-307 117t-264.5 179t-214 228t-159 269t-96.5 297t-29 317.5
t45 325.5q87 339 314.5 593.5t540.5 379.5z" />
    <glyph glyph-name="ninetyone.four" 
d="M-1628 1376l355 1383q161 -41 307 -117.5t265 -179.5t214.5 -228.5t159.5 -270t97.5 -298t29.5 -318.5t-45 -326t-117.5 -307t-179.5 -264t-228.5 -213.5t-269.5 -159t-298 -96.5t-318.5 -29t-325.5 45t-307 117t-264.5 179t-214 228t-159 269t-96.5 297t-29 317.5
t45 325.5q93 362 344.5 626.5t593.5 377.5z" />
    <glyph glyph-name="ninetytwo.four" 
d="M-1982 2758l354 -1382l355 1383q161 -41 307 -117.5t265 -179.5t214.5 -228.5t159.5 -270t97.5 -298t29.5 -318.5t-45 -326t-117.5 -307t-179.5 -264t-228.5 -213.5t-269.5 -159t-298 -96.5t-318.5 -29t-325.5 45t-307 117t-264.5 179t-214 228t-159 269t-96.5 297
t-29 317.5t45 325.5q99 385 376.5 658.5t648.5 369.5z" />
    <glyph glyph-name="ninetythree.four" 
d="M-3007 1730q69 272 233 493.5t390 363t488 192.5l268 -1403l355 1383q161 -41 307 -117.5t265 -179.5t214.5 -228.5t159.5 -270t97.5 -298t29.5 -318.5t-45 -326t-117.5 -307t-179.5 -264t-228.5 -213.5t-269.5 -159t-298 -96.5t-318.5 -29t-325.5 45t-307 117
t-264.5 179t-214 228t-159 269t-96.5 297t-29 317.5t45 325.5z" />
    <glyph glyph-name="ninetyfour.four" 
d="M-1628 1376l355 1383q161 -41 307 -117.5t265 -179.5t214.5 -228.5t159.5 -270t97.5 -298t29.5 -318.5t-45 -326t-117.5 -307t-179.5 -264t-228.5 -213.5t-269.5 -159t-298 -96.5t-318.5 -29t-325.5 45t-307 117t-264.5 179t-214 228t-159 269t-96.5 297t-29 317.5
t45 325.5q73 286 250.5 516t423 370t526.5 176z" />
    <glyph glyph-name="ninetyfive.four" 
d="M-1718 2801l90 -1425l355 1383q161 -41 307 -117.5t265 -179.5t214.5 -228.5t159.5 -270t97.5 -298t29.5 -318.5t-45 -326t-117.5 -307t-179.5 -264t-228.5 -213.5t-269.5 -159t-298 -96.5t-318.5 -29t-325.5 45t-307 117t-264.5 179t-214 228t-159 269t-96.5 297
t-29 317.5t45 325.5q77 302 268.5 540t456.5 375t564 156z" />
    <glyph glyph-name="ninetysix.four" 
d="M-1628 1376l355 1383q161 -41 307 -117.5t265 -179.5t214.5 -228.5t159.5 -270t97.5 -298t29.5 -318.5t-45 -326t-117.5 -307t-179.5 -264t-228.5 -213.5t-269.5 -159t-298 -96.5t-318.5 -29t-325.5 45t-307 117t-264.5 179t-214 228t-159 269t-96.5 297t-29 317.5
t45 325.5q61 237 196 438.5t316.5 340.5t405.5 217t460 78z" />
    <glyph glyph-name="one.five" 
d="M-1628 1376l441 1358q41 -13 85 -30z" />
    <glyph glyph-name="two.five" 
d="M-1628 1376l441 1358q87 -28 169 -66z" />
    <glyph glyph-name="three.five" 
d="M-1628 1376l441 1358q125 -40 247 -106z" />
    <glyph glyph-name="four.five" 
d="M-1628 1376l441 1358q171 -56 325 -152z" />
    <glyph glyph-name="five.five" 
d="M-1628 1376l441 1358q218 -71 399 -202z" />
    <glyph glyph-name="six.five" 
d="M-1628 1376l441 1358q258 -83 469 -258z" />
    <glyph glyph-name="seven.five" 
d="M-650 2417l-978 -1041l441 1358q305 -99 537 -317z" />
    <glyph glyph-name="eight.five" 
d="M-1628 1376l441 1358q351 -114 600 -380z" />
    <glyph glyph-name="nine.five" 
d="M-1628 1376l441 1358q394 -128 659 -448z" />
    <glyph glyph-name="ten.five" 
d="M-1628 1376l441 1358q220 -72 402 -205t312 -313z" />
    <glyph glyph-name="eleven.five" 
d="M-1628 1376l441 1358q242 -78 437 -231.5t327 -360.5z" />
    <glyph glyph-name="twelve.five" 
d="M-1628 1376l441 1358q264 -85 472.5 -260t337.5 -410z" />
    <glyph glyph-name="thirteen.five" 
d="M-1628 1376l441 1358q287 -93 507 -290t344 -460z" />
    <glyph glyph-name="fourteen.five" 
d="M-1628 1376l441 1358q310 -101 540.5 -320.5t345.5 -511.5z" />
    <glyph glyph-name="fifteen.five" 
d="M-1628 1376l441 1358q332 -108 572 -352t345 -564z" />
    <glyph glyph-name="sixteen.five" 
d="M-1628 1376l441 1358q355 -115 603.5 -384.5t338.5 -619.5z" />
    <glyph glyph-name="seventeen.five" 
d="M-1628 1376l441 1358q252 -82 454.5 -245.5t331 -380t175.5 -464.5z" />
    <glyph glyph-name="eighteen.five" 
d="M-1628 1376l441 1358q267 -86 477.5 -264t337.5 -413.5t161 -501.5z" />
    <glyph glyph-name="nineteen.five" 
d="M-1628 1376l441 1358q281 -91 499.5 -283.5t343 -447t142.5 -537.5z" />
    <glyph glyph-name="twenty.five" 
d="M-1628 1376l441 1358q296 -96 521.5 -303t345.5 -480t120 -573z" />
    <glyph glyph-name="twentyone.five" 
d="M-1628 1376l441 1358q233 -76 425.5 -224t320 -339t191 -420t48.5 -465z" />
    <glyph glyph-name="twentytwo.five" 
d="M-1628 1376l441 1358q244 -79 443 -237t326 -361.5t183 -447.5t24 -491z" />
    <glyph glyph-name="twentythree.five" 
d="M-1628 1376l441 1358q146 -48 278 -124.5t238.5 -174.5t194.5 -216.5t146 -249.5t93.5 -274t36.5 -290t-25 -297z" />
    <glyph glyph-name="twentyfour.five" 
d="M-1628 1376l441 1358q178 -58 333.5 -158t273 -229t205 -285.5t129.5 -326.5t46 -352.5t-45 -362.5z" />
    <glyph glyph-name="twentyfive.five" 
d="M-1628 1376l441 1358q185 -60 345 -166t280.5 -242t205.5 -302t124 -343.5t30.5 -369.5t-68.5 -376z" />
    <glyph glyph-name="twentysix.five" 
d="M-1628 1376l441 1358q185 -60 345 -166t280.5 -242t205.5 -302t124 -343.5t30.5 -369.5t-68.5 -376q-20 -58 -31 -86z" />
    <glyph glyph-name="twentyseven.five" 
d="M-1628 1376l441 1358q185 -60 345 -166t280.5 -242t205.5 -302t124 -343.5t30.5 -369.5t-68.5 -376q-23 -74 -66 -167z" />
    <glyph glyph-name="twentyeight.five" 
d="M-1628 1376l441 1358q185 -60 345 -166t280.5 -242t205.5 -302t124 -343.5t30.5 -369.5t-68.5 -376q-41 -127 -107 -248z" />
    <glyph glyph-name="twentynine.five" 
d="M-1628 1376l441 1358q185 -60 345 -166t280.5 -242t205.5 -302t124 -343.5t30.5 -369.5t-68.5 -376q-56 -171 -152 -325z" />
    <glyph glyph-name="thirty.five" 
d="M-472 537l-1156 839l441 1358q185 -60 345 -166t280.5 -242t205.5 -302t124 -343.5t30.5 -369.5t-68.5 -376q-71 -219 -202 -398z" />
    <glyph glyph-name="thirtyone.five" 
d="M-1628 1376l441 1358q185 -60 345 -166t280.5 -242t205.5 -302t124 -343.5t30.5 -369.5t-68.5 -376q-84 -260 -258 -470z" />
    <glyph glyph-name="thirtytwo.five" 
d="M-1628 1376l441 1358q185 -60 345 -166t280.5 -242t205.5 -302t124 -343.5t30.5 -369.5t-68.5 -376q-99 -305 -317 -537z" />
    <glyph glyph-name="thirtythree.five" 
d="M-1628 1376l441 1358q185 -60 345 -166t280.5 -242t205.5 -302t124 -343.5t30.5 -369.5t-68.5 -376q-114 -350 -380 -599z" />
    <glyph glyph-name="thirtyfour.five" 
d="M-1628 1376l441 1358q185 -60 345 -166t280.5 -242t205.5 -302t124 -343.5t30.5 -369.5t-68.5 -376q-128 -394 -448 -659z" />
    <glyph glyph-name="thirtyfive.five" 
d="M-1628 1376l441 1358q185 -60 345 -166t280.5 -242t205.5 -302t124 -343.5t30.5 -369.5t-68.5 -376q-72 -220 -205.5 -401.5t-313.5 -311.5z" />
    <glyph glyph-name="thirtysix.five" 
d="M-1628 1376l441 1358q185 -60 345 -166t280.5 -242t205.5 -302t124 -343.5t30.5 -369.5t-68.5 -376q-79 -242 -232.5 -437t-360.5 -326z" />
    <glyph glyph-name="thirtyseven.five" 
d="M-940 126l-688 1250l441 1358q185 -60 345 -166t280.5 -242t205.5 -302t124 -343.5t30.5 -369.5t-68.5 -376q-86 -265 -260.5 -473t-409.5 -336z" />
    <glyph glyph-name="thirtyeight.five" 
d="M-1628 1376l441 1358q185 -60 345 -166t280.5 -242t205.5 -302t124 -343.5t30.5 -369.5t-68.5 -376q-94 -288 -290.5 -507t-459.5 -342z" />
    <glyph glyph-name="thirtynine.five" 
d="M-1628 1376l441 1358q185 -60 345 -166t280.5 -242t205.5 -302t124 -343.5t30.5 -369.5t-68.5 -376q-101 -310 -321 -539.5t-512 -345.5z" />
    <glyph glyph-name="fourty.five" 
d="M-1187 20l-441 1356l441 1358q185 -60 345 -166t280.5 -242t205.5 -302t124 -343.5t30.5 -369.5t-68.5 -376q-108 -333 -352 -572t-565 -343z" />
    <glyph glyph-name="fourtyone.five" 
d="M-1273 -4l-355 1380l441 1358q185 -60 345 -166t280.5 -242t205.5 -302t124 -343.5t30.5 -369.5t-68.5 -376q-116 -356 -385 -603t-618 -336z" />
    <glyph glyph-name="fourtytwo.five" 
d="M-1361 -24l-267 1400l441 1358q185 -60 345 -166t280.5 -242t205.5 -302t124 -343.5t30.5 -369.5t-68.5 -376q-82 -252 -246 -454.5t-380.5 -330t-464.5 -174.5z" />
    <glyph glyph-name="fourtythree.five" 
d="M-1450 -38l-178 1414l441 1358q185 -60 345 -166t280.5 -242t205.5 -302t124 -343.5t30.5 -369.5t-68.5 -376q-86 -267 -264.5 -477.5t-414 -336.5t-501.5 -159z" />
    <glyph glyph-name="fourtyfour.five" 
d="M-1538 -46l-90 1422l441 1358q185 -60 345 -166t280.5 -242t205.5 -302t124 -343.5t30.5 -369.5t-68.5 -376q-91 -281 -283.5 -499t-447 -341.5t-537.5 -140.5z" />
    <glyph glyph-name="fourtyfive.five" 
d="M-1628 -49v1425l441 1358q185 -60 345 -166t280.5 -242t205.5 -302t124 -343.5t30.5 -369.5t-68.5 -376q-96 -296 -303 -521t-481 -344t-574 -119z" />
    <glyph glyph-name="fourtysix.five" 
d="M-1718 -46l90 1422l441 1358q185 -60 345 -166t280.5 -242t205.5 -302t124 -343.5t30.5 -369.5t-68.5 -376q-101 -311 -323 -543t-515.5 -345.5t-609.5 -92.5z" />
    <glyph glyph-name="fourtyseven.five" 
d="M-1806 -37l178 1413l441 1358q185 -60 345 -166t280.5 -242t205.5 -302t124 -343.5t30.5 -369.5t-68.5 -376q-63 -196 -177.5 -363.5t-265 -290t-326.5 -204t-372.5 -111t-394.5 -3.5z" />
    <glyph glyph-name="fourtyeight.five" 
d="M-1895 -23l267 1399l441 1358q185 -60 345 -166t280.5 -242t205.5 -302t124 -343.5t30.5 -369.5t-68.5 -376q-55 -170 -150 -320.5t-216.5 -265.5t-269 -203t-308.5 -134t-334.5 -58.5t-346.5 23.5z" />
    <glyph glyph-name="fourtynine.five" 
d="M-1982 -3l354 1379l441 1358q185 -60 345 -166t280.5 -242t205.5 -302t124 -343.5t30.5 -369.5t-68.5 -376q-58 -178 -158 -333t-229 -272t-285.5 -204.5t-326 -129t-351.5 -45t-362 45.5z" />
    <glyph glyph-name="fifty.five" 
d="M-2068 22l881 2712q185 -60 345 -166t280.5 -242t205.5 -302t124 -343.5t30.5 -369.5t-68.5 -376q-60 -185 -166 -345t-241.5 -280t-301.5 -204t-343.5 -123t-369.5 -30t-376 69z" />
    <glyph glyph-name="fiftyone.five" 
d="M-2068 22q-49 16 -84 30l524 1324l441 1358q185 -60 345 -166t280.5 -242t205.5 -302t124 -343.5t30.5 -369.5t-68.5 -376q-60 -185 -166 -345t-241.5 -280t-301.5 -204t-343.5 -123t-369.5 -30t-376 69z" />
    <glyph glyph-name="fiftytwo.five" 
d="M-2068 22q-86 27 -166 66l606 1288l441 1358q185 -60 345 -166t280.5 -242t205.5 -302t124 -343.5t30.5 -369.5t-68.5 -376q-60 -185 -166 -345t-241.5 -280t-301.5 -204t-343.5 -123t-369.5 -30t-376 69z" />
    <glyph glyph-name="fiftythree.five" 
d="M-2068 22q-126 41 -246 106l686 1248l441 1358q185 -60 345 -166t280.5 -242t205.5 -302t124 -343.5t30.5 -369.5t-68.5 -376q-60 -185 -166 -345t-241.5 -280t-301.5 -204t-343.5 -123t-369.5 -30t-376 69z" />
    <glyph glyph-name="fiftyfour.five" 
d="M-2068 22q-172 56 -323 151l763 1203l441 1358q185 -60 345 -166t280.5 -242t205.5 -302t124 -343.5t30.5 -369.5t-68.5 -376q-60 -185 -166 -345t-241.5 -280t-301.5 -204t-343.5 -123t-369.5 -30t-376 69z" />
    <glyph glyph-name="fiftyfive.five" 
d="M-2068 22q-216 70 -398 202l838 1152l441 1358q185 -60 345 -166t280.5 -242t205.5 -302t124 -343.5t30.5 -369.5t-68.5 -376q-60 -185 -166 -345t-241.5 -280t-301.5 -204t-343.5 -123t-369.5 -30t-376 69z" />
    <glyph glyph-name="fiftysix.five" 
d="M-2068 22q-258 84 -468 256l908 1098l441 1358q185 -60 345 -166t280.5 -242t205.5 -302t124 -343.5t30.5 -369.5t-68.5 -376q-60 -185 -166 -345t-241.5 -280t-301.5 -204t-343.5 -123t-369.5 -30t-376 69z" />
    <glyph glyph-name="fiftyseven.five" 
d="M-2068 22q-305 99 -535 315l975 1039l441 1358q185 -60 345 -166t280.5 -242t205.5 -302t124 -343.5t30.5 -369.5t-68.5 -376q-60 -185 -166 -345t-241.5 -280t-301.5 -204t-343.5 -123t-369.5 -30t-376 69z" />
    <glyph glyph-name="fiftyeight.five" 
d="M-2068 22q-352 114 -598 379l1038 975l441 1358q185 -60 345 -166t280.5 -242t205.5 -302t124 -343.5t30.5 -369.5t-68.5 -376q-60 -185 -166 -345t-241.5 -280t-301.5 -204t-343.5 -123t-369.5 -30t-376 69z" />
    <glyph glyph-name="fiftynine.five" 
d="M-2068 22q-198 64 -364.5 178.5t-293.5 267.5l1098 908l441 1358q185 -60 345 -166t280.5 -242t205.5 -302t124 -343.5t30.5 -369.5t-68.5 -376q-60 -185 -166 -345t-241.5 -280t-301.5 -204t-343.5 -123t-369.5 -30t-376 69z" />
    <glyph glyph-name="sixty.five" 
d="M-2068 22q-220 72 -401 205t-312 312l1153 837l441 1358q185 -60 345 -166t280.5 -242t205.5 -302t124 -343.5t30.5 -369.5t-68.5 -376q-60 -185 -166 -345t-241.5 -280t-301.5 -204t-343.5 -123t-369.5 -30t-376 69z" />
    <glyph glyph-name="sixtyone.five" 
d="M-2068 22q-242 78 -437 231t-326 360l1203 763l441 1358q185 -60 345 -166t280.5 -242t205.5 -302t124 -343.5t30.5 -369.5t-68.5 -376q-60 -185 -166 -345t-241.5 -280t-301.5 -204t-343.5 -123t-369.5 -30t-376 69z" />
    <glyph glyph-name="sixtytwo.five" 
d="M-2068 22q-265 86 -473 260t-336 408l1249 686l441 1358q185 -60 345 -166t280.5 -242t205.5 -302t124 -343.5t30.5 -369.5t-68.5 -376q-60 -185 -166 -345t-241.5 -280t-301.5 -204t-343.5 -123t-369.5 -30t-376 69z" />
    <glyph glyph-name="sixtythree.five" 
d="M-2068 22q-287 93 -506.5 289t-342.5 459l1289 606l441 1358q185 -60 345 -166t280.5 -242t205.5 -302t124 -343.5t30.5 -369.5t-68.5 -376q-60 -185 -166 -345t-241.5 -280t-301.5 -204t-343.5 -123t-369.5 -30t-376 69z" />
    <glyph glyph-name="sixtyfour.five" 
d="M-2068 22q-310 100 -539.5 319t-345.5 511l1325 524l441 1358q185 -60 345 -166t280.5 -242t205.5 -302t124 -343.5t30.5 -369.5t-68.5 -376q-60 -185 -166 -345t-241.5 -280t-301.5 -204t-343.5 -123t-369.5 -30t-376 69z" />
    <glyph glyph-name="sixtyfive.five" 
d="M-2068 22q-333 107 -572 350.5t-344 563.5l1356 440l441 1358q185 -60 345 -166t280.5 -242t205.5 -302t124 -343.5t30.5 -369.5t-68.5 -376q-60 -185 -166 -345t-241.5 -280t-301.5 -204t-343.5 -123t-369.5 -30t-376 69z" />
    <glyph glyph-name="sixtysix.five" 
d="M-2068 22q-237 77 -430.5 226.5t-322 346.5t-187.5 427l1380 354l441 1358q185 -60 345 -166t280.5 -242t205.5 -302t124 -343.5t30.5 -369.5t-68.5 -376q-60 -185 -166 -345t-241.5 -280t-301.5 -204t-343.5 -123t-369.5 -30t-376 69z" />
    <glyph glyph-name="sixtyseven.five" 
d="M-2068 22q-379 123 -633.5 417t-326.5 671l1400 266l441 1358q185 -60 345 -166t280.5 -242t205.5 -302t124 -343.5t30.5 -369.5t-68.5 -376q-60 -185 -166 -345t-241.5 -280t-301.5 -204t-343.5 -123t-369.5 -30t-376 69z" />
    <glyph glyph-name="sixtyeight.five" 
d="M-2068 22q-267 86 -477.5 263.5t-336.5 412t-160 499.5l1414 179l441 1358q185 -60 345 -166t280.5 -242t205.5 -302t124 -343.5t30.5 -369.5t-68.5 -376q-60 -185 -166 -345t-241.5 -280t-301.5 -204t-343.5 -123t-369.5 -30t-376 69z" />
    <glyph glyph-name="sixtynine.five" 
d="M-2068 22q-281 91 -499 282.5t-341.5 445t-141.5 536.5l1422 90l441 1358q185 -60 345 -166t280.5 -242t205.5 -302t124 -343.5t30.5 -369.5t-68.5 -376q-60 -185 -166 -345t-241.5 -280t-301.5 -204t-343.5 -123t-369.5 -30t-376 69z" />
    <glyph glyph-name="seventy.five" 
d="M-2068 22q-296 96 -521.5 302.5t-344.5 479.5t-119 572h1425l441 1358q185 -60 345 -166t280.5 -242t205.5 -302t124 -343.5t30.5 -369.5t-68.5 -376q-60 -185 -166 -345t-241.5 -280t-301.5 -204t-343.5 -123t-369.5 -30t-376 69z" />
    <glyph glyph-name="seventyone.five" 
d="M-2068 22q-233 76 -425.5 223t-319 337.5t-189.5 418.5t-48 464l1422 -89l441 1358q185 -60 345 -166t280.5 -242t205.5 -302t124 -343.5t30.5 -369.5t-68.5 -376q-60 -185 -166 -345t-241.5 -280t-301.5 -204t-343.5 -123t-369.5 -30t-376 69z" />
    <glyph glyph-name="seventytwo.five" 
d="M-2068 22q-244 79 -442.5 236.5t-325 360t-182 445t-23.5 489.5l1413 -177l441 1358q185 -60 345 -166t280.5 -242t205.5 -302t124 -343.5t30.5 -369.5t-68.5 -376q-60 -185 -166 -345t-241.5 -280t-301.5 -204t-343.5 -123t-369.5 -30t-376 69z" />
    <glyph glyph-name="seventythree.five" 
d="M-2068 22q-171 55 -321 149.5t-265 215.5t-203 268.5t-134.5 308t-59 333.5t23.5 346l1399 -267l441 1358q185 -60 345 -166t280.5 -242t205.5 -302t124 -343.5t30.5 -369.5t-68.5 -376q-60 -185 -166 -345t-241.5 -280t-301.5 -204t-343.5 -123t-369.5 -30t-376 69z" />
    <glyph glyph-name="seventyfour.five" 
d="M-2068 22q-152 49 -288 129.5t-245.5 184.5t-197 227.5t-144.5 263.5t-85.5 287.5t-23.5 304.5t45 310l1379 -353l441 1358q185 -60 345 -166t280.5 -242t205.5 -302t124 -343.5t30.5 -369.5t-68.5 -376q-60 -185 -166 -345t-241.5 -280t-301.5 -204t-343.5 -123
t-369.5 -30t-376 69z" />
    <glyph glyph-name="seventyfive.five" 
d="M-2982 1816l1354 -440l441 1358q185 -60 345 -166t280.5 -242t205.5 -302t124 -343.5t30.5 -369.5t-68.5 -376q-60 -185 -166 -345t-241.5 -280t-301.5 -204t-343.5 -123t-369.5 -30t-376 69q-185 60 -345 165.5t-280 241t-204.5 301t-123 342.5t-30 368.5t68.5 375.5z
" />
    <glyph glyph-name="seventysix.five" 
d="M-2952 1900l1324 -524l441 1358q185 -60 345 -166t280.5 -242t205.5 -302t124 -343.5t30.5 -369.5t-68.5 -376q-60 -185 -166 -345t-241.5 -280t-301.5 -204t-343.5 -123t-369.5 -30t-376 69q-185 60 -345 165.5t-280 241t-204.5 301t-123 342.5t-30 368.5t68.5 375.5
q14 42 30 84z" />
    <glyph glyph-name="seventyseven.five" 
d="M-2917 1982l1289 -606l441 1358q185 -60 345 -166t280.5 -242t205.5 -302t124 -343.5t30.5 -369.5t-68.5 -376q-60 -185 -166 -345t-241.5 -280t-301.5 -204t-343.5 -123t-369.5 -30t-376 69q-185 60 -345 165.5t-280 241t-204.5 301t-123 342.5t-30 368.5t68.5 375.5
q24 78 65 166z" />
    <glyph glyph-name="seventyeight.five" 
d="M-1628 1376l441 1358q185 -60 345 -166t280.5 -242t205.5 -302t124 -343.5t30.5 -369.5t-68.5 -376q-60 -185 -166 -345t-241.5 -280t-301.5 -204t-343.5 -123t-369.5 -30t-376 69q-185 60 -345 165.5t-280 241t-204.5 301t-123 342.5t-30 368.5t68.5 375.5
q41 126 106 246z" />
    <glyph glyph-name="seventynine.five" 
d="M-1628 1376l441 1358q185 -60 345 -166t280.5 -242t205.5 -302t124 -343.5t30.5 -369.5t-68.5 -376q-60 -185 -166 -345t-241.5 -280t-301.5 -204t-343.5 -123t-369.5 -30t-376 69q-185 60 -345 165.5t-280 241t-204.5 301t-123 342.5t-30 368.5t68.5 375.5
q55 172 151 323z" />
    <glyph glyph-name="eighty.five" 
d="M-1628 1376l441 1358q185 -60 345 -166t280.5 -242t205.5 -302t124 -343.5t30.5 -369.5t-68.5 -376q-60 -185 -166 -345t-241.5 -280t-301.5 -204t-343.5 -123t-369.5 -30t-376 69q-185 60 -345 165.5t-280 241t-204.5 301t-123 342.5t-30 368.5t68.5 375.5
q70 216 202 398z" />
    <glyph glyph-name="eightyone.five" 
d="M-1628 1376l441 1358q185 -60 345 -166t280.5 -242t205.5 -302t124 -343.5t30.5 -369.5t-68.5 -376q-60 -185 -166 -345t-241.5 -280t-301.5 -204t-343.5 -123t-369.5 -30t-376 69q-185 60 -345 165.5t-280 241t-204.5 301t-123 342.5t-30 368.5t68.5 375.5
q85 261 256 468z" />
    <glyph glyph-name="eightytwo.five" 
d="M-2667 2352l1039 -976l441 1358q185 -60 345 -166t280.5 -242t205.5 -302t124 -343.5t30.5 -369.5t-68.5 -376q-60 -185 -166 -345t-241.5 -280t-301.5 -204t-343.5 -123t-369.5 -30t-376 69q-185 60 -345 165.5t-280 241t-204.5 301t-123 342.5t-30 368.5t68.5 375.5
q99 304 315 536z" />
    <glyph glyph-name="eightythree.five" 
d="M-2604 2415l976 -1039l441 1358q185 -60 345 -166t280.5 -242t205.5 -302t124 -343.5t30.5 -369.5t-68.5 -376q-60 -185 -166 -345t-241.5 -280t-301.5 -204t-343.5 -123t-369.5 -30t-376 69q-185 60 -345 165.5t-280 241t-204.5 301t-123 342.5t-30 368.5t68.5 375.5
q112 349 378 599z" />
    <glyph glyph-name="eightyfour.five" 
d="M-1628 1376l441 1358q185 -60 345 -166t280.5 -242t205.5 -302t124 -343.5t30.5 -369.5t-68.5 -376q-60 -185 -166 -345t-241.5 -280t-301.5 -204t-343.5 -123t-369.5 -30t-376 69q-185 60 -345 165.5t-280 241t-204.5 301t-123 342.5t-30 368.5t68.5 375.5
q127 394 445 658z" />
    <glyph glyph-name="eightyfive.five" 
d="M-2466 2529l838 -1153l441 1358q185 -60 345 -166t280.5 -242t205.5 -302t124 -343.5t30.5 -369.5t-68.5 -376q-60 -185 -166 -345t-241.5 -280t-301.5 -204t-343.5 -123t-369.5 -30t-376 69q-185 60 -345 165.5t-280 241t-204.5 301t-123 342.5t-30 368.5t68.5 375.5
q71 220 203.5 401t312.5 312z" />
    <glyph glyph-name="eightysix.five" 
d="M-1628 1376l441 1358q185 -60 345 -166t280.5 -242t205.5 -302t124 -343.5t30.5 -369.5t-68.5 -376q-60 -185 -166 -345t-241.5 -280t-301.5 -204t-343.5 -123t-369.5 -30t-376 69q-185 60 -345 165.5t-280 241t-204.5 301t-123 342.5t-30 368.5t68.5 375.5
q78 242 231 437.5t359 326.5z" />
    <glyph glyph-name="eightyseven.five" 
d="M-1628 1376l441 1358q185 -60 345 -166t280.5 -242t205.5 -302t124 -343.5t30.5 -369.5t-68.5 -376q-60 -185 -166 -345t-241.5 -280t-301.5 -204t-343.5 -123t-369.5 -30t-376 69q-185 60 -345 165.5t-280 241t-204.5 301t-123 342.5t-30 368.5t68.5 375.5
q85 264 259 472.5t408 337.5z" />
    <glyph glyph-name="eightyeight.five" 
d="M-2234 2667l606 -1291l441 1358q185 -60 345 -166t280.5 -242t205.5 -302t124 -343.5t30.5 -369.5t-68.5 -376q-60 -185 -166 -345t-241.5 -280t-301.5 -204t-343.5 -123t-369.5 -30t-376 69q-185 60 -345 165.5t-280 241t-204.5 301t-123 342.5t-30 368.5t68.5 375.5
q93 287 289 506.5t459 344.5z" />
    <glyph glyph-name="eightynine.five" 
d="M-2153 2702l525 -1326l441 1358q185 -60 345 -166t280.5 -242t205.5 -302t124 -343.5t30.5 -369.5t-68.5 -376q-60 -185 -166 -345t-241.5 -280t-301.5 -204t-343.5 -123t-369.5 -30t-376 69q-185 60 -345 165.5t-280 241t-204.5 301t-123 342.5t-30 368.5t68.5 375.5
q100 309 319 539.5t510 346.5z" />
    <glyph glyph-name="ninety.five" 
d="M-1628 1376l441 1358q185 -60 345 -166t280.5 -242t205.5 -302t124 -343.5t30.5 -369.5t-68.5 -376q-60 -185 -166 -345t-241.5 -280t-301.5 -204t-343.5 -123t-369.5 -30t-376 69q-185 60 -345 165.5t-280 241t-204.5 301t-123 342.5t-30 368.5t68.5 375.5
q108 332 351 572t563 345z" />
    <glyph glyph-name="ninetyone.five" 
d="M-1628 1376l441 1358q185 -60 345 -166t280.5 -242t205.5 -302t124 -343.5t30.5 -369.5t-68.5 -376q-60 -185 -166 -345t-241.5 -280t-301.5 -204t-343.5 -123t-369.5 -30t-376 69q-185 60 -345 165.5t-280 241t-204.5 301t-123 342.5t-30 368.5t68.5 375.5
q115 355 383.5 603.5t616.5 338.5z" />
    <glyph glyph-name="ninetytwo.five" 
d="M-1895 2778l267 -1402l441 1358q185 -60 345 -166t280.5 -242t205.5 -302t124 -343.5t30.5 -369.5t-68.5 -376q-60 -185 -166 -345t-241.5 -280t-301.5 -204t-343.5 -123t-369.5 -30t-376 69q-185 60 -345 165.5t-280 241t-204.5 301t-123 342.5t-30 368.5t68.5 375.5
q82 252 245 454.5t379 331t463 176.5z" />
    <glyph glyph-name="ninetythree.five" 
d="M-2982 1816q86 266 263.5 477t412 338t499.5 162l179 -1417l441 1358q185 -60 345 -166t280.5 -242t205.5 -302t124 -343.5t30.5 -369.5t-68.5 -376q-60 -185 -166 -345t-241.5 -280t-301.5 -204t-343.5 -123t-369.5 -30t-376 69q-185 60 -345 165.5t-280 241t-204.5 301
t-123 342.5t-30 368.5t68.5 375.5z" />
    <glyph glyph-name="ninetyfour.five" 
d="M-1628 1376l441 1358q185 -60 345 -166t280.5 -242t205.5 -302t124 -343.5t30.5 -369.5t-68.5 -376q-60 -185 -166 -345t-241.5 -280t-301.5 -204t-343.5 -123t-369.5 -30t-376 69q-185 60 -345 165.5t-280 241t-204.5 301t-123 342.5t-30 368.5t68.5 375.5
q69 211 196.5 389.5t293 304.5t364.5 201.5t410 89.5z" />
    <glyph glyph-name="ninetyfive.five" 
d="M-1628 2804v-1428l441 1358q185 -60 345 -166t280.5 -242t205.5 -302t124 -343.5t30.5 -369.5t-68.5 -376q-60 -185 -166 -345t-241.5 -280t-301.5 -204t-343.5 -123t-369.5 -30t-376 69q-185 60 -345 165.5t-280 241t-204.5 301t-123 342.5t-30 368.5t68.5 375.5
q96 296 302.5 521.5t479 346t572.5 120.5z" />
    <glyph glyph-name="one.six" 
d="M-1628 1376l526 1328q39 -15 82 -36z" />
    <glyph glyph-name="two.six" 
d="M-1628 1376l526 1328q98 -40 164 -77z" />
    <glyph glyph-name="three.six" 
d="M-1628 1376l526 1328q125 -51 239 -122z" />
    <glyph glyph-name="four.six" 
d="M-1628 1376l526 1328q171 -69 314 -173z" />
    <glyph glyph-name="five.six" 
d="M-1628 1376l526 1328q213 -85 385 -228z" />
    <glyph glyph-name="six.six" 
d="M-1628 1376l526 1328q255 -102 452 -287z" />
    <glyph glyph-name="seven.six" 
d="M-587 2354l-1041 -978l526 1328q299 -118 515 -350z" />
    <glyph glyph-name="eight.six" 
d="M-1628 1376l526 1328q342 -136 574 -418z" />
    <glyph glyph-name="nine.six" 
d="M-1628 1376l526 1328q387 -154 629 -489z" />
    <glyph glyph-name="ten.six" 
d="M-1628 1376l526 1328q215 -86 387.5 -230t291.5 -332z" />
    <glyph glyph-name="eleven.six" 
d="M-1628 1376l526 1328q236 -93 421 -259t304 -381z" />
    <glyph glyph-name="twelve.six" 
d="M-1628 1376l526 1328q258 -102 454.5 -289.5t311.5 -430.5z" />
    <glyph glyph-name="thirteen.six" 
d="M-1628 1376l526 1328q281 -111 487.5 -321t313.5 -481z" />
    <glyph glyph-name="fourteen.six" 
d="M-1628 1376l526 1328q303 -120 519 -354t313 -533z" />
    <glyph glyph-name="fifteen.six" 
d="M-1628 1376l526 1328q325 -129 549 -387.5t308 -584.5z" />
    <glyph glyph-name="sixteen.six" 
d="M-1628 1376l526 1328q347 -138 578 -422.5t299 -638.5z" />
    <glyph glyph-name="seventeen.six" 
d="M-1628 1376l526 1328q246 -98 438 -274.5t306.5 -400.5t146.5 -474z" />
    <glyph glyph-name="eighteen.six" 
d="M-1628 1376l526 1328q260 -103 459 -294t311 -433.5t129 -510.5z" />
    <glyph glyph-name="nineteen.six" 
d="M-1628 1376l526 1328q275 -109 481 -315t313.5 -467.5t107.5 -545.5h-1428z" />
    <glyph glyph-name="twenty.six" 
d="M-1628 1376l526 1328q289 -114 501 -335t314.5 -501.5t84.5 -579.5z" />
    <glyph glyph-name="twentyone.six" 
d="M-1628 1376l526 1328q304 -120 521.5 -356.5t313.5 -537t56 -614.5z" />
    <glyph glyph-name="twentytwo.six" 
d="M-1628 1376l526 1328q159 -63 298 -161.5t245 -219.5t185.5 -265t121 -299t51.5 -320.5t-24 -329.5z" />
    <glyph glyph-name="twentythree.six" 
d="M-1628 1376l526 1328q167 -66 310.5 -170t252 -232.5t185.5 -282t116 -316.5t38 -338t-45 -344z" />
    <glyph glyph-name="twentyfour.six" 
d="M-1628 1376l526 1328q208 -82 379 -222t285.5 -317.5t177.5 -379.5t61 -421.5t-71 -429.5z" />
    <glyph glyph-name="twentyfive.six" 
d="M-1628 1376l526 1328q180 -71 333 -187t265 -259.5t186 -314.5t102 -350.5t7.5 -371t-91.5 -371.5z" />
    <glyph glyph-name="twentysix.six" 
d="M-1628 1376l526 1328q180 -71 333 -187t265 -259.5t186 -314.5t102 -350.5t7.5 -371t-91.5 -371.5l-36 -84z" />
    <glyph glyph-name="twentyseven.six" 
d="M-1628 1376l526 1328q180 -71 333 -187t265 -259.5t186 -314.5t102 -350.5t7.5 -371t-91.5 -371.5q-30 -77 -76 -162z" />
    <glyph glyph-name="twentyeight.six" 
d="M-1628 1376l526 1328q180 -71 333 -187t265 -259.5t186 -314.5t102 -350.5t7.5 -371t-91.5 -371.5q-52 -129 -122 -240z" />
    <glyph glyph-name="twentynine.six" 
d="M-1628 1376l526 1328q180 -71 333 -187t265 -259.5t186 -314.5t102 -350.5t7.5 -371t-91.5 -371.5q-69 -171 -173 -314z" />
    <glyph glyph-name="thirty.six" 
d="M-528 466l-1100 910l526 1328q180 -71 333 -187t265 -259.5t186 -314.5t102 -350.5t7.5 -371t-91.5 -371.5q-85 -214 -228 -384z" />
    <glyph glyph-name="thirtyone.six" 
d="M-1628 1376l526 1328q180 -71 333 -187t265 -259.5t186 -314.5t102 -350.5t7.5 -371t-91.5 -371.5q-103 -258 -288 -452z" />
    <glyph glyph-name="thirtytwo.six" 
d="M-1628 1376l526 1328q180 -71 333 -187t265 -259.5t186 -314.5t102 -350.5t7.5 -371t-91.5 -371.5q-117 -297 -350 -515z" />
    <glyph glyph-name="thirtythree.six" 
d="M-1628 1376l526 1328q180 -71 333 -187t265 -259.5t186 -314.5t102 -350.5t7.5 -371t-91.5 -371.5q-136 -342 -418 -574z" />
    <glyph glyph-name="thirtyfour.six" 
d="M-1628 1376l526 1328q180 -71 333 -187t265 -259.5t186 -314.5t102 -350.5t7.5 -371t-91.5 -371.5q-153 -385 -489 -629z" />
    <glyph glyph-name="thirtyfive.six" 
d="M-1628 1376l526 1328q180 -71 333 -187t265 -259.5t186 -314.5t102 -350.5t7.5 -371t-91.5 -371.5q-86 -215 -230.5 -388t-332.5 -291z" />
    <glyph glyph-name="thirtysix.six" 
d="M-1628 1376l526 1328q180 -71 333 -187t265 -259.5t186 -314.5t102 -350.5t7.5 -371t-91.5 -371.5q-94 -237 -259.5 -421.5t-380.5 -302.5z" />
    <glyph glyph-name="thirtyseven.six" 
d="M-1020 86l-608 1290l526 1328q180 -71 333 -187t265 -259.5t186 -314.5t102 -350.5t7.5 -371t-91.5 -371.5q-103 -259 -290 -455t-430 -309z" />
    <glyph glyph-name="thirtyeight.six" 
d="M-1628 1376l526 1328q180 -71 333 -187t265 -259.5t186 -314.5t102 -350.5t7.5 -371t-91.5 -371.5q-111 -281 -321.5 -487.5t-480.5 -312.5z" />
    <glyph glyph-name="thirtynine.six" 
d="M-1628 1376l526 1328q180 -71 333 -187t265 -259.5t186 -314.5t102 -350.5t7.5 -371t-91.5 -371.5q-120 -303 -354.5 -518.5t-532.5 -311.5z" />
    <glyph glyph-name="fourty.six" 
d="M-1273 -5l-355 1381l526 1328q180 -71 333 -187t265 -259.5t186 -314.5t102 -350.5t7.5 -371t-91.5 -371.5q-129 -325 -387.5 -548.5t-585.5 -306.5z" />
    <glyph glyph-name="fourtyone.six" 
d="M-1360 -24l-268 1400l526 1328q180 -71 333 -187t265 -259.5t186 -314.5t102 -350.5t7.5 -371t-91.5 -371.5q-138 -347 -422 -577t-638 -297z" />
    <glyph glyph-name="fourtytwo.six" 
d="M-1450 -38l-178 1414l526 1328q180 -71 333 -187t265 -259.5t186 -314.5t102 -350.5t7.5 -371t-91.5 -371.5q-98 -246 -274.5 -437.5t-400.5 -305.5t-475 -145z" />
    <glyph glyph-name="fourtythree.six" 
d="M-1539 -46l-89 1422l526 1328q180 -71 333 -187t265 -259.5t186 -314.5t102 -350.5t7.5 -371t-91.5 -371.5q-103 -261 -294 -459.5t-434 -309.5t-511 -127z" />
    <glyph glyph-name="fourtyfour.six" 
d="M-1628 -49v1425l526 1328q180 -71 333 -187t265 -259.5t186 -314.5t102 -350.5t7.5 -371t-91.5 -371.5q-109 -275 -314.5 -480.5t-467.5 -312t-546 -106.5z" />
    <glyph glyph-name="fourtyfive.six" 
d="M-1717 -46l89 1422l526 1328q180 -71 333 -187t265 -259.5t186 -314.5t102 -350.5t7.5 -371t-91.5 -371.5q-115 -289 -335.5 -500.5t-501 -313t-580.5 -82.5z" />
    <glyph glyph-name="fourtysix.six" 
d="M-1807 -38l179 1414l526 1328q180 -71 333 -187t265 -259.5t186 -314.5t102 -350.5t7.5 -371t-91.5 -371.5q-121 -304 -357 -521t-536 -312t-614 -55z" />
    <glyph glyph-name="fourtyseven.six" 
d="M-1895 -23l267 1399l526 1328q180 -71 333 -187t265 -259.5t186 -314.5t102 -350.5t7.5 -371t-91.5 -371.5q-63 -160 -161.5 -298.5t-219.5 -244t-265 -185t-299 -120t-320.5 -50t-329.5 24.5z" />
    <glyph glyph-name="fourtyeight.six" 
d="M-1982 -3l354 1379l526 1328q180 -71 333 -187t265 -259.5t186 -314.5t102 -350.5t7.5 -371t-91.5 -371.5q-66 -167 -170 -310t-232.5 -251t-282 -185t-316 -115.5t-337.5 -37t-344 45.5z" />
    <glyph glyph-name="fourtynine.six" 
d="M-2068 22l440 1354l526 1328q180 -71 333 -187t265 -259.5t186 -314.5t102 -350.5t7.5 -371t-91.5 -371.5q-69 -173 -178.5 -321.5t-245.5 -258t-298 -185t-333.5 -108.5t-354.5 -22.5t-358 67.5z" />
    <glyph glyph-name="fifty.six" 
d="M-2152 52l1050 2652q180 -71 333 -187t265 -259.5t186 -314.5t102 -350.5t7.5 -371t-91.5 -371.5t-187 -333t-259 -264t-314 -184.5t-350.5 -101.5t-370.5 -7t-371 92z" />
    <glyph glyph-name="fiftyone.six" 
d="M-2152 52q-47 18 -82 36l606 1288l526 1328q180 -71 333 -187t265 -259.5t186 -314.5t102 -350.5t7.5 -371t-91.5 -371.5t-187 -333t-259 -264t-314 -184.5t-350.5 -101.5t-370.5 -7t-371 92z" />
    <glyph glyph-name="fiftytwo.six" 
d="M-2152 52q-77 30 -162 76l686 1248l526 1328q180 -71 333 -187t265 -259.5t186 -314.5t102 -350.5t7.5 -371t-91.5 -371.5t-187 -333t-259 -264t-314 -184.5t-350.5 -101.5t-370.5 -7t-371 92z" />
    <glyph glyph-name="fiftythree.six" 
d="M-2152 52q-127 51 -239 122l763 1202l526 1328q180 -71 333 -187t265 -259.5t186 -314.5t102 -350.5t7.5 -371t-91.5 -371.5t-187 -333t-259 -264t-314 -184.5t-350.5 -101.5t-370.5 -7t-371 92z" />
    <glyph glyph-name="fiftyfour.six" 
d="M-2152 52q-167 66 -313 172l837 1152l526 1328q180 -71 333 -187t265 -259.5t186 -314.5t102 -350.5t7.5 -371t-91.5 -371.5t-187 -333t-259 -264t-314 -184.5t-350.5 -101.5t-370.5 -7t-371 92z" />
    <glyph glyph-name="fiftyfive.six" 
d="M-2152 52q-212 84 -385 227l909 1097l526 1328q180 -71 333 -187t265 -259.5t186 -314.5t102 -350.5t7.5 -371t-91.5 -371.5t-187 -333t-259 -264t-314 -184.5t-350.5 -101.5t-370.5 -7t-371 92z" />
    <glyph glyph-name="fiftysix.six" 
d="M-2152 52q-253 99 -452 286l976 1038l526 1328q180 -71 333 -187t265 -259.5t186 -314.5t102 -350.5t7.5 -371t-91.5 -371.5t-187 -333t-259 -264t-314 -184.5t-350.5 -101.5t-370.5 -7t-371 92z" />
    <glyph glyph-name="fiftyseven.six" 
d="M-2152 52q-300 119 -514 348l1038 976l526 1328q180 -71 333 -187t265 -259.5t186 -314.5t102 -350.5t7.5 -371t-91.5 -371.5t-187 -333t-259 -264t-314 -184.5t-350.5 -101.5t-370.5 -7t-371 92z" />
    <glyph glyph-name="fiftyeight.six" 
d="M-2152 52q-342 136 -574 416l1098 908l526 1328q180 -71 333 -187t265 -259.5t186 -314.5t102 -350.5t7.5 -371t-91.5 -371.5t-187 -333t-259 -264t-314 -184.5t-350.5 -101.5t-370.5 -7t-371 92z" />
    <glyph glyph-name="fiftynine.six" 
d="M-2152 52q-385 153 -629 487l1153 837l526 1328q180 -71 333 -187t265 -259.5t186 -314.5t102 -350.5t7.5 -371t-91.5 -371.5t-187 -333t-259 -264t-314 -184.5t-350.5 -101.5t-370.5 -7t-371 92z" />
    <glyph glyph-name="sixty.six" 
d="M-2152 52q-215 86 -388 230t-291 331l1203 763l526 1328q180 -71 333 -187t265 -259.5t186 -314.5t102 -350.5t7.5 -371t-91.5 -371.5t-187 -333t-259 -264t-314 -184.5t-350.5 -101.5t-370.5 -7t-371 92z" />
    <glyph glyph-name="sixtyone.six" 
d="M-2152 52q-237 93 -422 258.5t-303 379.5l1249 686l526 1328q180 -71 333 -187t265 -259.5t186 -314.5t102 -350.5t7.5 -371t-91.5 -371.5t-187 -333t-259 -264t-314 -184.5t-350.5 -101.5t-370.5 -7t-371 92z" />
    <glyph glyph-name="sixtytwo.six" 
d="M-2152 52q-259 102 -455.5 289t-310.5 429l1290 606l526 1328q180 -71 333 -187t265 -259.5t186 -314.5t102 -350.5t7.5 -371t-91.5 -371.5t-187 -333t-259 -264t-314 -184.5t-350.5 -101.5t-370.5 -7t-371 92z" />
    <glyph glyph-name="sixtythree.six" 
d="M-2152 52q-281 111 -487.5 320.5t-313.5 479.5l1325 524l526 1328q180 -71 333 -187t265 -259.5t186 -314.5t102 -350.5t7.5 -371t-91.5 -371.5t-187 -333t-259 -264t-314 -184.5t-350.5 -101.5t-370.5 -7t-371 92z" />
    <glyph glyph-name="sixtyfour.six" 
d="M-2152 52q-304 120 -519.5 353t-311.5 531l1355 440l526 1328q180 -71 333 -187t265 -259.5t186 -314.5t102 -350.5t7.5 -371t-91.5 -371.5t-187 -333t-259 -264t-314 -184.5t-350.5 -101.5t-370.5 -7t-371 92z" />
    <glyph glyph-name="sixtyfive.six" 
d="M-2152 52q-326 129 -549.5 386.5t-306.5 583.5l1380 354l526 1328q180 -71 333 -187t265 -259.5t186 -314.5t102 -350.5t7.5 -371t-91.5 -371.5t-187 -333t-259 -264t-314 -184.5t-350.5 -101.5t-370.5 -7t-371 92z" />
    <glyph glyph-name="sixtysix.six" 
d="M-2152 52q-348 137 -578 420t-298 637l1400 267l526 1328q180 -71 333 -187t265 -259.5t186 -314.5t102 -350.5t7.5 -371t-91.5 -371.5t-187 -333t-259 -264t-314 -184.5t-350.5 -101.5t-370.5 -7t-371 92z" />
    <glyph glyph-name="sixtyseven.six" 
d="M-2152 52q-370 146 -606 455.5t-284 690.5l1414 178l526 1328q180 -71 333 -187t265 -259.5t186 -314.5t102 -350.5t7.5 -371t-91.5 -371.5t-187 -333t-259 -264t-314 -184.5t-350.5 -101.5t-370.5 -7t-371 92z" />
    <glyph glyph-name="sixtyeight.six" 
d="M-2152 52q-261 103 -460 293t-310 432t-128 509l1422 90l526 1328q180 -71 333 -187t265 -259.5t186 -314.5t102 -350.5t7.5 -371t-91.5 -371.5t-187 -333t-259 -264t-314 -184.5t-350.5 -101.5t-370.5 -7t-371 92z" />
    <glyph glyph-name="sixtynine.six" 
d="M-2152 52q-275 109 -480.5 314t-313 465.5t-107.5 543.5l1425 1l526 1328q180 -71 333 -187t265 -259.5t186 -314.5t102 -350.5t7.5 -371t-91.5 -371.5t-187 -333t-259 -264t-314 -184.5t-350.5 -101.5t-370.5 -7t-371 92z" />
    <glyph glyph-name="seventy.six" 
d="M-2152 52q-290 115 -502 335t-313.5 500t-82.5 579l1422 -90l526 1328q180 -71 333 -187t265 -259.5t186 -314.5t102 -350.5t7.5 -371t-91.5 -371.5t-187 -333t-259 -264t-314 -184.5t-350.5 -101.5t-370.5 -7t-371 92z" />
    <glyph glyph-name="seventyone.six" 
d="M-2152 52q-304 120 -521.5 355.5t-312.5 534.5t-55 612l1413 -178l526 1328q180 -71 333 -187t265 -259.5t186 -314.5t102 -350.5t7.5 -371t-91.5 -371.5t-187 -333t-259 -264t-314 -184.5t-350.5 -101.5t-370.5 -7t-371 92z" />
    <glyph glyph-name="seventytwo.six" 
d="M-2152 52q-318 126 -540.5 376.5t-310 568.5t-24.5 645l1399 -266l526 1328q180 -71 333 -187t265 -259.5t186 -314.5t102 -350.5t7.5 -371t-91.5 -371.5t-187 -333t-259 -264t-314 -184.5t-350.5 -101.5t-370.5 -7t-371 92z" />
    <glyph glyph-name="seventythree.six" 
d="M-2152 52q-167 66 -310.5 170t-252 232t-185.5 280.5t-115 315t-37 337t45 343.5l1379 -354l526 1328q180 -71 333 -187t265 -259.5t186 -314.5t102 -350.5t7.5 -371t-91.5 -371.5t-187 -333t-259 -264t-314 -184.5t-350.5 -101.5t-370.5 -7t-371 92z" />
    <glyph glyph-name="seventyfour.six" 
d="M-2152 52q-174 69 -322 178.5t-258 244.5t-186 296.5t-109 332t-22.5 353.5t67.5 358l1354 -439l526 1328q180 -71 333 -187t265 -259.5t186 -314.5t102 -350.5t7.5 -371t-91.5 -371.5t-187 -333t-259 -264t-314 -184.5t-350.5 -101.5t-370.5 -7t-371 92z" />
    <glyph glyph-name="seventyfive.six" 
d="M-2952 1900l1324 -524l526 1328q180 -71 333 -187t265 -259.5t186 -314.5t102 -350.5t7.5 -371t-91.5 -371.5t-187 -333t-259 -264t-314 -184.5t-350.5 -101.5t-370.5 -7t-371 92t-333.5 186.5t-264.5 258.5t-185 313.5t-101.5 349.5t-7 369.5t91.5 370.5z" />
    <glyph glyph-name="seventysix.six" 
d="M-2916 1982l1288 -606l526 1328q180 -71 333 -187t265 -259.5t186 -314.5t102 -350.5t7.5 -371t-91.5 -371.5t-187 -333t-259 -264t-314 -184.5t-350.5 -101.5t-370.5 -7t-371 92t-333.5 186.5t-264.5 258.5t-185 313.5t-101.5 349.5t-7 369.5t91.5 370.5q15 39 36 82z
" />
    <glyph glyph-name="seventyseven.six" 
d="M-2876 2062l1248 -686l526 1328q180 -71 333 -187t265 -259.5t186 -314.5t102 -350.5t7.5 -371t-91.5 -371.5t-187 -333t-259 -264t-314 -184.5t-350.5 -101.5t-370.5 -7t-371 92t-333.5 186.5t-264.5 258.5t-185 313.5t-101.5 349.5t-7 369.5t91.5 370.5q30 77 76 162z
" />
    <glyph glyph-name="seventyeight.six" 
d="M-1628 1376l526 1328q180 -71 333 -187t265 -259.5t186 -314.5t102 -350.5t7.5 -371t-91.5 -371.5t-187 -333t-259 -264t-314 -184.5t-350.5 -101.5t-370.5 -7t-371 92t-333.5 186.5t-264.5 258.5t-185 313.5t-101.5 349.5t-7 369.5t91.5 370.5q51 127 122 239z" />
    <glyph glyph-name="seventynine.six" 
d="M-1628 1376l526 1328q180 -71 333 -187t265 -259.5t186 -314.5t102 -350.5t7.5 -371t-91.5 -371.5t-187 -333t-259 -264t-314 -184.5t-350.5 -101.5t-370.5 -7t-371 92t-333.5 186.5t-264.5 258.5t-185 313.5t-101.5 349.5t-7 369.5t91.5 370.5q65 165 171 313z" />
    <glyph glyph-name="eighty.six" 
d="M-1628 1376l526 1328q180 -71 333 -187t265 -259.5t186 -314.5t102 -350.5t7.5 -371t-91.5 -371.5t-187 -333t-259 -264t-314 -184.5t-350.5 -101.5t-370.5 -7t-371 92t-333.5 186.5t-264.5 258.5t-185 313.5t-101.5 349.5t-7 369.5t91.5 370.5q84 212 227 385z" />
    <glyph glyph-name="eightyone.six" 
d="M-1628 1376l526 1328q180 -71 333 -187t265 -259.5t186 -314.5t102 -350.5t7.5 -371t-91.5 -371.5t-187 -333t-259 -264t-314 -184.5t-350.5 -101.5t-370.5 -7t-371 92t-333.5 186.5t-264.5 258.5t-185 313.5t-101.5 349.5t-7 369.5t91.5 370.5q100 254 285 451z" />
    <glyph glyph-name="eightytwo.six" 
d="M-2604 2415l976 -1039l526 1328q180 -71 333 -187t265 -259.5t186 -314.5t102 -350.5t7.5 -371t-91.5 -371.5t-187 -333t-259 -264t-314 -184.5t-350.5 -101.5t-370.5 -7t-371 92t-333.5 186.5t-264.5 258.5t-185 313.5t-101.5 349.5t-7 369.5t91.5 370.5
q119 300 348 515z" />
    <glyph glyph-name="eightythree.six" 
d="M-2536 2474l908 -1098l526 1328q180 -71 333 -187t265 -259.5t186 -314.5t102 -350.5t7.5 -371t-91.5 -371.5t-187 -333t-259 -264t-314 -184.5t-350.5 -101.5t-370.5 -7t-371 92t-333.5 186.5t-264.5 258.5t-185 313.5t-101.5 349.5t-7 369.5t91.5 370.5
q136 342 416 574z" />
    <glyph glyph-name="eightyfour.six" 
d="M-1628 1376l526 1328q180 -71 333 -187t265 -259.5t186 -314.5t102 -350.5t7.5 -371t-91.5 -371.5t-187 -333t-259 -264t-314 -184.5t-350.5 -101.5t-370.5 -7t-371 92t-333.5 186.5t-264.5 258.5t-185 313.5t-101.5 349.5t-7 369.5t91.5 370.5q152 385 486 629z" />
    <glyph glyph-name="eightyfive.six" 
d="M-2392 2580l764 -1204l526 1328q180 -71 333 -187t265 -259.5t186 -314.5t102 -350.5t7.5 -371t-91.5 -371.5t-187 -333t-259 -264t-314 -184.5t-350.5 -101.5t-370.5 -7t-371 92t-333.5 186.5t-264.5 258.5t-185 313.5t-101.5 349.5t-7 369.5t91.5 370.5q85 214 229 387
t331 293z" />
    <glyph glyph-name="eightysix.six" 
d="M-1628 1376l526 1328q180 -71 333 -187t265 -259.5t186 -314.5t102 -350.5t7.5 -371t-91.5 -371.5t-187 -333t-259 -264t-314 -184.5t-350.5 -101.5t-370.5 -7t-371 92t-333.5 186.5t-264.5 258.5t-185 313.5t-101.5 349.5t-7 369.5t91.5 370.5q94 237 258.5 421.5
t378.5 303.5z" />
    <glyph glyph-name="eightyseven.six" 
d="M-1628 1376l526 1328q180 -71 333 -187t265 -259.5t186 -314.5t102 -350.5t7.5 -371t-91.5 -371.5t-187 -333t-259 -264t-314 -184.5t-350.5 -101.5t-370.5 -7t-371 92t-333.5 186.5t-264.5 258.5t-185 313.5t-101.5 349.5t-7 369.5t91.5 370.5q103 259 289.5 455.5
t427.5 310.5z" />
    <glyph glyph-name="eightyeight.six" 
d="M-2152 2702l524 -1326l526 1328q180 -71 333 -187t265 -259.5t186 -314.5t102 -350.5t7.5 -371t-91.5 -371.5t-187 -333t-259 -264t-314 -184.5t-350.5 -101.5t-370.5 -7t-371 92t-333.5 186.5t-264.5 258.5t-185 313.5t-101.5 349.5t-7 369.5t91.5 370.5
q111 281 320.5 488t479.5 314z" />
    <glyph glyph-name="eightynine.six" 
d="M-2069 2733l441 -1357l526 1328q180 -71 333 -187t265 -259.5t186 -314.5t102 -350.5t7.5 -371t-91.5 -371.5t-187 -333t-259 -264t-314 -184.5t-350.5 -101.5t-370.5 -7t-371 92t-333.5 186.5t-264.5 258.5t-185 313.5t-101.5 349.5t-7 369.5t91.5 370.5
q120 303 353 519t530 314z" />
    <glyph glyph-name="ninety.six" 
d="M-1628 1376l526 1328q180 -71 333 -187t265 -259.5t186 -314.5t102 -350.5t7.5 -371t-91.5 -371.5t-187 -333t-259 -264t-314 -184.5t-350.5 -101.5t-370.5 -7t-371 92t-333.5 186.5t-264.5 258.5t-185 313.5t-101.5 349.5t-7 369.5t91.5 370.5q129 325 386.5 549
t583.5 309z" />
    <glyph glyph-name="ninetyone.six" 
d="M-1628 1376l526 1328q180 -71 333 -187t265 -259.5t186 -314.5t102 -350.5t7.5 -371t-91.5 -371.5t-187 -333t-259 -264t-314 -184.5t-350.5 -101.5t-370.5 -7t-371 92t-333.5 186.5t-264.5 258.5t-185 313.5t-101.5 349.5t-7 369.5t91.5 370.5q137 347 420.5 578
t636.5 300z" />
    <glyph glyph-name="ninetytwo.six" 
d="M-1806 2792l178 -1416l526 1328q180 -71 333 -187t265 -259.5t186 -314.5t102 -350.5t7.5 -371t-91.5 -371.5t-187 -333t-259 -264t-314 -184.5t-350.5 -101.5t-370.5 -7t-371 92t-333.5 186.5t-264.5 258.5t-185 313.5t-101.5 349.5t-7 369.5t91.5 370.5q97 246 273 438
t399.5 307t473.5 147z" />
    <glyph glyph-name="ninetythree.six" 
d="M-2952 1900q103 260 293 459.5t432 311.5t509 130l90 -1425l526 1328q180 -71 333 -187t265 -259.5t186 -314.5t102 -350.5t7.5 -371t-91.5 -371.5t-187 -333t-259 -264t-314 -184.5t-350.5 -101.5t-370.5 -7t-371 92t-333.5 186.5t-264.5 258.5t-185 313.5t-101.5 349.5
t-7 369.5t91.5 370.5z" />
    <glyph glyph-name="ninetyfour.six" 
d="M-1628 1376l526 1328q180 -71 333 -187t265 -259.5t186 -314.5t102 -350.5t7.5 -371t-91.5 -371.5t-187 -333t-259 -264t-314 -184.5t-350.5 -101.5t-370.5 -7t-371 92t-333.5 186.5t-264.5 258.5t-185 313.5t-101.5 349.5t-7 369.5t91.5 370.5q109 275 314 481t466 314
t544 109v-1428z" />
    <glyph glyph-name="one.seven" 
d="M-1628 1376l608 1292q54 -26 80 -40z" />
    <glyph glyph-name="two.seven" 
d="M-1628 1376l608 1292q82 -39 159 -87z" />
    <glyph glyph-name="three.seven" 
d="M-1628 1376l608 1292q123 -59 231 -136z" />
    <glyph glyph-name="four.seven" 
d="M-1628 1376l608 1292q162 -76 303 -192z" />
    <glyph glyph-name="five.seven" 
d="M-1628 1376l608 1292q206 -98 370 -251z" />
    <glyph glyph-name="six.seven" 
d="M-1628 1376l608 1292q248 -117 433 -314z" />
    <glyph glyph-name="seven.seven" 
d="M-528 2286l-1100 -910l608 1292q292 -137 492 -382z" />
    <glyph glyph-name="eight.seven" 
d="M-1628 1376l608 1292q331 -155 547 -452z" />
    <glyph glyph-name="nine.seven" 
d="M-1628 1376l608 1292q377 -178 597 -527z" />
    <glyph glyph-name="ten.seven" 
d="M-1628 1376l608 1292q209 -98 372.5 -253t270.5 -351z" />
    <glyph glyph-name="eleven.seven" 
d="M-1628 1376l608 1292q230 -108 404.5 -285t279.5 -399z" />
    <glyph glyph-name="twelve.seven" 
d="M-1628 1376l608 1292q252 -119 436 -318t283 -448z" />
    <glyph glyph-name="thirteen.seven" 
d="M-1628 1376l608 1292q273 -128 466.5 -351t283.5 -499z" />
    <glyph glyph-name="fourteen.seven" 
d="M-1628 1376l608 1292q197 -92 355 -237.5t263 -322t157 -377.5z" />
    <glyph glyph-name="fifteen.seven" 
d="M-1628 1376l608 1292q316 -149 523.5 -421t270.5 -603z" />
    <glyph glyph-name="sixteen.seven" 
d="M-1628 1376l608 1292q225 -106 398.5 -279.5t277 -386t133.5 -448.5z" />
    <glyph glyph-name="seventeen.seven" 
d="M-1628 1376l608 1292q240 -112 420.5 -300.5t280.5 -419t116 -482.5z" />
    <glyph glyph-name="eighteen.seven" 
d="M-1628 1376l608 1292q253 -119 440 -322t283 -452.5t97 -517.5h-1428z" />
    <glyph glyph-name="nineteen.seven" 
d="M-1628 1376l608 1292q268 -126 460.5 -344t283.5 -486t74 -552z" />
    <glyph glyph-name="twenty.seven" 
d="M-1628 1376l608 1292q281 -133 479 -366t283 -519t48 -584z" />
    <glyph glyph-name="twentyone.seven" 
d="M-1628 1376l608 1292q148 -70 276 -170.5t224 -221t167.5 -260.5t108 -288.5t44 -306.5t-24.5 -313z" />
    <glyph glyph-name="twentytwo.seven" 
d="M-1628 1376l608 1292q155 -73 287.5 -179.5t231 -234t168 -277t103 -306t30.5 -323t-44 -327.5z" />
    <glyph glyph-name="twentythree.seven" 
d="M-1628 1376l608 1292q194 -92 351.5 -234t260.5 -316.5t158 -370t50 -404.5t-70 -409z" />
    <glyph glyph-name="twentyfour.seven" 
d="M-1628 1376l608 1292q202 -95 364 -245.5t265.5 -335t153.5 -389.5t34.5 -424t-97.5 -424z" />
    <glyph glyph-name="twentyfive.seven" 
d="M-1628 1376l608 1292q176 -83 321.5 -208t248 -275t165.5 -325.5t80 -356.5t-15.5 -370t-115.5 -365z" />
    <glyph glyph-name="twentysix.seven" 
d="M-1628 1376l608 1292q176 -83 321.5 -208t248 -275t165.5 -325.5t80 -356.5t-15.5 -370t-115.5 -365q-16 -35 -41 -81z" />
    <glyph glyph-name="twentyseven.seven" 
d="M-1628 1376l608 1292q176 -83 321.5 -208t248 -275t165.5 -325.5t80 -356.5t-15.5 -370t-115.5 -365q-36 -77 -86 -157z" />
    <glyph glyph-name="twentyeight.seven" 
d="M-1628 1376l608 1292q176 -83 321.5 -208t248 -275t165.5 -325.5t80 -356.5t-15.5 -370t-115.5 -365q-59 -125 -137 -232z" />
    <glyph glyph-name="twentynine.seven" 
d="M-1628 1376l608 1292q176 -83 321.5 -208t248 -275t165.5 -325.5t80 -356.5t-15.5 -370t-115.5 -365q-76 -162 -192 -303z" />
    <glyph glyph-name="thirty.seven" 
d="M-587 398l-1041 978l608 1292q176 -83 321.5 -208t248 -275t165.5 -325.5t80 -356.5t-15.5 -370t-115.5 -365q-98 -206 -251 -370z" />
    <glyph glyph-name="thirtyone.seven" 
d="M-1628 1376l608 1292q176 -83 321.5 -208t248 -275t165.5 -325.5t80 -356.5t-15.5 -370t-115.5 -365q-117 -248 -315 -434z" />
    <glyph glyph-name="thirtytwo.seven" 
d="M-1628 1376l608 1292q176 -83 321.5 -208t248 -275t165.5 -325.5t80 -356.5t-15.5 -370t-115.5 -365q-135 -289 -382 -492z" />
    <glyph glyph-name="thirtythree.seven" 
d="M-1628 1376l608 1292q176 -83 321.5 -208t248 -275t165.5 -325.5t80 -356.5t-15.5 -370t-115.5 -365q-155 -331 -452 -546z" />
    <glyph glyph-name="thirtyfour.seven" 
d="M-1628 1376l608 1292q176 -83 321.5 -208t248 -275t165.5 -325.5t80 -356.5t-15.5 -370t-115.5 -365q-177 -375 -528 -597z" />
    <glyph glyph-name="thirtyfive.seven" 
d="M-1628 1376l608 1292q176 -83 321.5 -208t248 -275t165.5 -325.5t80 -356.5t-15.5 -370t-115.5 -365q-99 -210 -254 -373t-350 -269z" />
    <glyph glyph-name="thirtysix.seven" 
d="M-1628 1376l608 1292q176 -83 321.5 -208t248 -275t165.5 -325.5t80 -356.5t-15.5 -370t-115.5 -365q-108 -231 -285 -405t-399 -277z" />
    <glyph glyph-name="thirtyseven.seven" 
d="M-1102 50l-526 1326l608 1292q176 -83 321.5 -208t248 -275t165.5 -325.5t80 -356.5t-15.5 -370t-115.5 -365q-119 -252 -318 -436t-448 -282z" />
    <glyph glyph-name="thirtyeight.seven" 
d="M-1628 1376l608 1292q176 -83 321.5 -208t248 -275t165.5 -325.5t80 -356.5t-15.5 -370t-115.5 -365q-129 -274 -351.5 -466.5t-499.5 -281.5z" />
    <glyph glyph-name="thirtynine.seven" 
d="M-1628 1376l608 1292q176 -83 321.5 -208t248 -275t165.5 -325.5t80 -356.5t-15.5 -370t-115.5 -365q-138 -295 -385.5 -495.5t-551.5 -277.5z" />
    <glyph glyph-name="fourty.seven" 
d="M-1361 -24l-267 1400l608 1292q176 -83 321.5 -208t248 -275t165.5 -325.5t80 -356.5t-15.5 -370t-115.5 -365q-149 -316 -421 -522.5t-604 -269.5z" />
    <glyph glyph-name="fourtyone.seven" 
d="M-1449 -38l-179 1414l608 1292q176 -83 321.5 -208t248 -275t165.5 -325.5t80 -356.5t-15.5 -370t-115.5 -365q-159 -338 -457 -550t-656 -256z" />
    <glyph glyph-name="fourtytwo.seven" 
d="M-1539 -46l-89 1422l608 1292q176 -83 321.5 -208t248 -275t165.5 -325.5t80 -356.5t-15.5 -370t-115.5 -365q-170 -360 -494.5 -575.5t-708.5 -238.5z" />
    <glyph glyph-name="fourtythree.seven" 
d="M-1628 -49v1425l608 1292q176 -83 321.5 -208t248 -275t165.5 -325.5t80 -356.5t-15.5 -370t-115.5 -365q-119 -254 -322.5 -440.5t-452.5 -282t-517 -94.5z" />
    <glyph glyph-name="fourtyfour.seven" 
d="M-1717 -46l89 1422l608 1292q176 -83 321.5 -208t248 -275t165.5 -325.5t80 -356.5t-15.5 -370t-115.5 -365q-126 -268 -344 -460t-486 -282t-551 -72z" />
    <glyph glyph-name="fourtyfive.seven" 
d="M-1806 -38l178 1414l608 1292q176 -83 321.5 -208t248 -275t165.5 -325.5t80 -356.5t-15.5 -370t-115.5 -365q-133 -282 -366.5 -479t-519.5 -281t-584 -46z" />
    <glyph glyph-name="fourtysix.seven" 
d="M-1895 -23l267 1399l608 1292q176 -83 321.5 -208t248 -275t165.5 -325.5t80 -356.5t-15.5 -370t-115.5 -365q-139 -296 -388.5 -498t-554.5 -277.5t-616 -15.5z" />
    <glyph glyph-name="fourtyseven.seven" 
d="M-1982 -4l354 1380l608 1292q176 -83 321.5 -208t248 -275t165.5 -325.5t80 -356.5t-15.5 -370t-115.5 -365q-73 -155 -179.5 -287t-234 -230.5t-276.5 -167.5t-306 -102t-323 -30t-327 45z" />
    <glyph glyph-name="fourtyeight.seven" 
d="M-2068 22l440 1354l608 1292q176 -83 321.5 -208t248 -275t165.5 -325.5t80 -356.5t-15.5 -370t-115.5 -365q-92 -194 -234 -351t-316.5 -260t-369.5 -157t-403.5 -48.5t-408.5 70.5z" />
    <glyph glyph-name="fourtynine.seven" 
d="M-2152 52l524 1324l608 1292q176 -83 321.5 -208t248 -275t165.5 -325.5t80 -356.5t-15.5 -370t-115.5 -365q-95 -202 -245.5 -364t-334.5 -264.5t-389 -152t-423.5 -33.5t-423.5 98z" />
    <glyph glyph-name="fifty.seven" 
d="M-2234 88l1214 2580q176 -83 321.5 -208t248 -275t165.5 -325.5t80 -356.5t-15.5 -370t-115.5 -365q-124 -263 -338.5 -453.5t-468.5 -281t-541 -80t-550 134.5z" />
    <glyph glyph-name="fiftyone.seven" 
d="M-2234 88q-28 12 -80 40l686 1248l608 1292q176 -83 321.5 -208t248 -275t165.5 -325.5t80 -356.5t-15.5 -370t-115.5 -365q-124 -263 -338.5 -453.5t-468.5 -281t-541 -80t-550 134.5z" />
    <glyph glyph-name="fiftytwo.seven" 
d="M-2234 88q-78 35 -157 86l763 1202l608 1292q176 -83 321.5 -208t248 -275t165.5 -325.5t80 -356.5t-15.5 -370t-115.5 -365q-124 -263 -338.5 -453.5t-468.5 -281t-541 -80t-550 134.5z" />
    <glyph glyph-name="fiftythree.seven" 
d="M-2234 88q-121 55 -231 136l837 1152l608 1292q176 -83 321.5 -208t248 -275t165.5 -325.5t80 -356.5t-15.5 -370t-115.5 -365q-124 -263 -338.5 -453.5t-468.5 -281t-541 -80t-550 134.5z" />
    <glyph glyph-name="fiftyfour.seven" 
d="M-2234 88q-165 77 -302 190l908 1098l608 1292q176 -83 321.5 -208t248 -275t165.5 -325.5t80 -356.5t-15.5 -370t-115.5 -365q-124 -263 -338.5 -453.5t-468.5 -281t-541 -80t-550 134.5z" />
    <glyph glyph-name="fiftyfive.seven" 
d="M-2234 88q-207 96 -370 250l976 1038l608 1292q176 -83 321.5 -208t248 -275t165.5 -325.5t80 -356.5t-15.5 -370t-115.5 -365q-124 -263 -338.5 -453.5t-468.5 -281t-541 -80t-550 134.5z" />
    <glyph glyph-name="fiftysix.seven" 
d="M-2234 88q-245 114 -433 313l1039 975l608 1292q176 -83 321.5 -208t248 -275t165.5 -325.5t80 -356.5t-15.5 -370t-115.5 -365q-124 -263 -338.5 -453.5t-468.5 -281t-541 -80t-550 134.5z" />
    <glyph glyph-name="fiftyseven.seven" 
d="M-2234 88q-288 135 -492 379l1098 909l608 1292q176 -83 321.5 -208t248 -275t165.5 -325.5t80 -356.5t-15.5 -370t-115.5 -365q-124 -263 -338.5 -453.5t-468.5 -281t-541 -80t-550 134.5z" />
    <glyph glyph-name="fiftyeight.seven" 
d="M-2234 88q-332 156 -547 451l1153 837l608 1292q176 -83 321.5 -208t248 -275t165.5 -325.5t80 -356.5t-15.5 -370t-115.5 -365q-124 -263 -338.5 -453.5t-468.5 -281t-541 -80t-550 134.5z" />
    <glyph glyph-name="fiftynine.seven" 
d="M-2234 88q-376 177 -598 525l1204 763l608 1292q176 -83 321.5 -208t248 -275t165.5 -325.5t80 -356.5t-15.5 -370t-115.5 -365q-124 -263 -338.5 -453.5t-468.5 -281t-541 -80t-550 134.5z" />
    <glyph glyph-name="sixty.seven" 
d="M-2234 88q-210 98 -373 252.5t-270 349.5l1249 686l608 1292q176 -83 321.5 -208t248 -275t165.5 -325.5t80 -356.5t-15.5 -370t-115.5 -365q-124 -263 -338.5 -453.5t-468.5 -281t-541 -80t-550 134.5z" />
    <glyph glyph-name="sixtyone.seven" 
d="M-2234 88q-231 108 -405 284t-278 398l1289 606l608 1292q176 -83 321.5 -208t248 -275t165.5 -325.5t80 -356.5t-15.5 -370t-115.5 -365q-124 -263 -338.5 -453.5t-468.5 -281t-541 -80t-550 134.5z" />
    <glyph glyph-name="sixtytwo.seven" 
d="M-2234 88q-253 119 -436.5 317t-282.5 447l1325 524l608 1292q176 -83 321.5 -208t248 -275t165.5 -325.5t80 -356.5t-15.5 -370t-115.5 -365q-124 -263 -338.5 -453.5t-468.5 -281t-541 -80t-550 134.5z" />
    <glyph glyph-name="sixtythree.seven" 
d="M-2234 88q-274 128 -466.5 350t-282.5 498l1355 440l608 1292q176 -83 321.5 -208t248 -275t165.5 -325.5t80 -356.5t-15.5 -370t-115.5 -365q-124 -263 -338.5 -453.5t-468.5 -281t-541 -80t-550 134.5z" />
    <glyph glyph-name="sixtyfour.seven" 
d="M-2234 88q-295 138 -495.5 384.5t-278.5 549.5l1380 354l608 1292q176 -83 321.5 -208t248 -275t165.5 -325.5t80 -356.5t-15.5 -370t-115.5 -365q-124 -263 -338.5 -453.5t-468.5 -281t-541 -80t-550 134.5z" />
    <glyph glyph-name="sixtyfive.seven" 
d="M-2234 88q-317 149 -524 420t-270 602l1400 266l608 1292q176 -83 321.5 -208t248 -275t165.5 -325.5t80 -356.5t-15.5 -370t-115.5 -365q-124 -263 -338.5 -453.5t-468.5 -281t-541 -80t-550 134.5z" />
    <glyph glyph-name="sixtysix.seven" 
d="M-2234 88q-338 158 -550 455t-258 654l1414 179l608 1292q176 -83 321.5 -208t248 -275t165.5 -325.5t80 -356.5t-15.5 -370t-115.5 -365q-124 -263 -338.5 -453.5t-468.5 -281t-541 -80t-550 134.5z" />
    <glyph glyph-name="sixtyseven.seven" 
d="M-2234 88q-240 112 -420 300t-280 418t-116 481l1422 89l608 1292q176 -83 321.5 -208t248 -275t165.5 -325.5t80 -356.5t-15.5 -370t-115.5 -365q-124 -263 -338.5 -453.5t-468.5 -281t-541 -80t-550 134.5z" />
    <glyph glyph-name="sixtyeight.seven" 
d="M-2234 88q-254 119 -440.5 321.5t-282.5 451t-96 515.5h1425l608 1292q176 -83 321.5 -208t248 -275t165.5 -325.5t80 -356.5t-15.5 -370t-115.5 -365q-124 -263 -338.5 -453.5t-468.5 -281t-541 -80t-550 134.5z" />
    <glyph glyph-name="sixtynine.seven" 
d="M-2234 88q-268 126 -460 343t-283 484t-73 550l1422 -89l608 1292q176 -83 321.5 -208t248 -275t165.5 -325.5t80 -356.5t-15.5 -370t-115.5 -365q-124 -263 -338.5 -453.5t-468.5 -281t-541 -80t-550 134.5z" />
    <glyph glyph-name="seventy.seven" 
d="M-2234 88q-282 133 -479.5 365.5t-282 518.5t-46.5 583l1414 -179l608 1292q176 -83 321.5 -208t248 -275t165.5 -325.5t80 -356.5t-15.5 -370t-115.5 -365q-124 -263 -338.5 -453.5t-468.5 -281t-541 -80t-550 134.5z" />
    <glyph glyph-name="seventyone.seven" 
d="M-2234 88q-148 70 -276 170t-224 220t-167.5 259.5t-107.5 287.5t-43 305t25 312l1399 -266l608 1292q176 -83 321.5 -208t248 -275t165.5 -325.5t80 -356.5t-15.5 -370t-115.5 -365q-124 -263 -338.5 -453.5t-468.5 -281t-541 -80t-550 134.5z" />
    <glyph glyph-name="seventytwo.seven" 
d="M-2234 88q-155 73 -287.5 179.5t-231 233.5t-167.5 275.5t-102 304.5t-30.5 321.5t44.5 326.5l1380 -353l608 1292q176 -83 321.5 -208t248 -275t165.5 -325.5t80 -356.5t-15.5 -370t-115.5 -365q-124 -263 -338.5 -453.5t-468.5 -281t-541 -80t-550 134.5z" />
    <glyph glyph-name="seventythree.seven" 
d="M-2234 88q-195 91 -352 233t-260 315.5t-157.5 368t-49 403t70.5 408.5l1354 -440l608 1292q176 -83 321.5 -208t248 -275t165.5 -325.5t80 -356.5t-15.5 -370t-115.5 -365q-124 -263 -338.5 -453.5t-468.5 -281t-541 -80t-550 134.5z" />
    <glyph glyph-name="seventyfour.seven" 
d="M-2234 88q-202 95 -364 244.5t-265 333t-152.5 388t-34 422.5t97.5 423l1324 -523l608 1292q176 -83 321.5 -208t248 -275t165.5 -325.5t80 -356.5t-15.5 -370t-115.5 -365q-124 -263 -338.5 -453.5t-468.5 -281t-541 -80t-550 134.5z" />
    <glyph glyph-name="seventyfive.seven" 
d="M-2916 1982l1288 -606l608 1292q176 -83 321.5 -208t248 -275t165.5 -325.5t80 -356.5t-15.5 -370t-115.5 -365q-124 -263 -338.5 -453.5t-468.5 -281t-541 -80t-550 134.5q-263 123 -453.5 337t-282 467.5t-81 540t134.5 549.5z" />
    <glyph glyph-name="seventysix.seven" 
d="M-2876 2062l1248 -686l608 1292q176 -83 321.5 -208t248 -275t165.5 -325.5t80 -356.5t-15.5 -370t-115.5 -365q-124 -263 -338.5 -453.5t-468.5 -281t-541 -80t-550 134.5q-263 123 -453.5 337t-282 467.5t-81 540t134.5 549.5q12 28 40 80z" />
    <glyph glyph-name="seventyseven.seven" 
d="M-2830 2139l1202 -763l608 1292q176 -83 321.5 -208t248 -275t165.5 -325.5t80 -356.5t-15.5 -370t-115.5 -365q-124 -263 -338.5 -453.5t-468.5 -281t-541 -80t-550 134.5q-263 123 -453.5 337t-282 467.5t-81 540t134.5 549.5q35 78 86 157z" />
    <glyph glyph-name="seventyeight.seven" 
d="M-1628 1376l608 1292q176 -83 321.5 -208t248 -275t165.5 -325.5t80 -356.5t-15.5 -370t-115.5 -365q-124 -263 -338.5 -453.5t-468.5 -281t-541 -80t-550 134.5q-263 123 -453.5 337t-282 467.5t-81 540t134.5 549.5q55 121 136 231z" />
    <glyph glyph-name="seventynine.seven" 
d="M-1628 1376l608 1292q176 -83 321.5 -208t248 -275t165.5 -325.5t80 -356.5t-15.5 -370t-115.5 -365q-124 -263 -338.5 -453.5t-468.5 -281t-541 -80t-550 134.5q-263 123 -453.5 337t-282 467.5t-81 540t134.5 549.5q77 165 190 302z" />
    <glyph glyph-name="eighty.seven" 
d="M-1628 1376l608 1292q176 -83 321.5 -208t248 -275t165.5 -325.5t80 -356.5t-15.5 -370t-115.5 -365q-124 -263 -338.5 -453.5t-468.5 -281t-541 -80t-550 134.5q-263 123 -453.5 337t-282 467.5t-81 540t134.5 549.5q96 207 250 370z" />
    <glyph glyph-name="eightyone.seven" 
d="M-1628 1376l608 1292q176 -83 321.5 -208t248 -275t165.5 -325.5t80 -356.5t-15.5 -370t-115.5 -365q-124 -263 -338.5 -453.5t-468.5 -281t-541 -80t-550 134.5q-263 123 -453.5 337t-282 467.5t-81 540t134.5 549.5q114 245 312 432z" />
    <glyph glyph-name="eightytwo.seven" 
d="M-2536 2474l908 -1098l608 1292q176 -83 321.5 -208t248 -275t165.5 -325.5t80 -356.5t-15.5 -370t-115.5 -365q-124 -263 -338.5 -453.5t-468.5 -281t-541 -80t-550 134.5q-263 123 -453.5 337t-282 467.5t-81 540t134.5 549.5q136 290 380 492z" />
    <glyph glyph-name="eightythree.seven" 
d="M-2466 2529l838 -1153l608 1292q176 -83 321.5 -208t248 -275t165.5 -325.5t80 -356.5t-15.5 -370t-115.5 -365q-124 -263 -338.5 -453.5t-468.5 -281t-541 -80t-550 134.5q-263 123 -453.5 337t-282 467.5t-81 540t134.5 549.5q155 331 450 547z" />
    <glyph glyph-name="eightyfour.seven" 
d="M-1628 1376l608 1292q176 -83 321.5 -208t248 -275t165.5 -325.5t80 -356.5t-15.5 -370t-115.5 -365q-124 -263 -338.5 -453.5t-468.5 -281t-541 -80t-550 134.5q-263 123 -453.5 337t-282 467.5t-81 540t134.5 549.5q176 375 524 597z" />
    <glyph glyph-name="eightyfive.seven" 
d="M-2315 2625l687 -1249l608 1292q176 -83 321.5 -208t248 -275t165.5 -325.5t80 -356.5t-15.5 -370t-115.5 -365q-124 -263 -338.5 -453.5t-468.5 -281t-541 -80t-550 134.5q-263 123 -453.5 337t-282 467.5t-81 540t134.5 549.5q98 209 252.5 372.5t348.5 270.5z" />
    <glyph glyph-name="eightysix.seven" 
d="M-1628 1376l608 1292q176 -83 321.5 -208t248 -275t165.5 -325.5t80 -356.5t-15.5 -370t-115.5 -365q-124 -263 -338.5 -453.5t-468.5 -281t-541 -80t-550 134.5q-263 123 -453.5 337t-282 467.5t-81 540t134.5 549.5q107 230 283.5 404.5t397.5 279.5z" />
    <glyph glyph-name="eightyseven.seven" 
d="M-1628 1376l608 1292q176 -83 321.5 -208t248 -275t165.5 -325.5t80 -356.5t-15.5 -370t-115.5 -365q-124 -263 -338.5 -453.5t-468.5 -281t-541 -80t-550 134.5q-263 123 -453.5 337t-282 467.5t-81 540t134.5 549.5q118 252 316.5 436.5t447.5 283.5z" />
    <glyph glyph-name="eightyeight.seven" 
d="M-2068 2733l440 -1357l608 1292q176 -83 321.5 -208t248 -275t165.5 -325.5t80 -356.5t-15.5 -370t-115.5 -365q-124 -263 -338.5 -453.5t-468.5 -281t-541 -80t-550 134.5q-263 123 -453.5 337t-282 467.5t-81 540t134.5 549.5q128 273 350 466.5t498 284.5z" />
    <glyph glyph-name="eightynine.seven" 
d="M-1983 2758l355 -1382l608 1292q176 -83 321.5 -208t248 -275t165.5 -325.5t80 -356.5t-15.5 -370t-115.5 -365q-124 -263 -338.5 -453.5t-468.5 -281t-541 -80t-550 134.5q-263 123 -453.5 337t-282 467.5t-81 540t134.5 549.5q139 295 384.5 496t548.5 280z" />
    <glyph glyph-name="ninety.seven" 
d="M-1628 1376l608 1292q176 -83 321.5 -208t248 -275t165.5 -325.5t80 -356.5t-15.5 -370t-115.5 -365q-124 -263 -338.5 -453.5t-468.5 -281t-541 -80t-550 134.5q-263 123 -453.5 337t-282 467.5t-81 540t134.5 549.5q149 317 420 524.5t602 271.5z" />
    <glyph glyph-name="ninetyone.seven" 
d="M-1628 1376l608 1292q176 -83 321.5 -208t248 -275t165.5 -325.5t80 -356.5t-15.5 -370t-115.5 -365q-124 -263 -338.5 -453.5t-468.5 -281t-541 -80t-550 134.5q-263 123 -453.5 337t-282 467.5t-81 540t134.5 549.5q159 338 456 551t654 259z" />
    <glyph glyph-name="ninetytwo.seven" 
d="M-1717 2800l89 -1424l608 1292q176 -83 321.5 -208t248 -275t165.5 -325.5t80 -356.5t-15.5 -370t-115.5 -365q-124 -263 -338.5 -453.5t-468.5 -281t-541 -80t-550 134.5q-263 123 -453.5 337t-282 467.5t-81 540t134.5 549.5q113 240 300.5 420.5t417.5 281t481 116.5z
" />
    <glyph glyph-name="ninetythree.seven" 
d="M-2916 1982q119 253 321.5 440t451 284t515.5 98v-1428l608 1292q176 -83 321.5 -208t248 -275t165.5 -325.5t80 -356.5t-15.5 -370t-115.5 -365q-124 -263 -338.5 -453.5t-468.5 -281t-541 -80t-550 134.5q-263 123 -453.5 337t-282 467.5t-81 540t134.5 549.5z" />
    <glyph glyph-name="one.eight" 
d="M-1628 1376l688 1251q42 -23 77 -45z" />
    <glyph glyph-name="two.eight" 
d="M-1628 1376l688 1251q83 -45 153 -97z" />
    <glyph glyph-name="three.eight" 
d="M-1628 1376l688 1251q111 -60 222 -151z" />
    <glyph glyph-name="four.eight" 
d="M-1628 1376l688 1251q156 -85 290 -210z" />
    <glyph glyph-name="five.eight" 
d="M-1628 1376l688 1251q198 -108 353 -273z" />
    <glyph glyph-name="six.eight" 
d="M-1628 1376l688 1251q240 -132 412 -341z" />
    </font>
</defs>
</svg>
